<?xml version="1.0" encoding="utf-8" standalone="no"?>
<!DOCTYPE svg PUBLIC "-//W3C//DTD SVG 1.1//EN"
  "http://www.w3.org/Graphics/SVG/1.1/DTD/svg11.dtd">
<svg height="288pt" version="1.1" viewBox="0 0 432 288" width="432pt" xmlns="http://www.w3.org/2000/svg" xmlns:xlink="http://www.w3.org/1999/xlink">
 <metadata>
  <rdf:RDF xmlns:cc="http://creativecommons.org/ns#" xmlns:dc="http://purl.org/dc/elements/1.1/" xmlns:rdf="http://www.w3.org/1999/02/22-rdf-syntax-ns#">
   <cc:Work>
    <dc:type rdf:resource="http://purl.org/dc/dcmitype/StillImage"/>
    <dc:date>2021-11-20T00:31:59.671800</dc:date>
    <dc:format>image/svg+xml</dc:format>
    <dc:creator>
     <cc:Agent>
      <dc:title>Matplotlib v3.4.3, https://matplotlib.org/</dc:title>
     </cc:Agent>
    </dc:creator>
   </cc:Work>
  </rdf:RDF>
 </metadata>
 <defs>
  <style type="text/css">*{stroke-linecap:butt;stroke-linejoin:round;}</style>
 </defs>
 <g id="figure_1">
  <g id="patch_1">
   <path d="M 0 288 
L 432 288 
L 432 0 
L 0 0 
z
" style="fill:none;"/>
  </g>
  <g id="axes_1">
   <g id="patch_2">
    <path d="M 60.02524 243.02976 
L 420.065548 243.02976 
L 420.065548 23.58924 
L 60.02524 23.58924 
z
" style="fill:#ffffff;"/>
   </g>
   <g id="PathCollection_1">
    <defs>
     <path d="M 0 3.354102 
C 0.889518 3.354102 1.742724 3.000693 2.371708 2.371708 
C 3.000693 1.742724 3.354102 0.889518 3.354102 0 
C 3.354102 -0.889518 3.000693 -1.742724 2.371708 -2.371708 
C 1.742724 -3.000693 0.889518 -3.354102 0 -3.354102 
C -0.889518 -3.354102 -1.742724 -3.000693 -2.371708 -2.371708 
C -3.000693 -1.742724 -3.354102 -0.889518 -3.354102 0 
C -3.354102 0.889518 -3.000693 1.742724 -2.371708 2.371708 
C -1.742724 3.000693 -0.889518 3.354102 0 3.354102 
z
" id="mde0b053285" style="stroke:#ff0000;"/>
    </defs>
    <g clip-path="url(#p151f052967)">
     <use style="fill:#ff0000;stroke:#ff0000;" x="89.288078" xlink:href="#mde0b053285" y="223.460415"/>
     <use style="fill:#ff0000;stroke:#ff0000;" x="96.717562" xlink:href="#mde0b053285" y="213.465857"/>
     <use style="fill:#ff0000;stroke:#ff0000;" x="101.380603" xlink:href="#mde0b053285" y="203.471299"/>
     <use style="fill:#ff0000;stroke:#ff0000;" x="105.523654" xlink:href="#mde0b053285" y="193.47674"/>
     <use style="fill:#ff0000;stroke:#ff0000;" x="114.987842" xlink:href="#mde0b053285" y="183.482182"/>
     <use style="fill:#ff0000;stroke:#ff0000;" x="118.47107" xlink:href="#mde0b053285" y="173.487624"/>
     <use style="fill:#ff0000;stroke:#ff0000;" x="122.459799" xlink:href="#mde0b053285" y="163.493066"/>
     <use style="fill:#ff0000;stroke:#ff0000;" x="126.813781" xlink:href="#mde0b053285" y="153.498508"/>
     <use style="fill:#ff0000;stroke:#ff0000;" x="130.331085" xlink:href="#mde0b053285" y="143.503949"/>
     <use style="fill:#ff0000;stroke:#ff0000;" x="134.563365" xlink:href="#mde0b053285" y="133.509391"/>
     <use style="fill:#ff0000;stroke:#ff0000;" x="138.075586" xlink:href="#mde0b053285" y="123.514833"/>
     <use style="fill:#ff0000;stroke:#ff0000;" x="142.203113" xlink:href="#mde0b053285" y="113.520275"/>
     <use style="fill:#ff0000;stroke:#ff0000;" x="146.205563" xlink:href="#mde0b053285" y="103.525717"/>
     <use style="fill:#ff0000;stroke:#ff0000;" x="149.914625" xlink:href="#mde0b053285" y="93.531158"/>
     <use style="fill:#ff0000;stroke:#ff0000;" x="159.467148" xlink:href="#mde0b053285" y="83.5366"/>
     <use style="fill:#ff0000;stroke:#ff0000;" x="162.913327" xlink:href="#mde0b053285" y="73.542042"/>
     <use style="fill:#ff0000;stroke:#ff0000;" x="167.248053" xlink:href="#mde0b053285" y="63.547484"/>
     <use style="fill:#ff0000;stroke:#ff0000;" x="171.792471" xlink:href="#mde0b053285" y="53.552926"/>
     <use style="fill:#ff0000;stroke:#ff0000;" x="175.855987" xlink:href="#mde0b053285" y="43.558367"/>
    </g>
   </g>
   <g id="matplotlib.axis_1">
    <g id="xtick_1">
     <g id="line2d_1">
      <path clip-path="url(#p151f052967)" d="M 76.390709 243.02976 
L 76.390709 23.58924 
" style="fill:none;stroke:#b0b0b0;stroke-dasharray:3.7,1.6;stroke-dashoffset:0;"/>
     </g>
     <g id="line2d_2">
      <defs>
       <path d="M 0 0 
L 0 3.5 
" id="m47295e42c4" style="stroke:#000000;stroke-width:0.8;"/>
      </defs>
      <g>
       <use style="stroke:#000000;stroke-width:0.8;" x="76.390709" xlink:href="#m47295e42c4" y="243.02976"/>
      </g>
     </g>
     <g id="text_1">
      <!-- 0 -->
      <g transform="translate(71.300709 262.18726)scale(0.16 -0.16)">
       <defs>
        <path d="M 2034 4250 
Q 1547 4250 1301 3770 
Q 1056 3291 1056 2328 
Q 1056 1369 1301 889 
Q 1547 409 2034 409 
Q 2525 409 2770 889 
Q 3016 1369 3016 2328 
Q 3016 3291 2770 3770 
Q 2525 4250 2034 4250 
z
M 2034 4750 
Q 2819 4750 3233 4129 
Q 3647 3509 3647 2328 
Q 3647 1150 3233 529 
Q 2819 -91 2034 -91 
Q 1250 -91 836 529 
Q 422 1150 422 2328 
Q 422 3509 836 4129 
Q 1250 4750 2034 4750 
z
" id="DejaVuSans-30" transform="scale(0.015625)"/>
       </defs>
       <use xlink:href="#DejaVuSans-30"/>
      </g>
     </g>
    </g>
    <g id="xtick_2">
     <g id="line2d_3">
      <path clip-path="url(#p151f052967)" d="M 132.612601 243.02976 
L 132.612601 23.58924 
" style="fill:none;stroke:#b0b0b0;stroke-dasharray:3.7,1.6;stroke-dashoffset:0;"/>
     </g>
     <g id="line2d_4">
      <g>
       <use style="stroke:#000000;stroke-width:0.8;" x="132.612601" xlink:href="#m47295e42c4" y="243.02976"/>
      </g>
     </g>
     <g id="text_2">
      <!-- 50 -->
      <g transform="translate(122.432601 262.18726)scale(0.16 -0.16)">
       <defs>
        <path d="M 691 4666 
L 3169 4666 
L 3169 4134 
L 1269 4134 
L 1269 2991 
Q 1406 3038 1543 3061 
Q 1681 3084 1819 3084 
Q 2600 3084 3056 2656 
Q 3513 2228 3513 1497 
Q 3513 744 3044 326 
Q 2575 -91 1722 -91 
Q 1428 -91 1123 -41 
Q 819 9 494 109 
L 494 744 
Q 775 591 1075 516 
Q 1375 441 1709 441 
Q 2250 441 2565 725 
Q 2881 1009 2881 1497 
Q 2881 1984 2565 2268 
Q 2250 2553 1709 2553 
Q 1456 2553 1204 2497 
Q 953 2441 691 2322 
L 691 4666 
z
" id="DejaVuSans-35" transform="scale(0.015625)"/>
       </defs>
       <use xlink:href="#DejaVuSans-35"/>
       <use x="63.623047" xlink:href="#DejaVuSans-30"/>
      </g>
     </g>
    </g>
    <g id="xtick_3">
     <g id="line2d_5">
      <path clip-path="url(#p151f052967)" d="M 188.834493 243.02976 
L 188.834493 23.58924 
" style="fill:none;stroke:#b0b0b0;stroke-dasharray:3.7,1.6;stroke-dashoffset:0;"/>
     </g>
     <g id="line2d_6">
      <g>
       <use style="stroke:#000000;stroke-width:0.8;" x="188.834493" xlink:href="#m47295e42c4" y="243.02976"/>
      </g>
     </g>
     <g id="text_3">
      <!-- 100 -->
      <g transform="translate(173.564493 262.18726)scale(0.16 -0.16)">
       <defs>
        <path d="M 794 531 
L 1825 531 
L 1825 4091 
L 703 3866 
L 703 4441 
L 1819 4666 
L 2450 4666 
L 2450 531 
L 3481 531 
L 3481 0 
L 794 0 
L 794 531 
z
" id="DejaVuSans-31" transform="scale(0.015625)"/>
       </defs>
       <use xlink:href="#DejaVuSans-31"/>
       <use x="63.623047" xlink:href="#DejaVuSans-30"/>
       <use x="127.246094" xlink:href="#DejaVuSans-30"/>
      </g>
     </g>
    </g>
    <g id="xtick_4">
     <g id="line2d_7">
      <path clip-path="url(#p151f052967)" d="M 245.056385 243.02976 
L 245.056385 23.58924 
" style="fill:none;stroke:#b0b0b0;stroke-dasharray:3.7,1.6;stroke-dashoffset:0;"/>
     </g>
     <g id="line2d_8">
      <g>
       <use style="stroke:#000000;stroke-width:0.8;" x="245.056385" xlink:href="#m47295e42c4" y="243.02976"/>
      </g>
     </g>
     <g id="text_4">
      <!-- 150 -->
      <g transform="translate(229.786385 262.18726)scale(0.16 -0.16)">
       <use xlink:href="#DejaVuSans-31"/>
       <use x="63.623047" xlink:href="#DejaVuSans-35"/>
       <use x="127.246094" xlink:href="#DejaVuSans-30"/>
      </g>
     </g>
    </g>
    <g id="xtick_5">
     <g id="line2d_9">
      <path clip-path="url(#p151f052967)" d="M 301.278277 243.02976 
L 301.278277 23.58924 
" style="fill:none;stroke:#b0b0b0;stroke-dasharray:3.7,1.6;stroke-dashoffset:0;"/>
     </g>
     <g id="line2d_10">
      <g>
       <use style="stroke:#000000;stroke-width:0.8;" x="301.278277" xlink:href="#m47295e42c4" y="243.02976"/>
      </g>
     </g>
     <g id="text_5">
      <!-- 200 -->
      <g transform="translate(286.008277 262.18726)scale(0.16 -0.16)">
       <defs>
        <path d="M 1228 531 
L 3431 531 
L 3431 0 
L 469 0 
L 469 531 
Q 828 903 1448 1529 
Q 2069 2156 2228 2338 
Q 2531 2678 2651 2914 
Q 2772 3150 2772 3378 
Q 2772 3750 2511 3984 
Q 2250 4219 1831 4219 
Q 1534 4219 1204 4116 
Q 875 4013 500 3803 
L 500 4441 
Q 881 4594 1212 4672 
Q 1544 4750 1819 4750 
Q 2544 4750 2975 4387 
Q 3406 4025 3406 3419 
Q 3406 3131 3298 2873 
Q 3191 2616 2906 2266 
Q 2828 2175 2409 1742 
Q 1991 1309 1228 531 
z
" id="DejaVuSans-32" transform="scale(0.015625)"/>
       </defs>
       <use xlink:href="#DejaVuSans-32"/>
       <use x="63.623047" xlink:href="#DejaVuSans-30"/>
       <use x="127.246094" xlink:href="#DejaVuSans-30"/>
      </g>
     </g>
    </g>
    <g id="xtick_6">
     <g id="line2d_11">
      <path clip-path="url(#p151f052967)" d="M 357.500168 243.02976 
L 357.500168 23.58924 
" style="fill:none;stroke:#b0b0b0;stroke-dasharray:3.7,1.6;stroke-dashoffset:0;"/>
     </g>
     <g id="line2d_12">
      <g>
       <use style="stroke:#000000;stroke-width:0.8;" x="357.500168" xlink:href="#m47295e42c4" y="243.02976"/>
      </g>
     </g>
     <g id="text_6">
      <!-- 250 -->
      <g transform="translate(342.230168 262.18726)scale(0.16 -0.16)">
       <use xlink:href="#DejaVuSans-32"/>
       <use x="63.623047" xlink:href="#DejaVuSans-35"/>
       <use x="127.246094" xlink:href="#DejaVuSans-30"/>
      </g>
     </g>
    </g>
    <g id="xtick_7">
     <g id="line2d_13">
      <path clip-path="url(#p151f052967)" d="M 413.72206 243.02976 
L 413.72206 23.58924 
" style="fill:none;stroke:#b0b0b0;stroke-dasharray:3.7,1.6;stroke-dashoffset:0;"/>
     </g>
     <g id="line2d_14">
      <g>
       <use style="stroke:#000000;stroke-width:0.8;" x="413.72206" xlink:href="#m47295e42c4" y="243.02976"/>
      </g>
     </g>
     <g id="text_7">
      <!-- 300 -->
      <g transform="translate(398.45206 262.18726)scale(0.16 -0.16)">
       <defs>
        <path d="M 2597 2516 
Q 3050 2419 3304 2112 
Q 3559 1806 3559 1356 
Q 3559 666 3084 287 
Q 2609 -91 1734 -91 
Q 1441 -91 1130 -33 
Q 819 25 488 141 
L 488 750 
Q 750 597 1062 519 
Q 1375 441 1716 441 
Q 2309 441 2620 675 
Q 2931 909 2931 1356 
Q 2931 1769 2642 2001 
Q 2353 2234 1838 2234 
L 1294 2234 
L 1294 2753 
L 1863 2753 
Q 2328 2753 2575 2939 
Q 2822 3125 2822 3475 
Q 2822 3834 2567 4026 
Q 2313 4219 1838 4219 
Q 1578 4219 1281 4162 
Q 984 4106 628 3988 
L 628 4550 
Q 988 4650 1302 4700 
Q 1616 4750 1894 4750 
Q 2613 4750 3031 4423 
Q 3450 4097 3450 3541 
Q 3450 3153 3228 2886 
Q 3006 2619 2597 2516 
z
" id="DejaVuSans-33" transform="scale(0.015625)"/>
       </defs>
       <use xlink:href="#DejaVuSans-33"/>
       <use x="63.623047" xlink:href="#DejaVuSans-30"/>
       <use x="127.246094" xlink:href="#DejaVuSans-30"/>
      </g>
     </g>
    </g>
    <g id="text_8">
     <!-- Time (m) -->
     <g transform="translate(203.894144 281.67226)scale(0.16 -0.16)">
      <defs>
       <path d="M -19 4666 
L 3928 4666 
L 3928 4134 
L 2272 4134 
L 2272 0 
L 1638 0 
L 1638 4134 
L -19 4134 
L -19 4666 
z
" id="DejaVuSans-54" transform="scale(0.015625)"/>
       <path d="M 603 3500 
L 1178 3500 
L 1178 0 
L 603 0 
L 603 3500 
z
M 603 4863 
L 1178 4863 
L 1178 4134 
L 603 4134 
L 603 4863 
z
" id="DejaVuSans-69" transform="scale(0.015625)"/>
       <path d="M 3328 2828 
Q 3544 3216 3844 3400 
Q 4144 3584 4550 3584 
Q 5097 3584 5394 3201 
Q 5691 2819 5691 2113 
L 5691 0 
L 5113 0 
L 5113 2094 
Q 5113 2597 4934 2840 
Q 4756 3084 4391 3084 
Q 3944 3084 3684 2787 
Q 3425 2491 3425 1978 
L 3425 0 
L 2847 0 
L 2847 2094 
Q 2847 2600 2669 2842 
Q 2491 3084 2119 3084 
Q 1678 3084 1418 2786 
Q 1159 2488 1159 1978 
L 1159 0 
L 581 0 
L 581 3500 
L 1159 3500 
L 1159 2956 
Q 1356 3278 1631 3431 
Q 1906 3584 2284 3584 
Q 2666 3584 2933 3390 
Q 3200 3197 3328 2828 
z
" id="DejaVuSans-6d" transform="scale(0.015625)"/>
       <path d="M 3597 1894 
L 3597 1613 
L 953 1613 
Q 991 1019 1311 708 
Q 1631 397 2203 397 
Q 2534 397 2845 478 
Q 3156 559 3463 722 
L 3463 178 
Q 3153 47 2828 -22 
Q 2503 -91 2169 -91 
Q 1331 -91 842 396 
Q 353 884 353 1716 
Q 353 2575 817 3079 
Q 1281 3584 2069 3584 
Q 2775 3584 3186 3129 
Q 3597 2675 3597 1894 
z
M 3022 2063 
Q 3016 2534 2758 2815 
Q 2500 3097 2075 3097 
Q 1594 3097 1305 2825 
Q 1016 2553 972 2059 
L 3022 2063 
z
" id="DejaVuSans-65" transform="scale(0.015625)"/>
       <path id="DejaVuSans-20" transform="scale(0.015625)"/>
       <path d="M 1984 4856 
Q 1566 4138 1362 3434 
Q 1159 2731 1159 2009 
Q 1159 1288 1364 580 
Q 1569 -128 1984 -844 
L 1484 -844 
Q 1016 -109 783 600 
Q 550 1309 550 2009 
Q 550 2706 781 3412 
Q 1013 4119 1484 4856 
L 1984 4856 
z
" id="DejaVuSans-28" transform="scale(0.015625)"/>
       <path d="M 513 4856 
L 1013 4856 
Q 1481 4119 1714 3412 
Q 1947 2706 1947 2009 
Q 1947 1309 1714 600 
Q 1481 -109 1013 -844 
L 513 -844 
Q 928 -128 1133 580 
Q 1338 1288 1338 2009 
Q 1338 2731 1133 3434 
Q 928 4138 513 4856 
z
" id="DejaVuSans-29" transform="scale(0.015625)"/>
      </defs>
      <use xlink:href="#DejaVuSans-54"/>
      <use x="57.958984" xlink:href="#DejaVuSans-69"/>
      <use x="85.742188" xlink:href="#DejaVuSans-6d"/>
      <use x="183.154297" xlink:href="#DejaVuSans-65"/>
      <use x="244.677734" xlink:href="#DejaVuSans-20"/>
      <use x="276.464844" xlink:href="#DejaVuSans-28"/>
      <use x="315.478516" xlink:href="#DejaVuSans-6d"/>
      <use x="412.890625" xlink:href="#DejaVuSans-29"/>
     </g>
    </g>
   </g>
   <g id="matplotlib.axis_2">
    <g id="ytick_1">
     <g id="line2d_15">
      <path clip-path="url(#p151f052967)" d="M 60.02524 233.055191 
L 420.065548 233.055191 
" style="fill:none;stroke:#b0b0b0;stroke-dasharray:3.7,1.6;stroke-dashoffset:0;"/>
     </g>
     <g id="line2d_16">
      <defs>
       <path d="M 0 0 
L -3.5 0 
" id="ma0c39c21b1" style="stroke:#000000;stroke-width:0.8;"/>
      </defs>
      <g>
       <use style="stroke:#000000;stroke-width:0.8;" x="60.02524" xlink:href="#ma0c39c21b1" y="233.055191"/>
      </g>
     </g>
     <g id="text_9">
      <!-- 0 -->
      <g transform="translate(42.84524 239.133941)scale(0.16 -0.16)">
       <use xlink:href="#DejaVuSans-30"/>
      </g>
     </g>
    </g>
    <g id="ytick_2">
     <g id="line2d_17">
      <path clip-path="url(#p151f052967)" d="M 60.02524 193.076958 
L 420.065548 193.076958 
" style="fill:none;stroke:#b0b0b0;stroke-dasharray:3.7,1.6;stroke-dashoffset:0;"/>
     </g>
     <g id="line2d_18">
      <g>
       <use style="stroke:#000000;stroke-width:0.8;" x="60.02524" xlink:href="#ma0c39c21b1" y="193.076958"/>
      </g>
     </g>
     <g id="text_10">
      <!-- 100 -->
      <g transform="translate(22.48524 199.155708)scale(0.16 -0.16)">
       <use xlink:href="#DejaVuSans-31"/>
       <use x="63.623047" xlink:href="#DejaVuSans-30"/>
       <use x="127.246094" xlink:href="#DejaVuSans-30"/>
      </g>
     </g>
    </g>
    <g id="ytick_3">
     <g id="line2d_19">
      <path clip-path="url(#p151f052967)" d="M 60.02524 153.098725 
L 420.065548 153.098725 
" style="fill:none;stroke:#b0b0b0;stroke-dasharray:3.7,1.6;stroke-dashoffset:0;"/>
     </g>
     <g id="line2d_20">
      <g>
       <use style="stroke:#000000;stroke-width:0.8;" x="60.02524" xlink:href="#ma0c39c21b1" y="153.098725"/>
      </g>
     </g>
     <g id="text_11">
      <!-- 200 -->
      <g transform="translate(22.48524 159.177475)scale(0.16 -0.16)">
       <use xlink:href="#DejaVuSans-32"/>
       <use x="63.623047" xlink:href="#DejaVuSans-30"/>
       <use x="127.246094" xlink:href="#DejaVuSans-30"/>
      </g>
     </g>
    </g>
    <g id="ytick_4">
     <g id="line2d_21">
      <path clip-path="url(#p151f052967)" d="M 60.02524 113.120492 
L 420.065548 113.120492 
" style="fill:none;stroke:#b0b0b0;stroke-dasharray:3.7,1.6;stroke-dashoffset:0;"/>
     </g>
     <g id="line2d_22">
      <g>
       <use style="stroke:#000000;stroke-width:0.8;" x="60.02524" xlink:href="#ma0c39c21b1" y="113.120492"/>
      </g>
     </g>
     <g id="text_12">
      <!-- 300 -->
      <g transform="translate(22.48524 119.199242)scale(0.16 -0.16)">
       <use xlink:href="#DejaVuSans-33"/>
       <use x="63.623047" xlink:href="#DejaVuSans-30"/>
       <use x="127.246094" xlink:href="#DejaVuSans-30"/>
      </g>
     </g>
    </g>
    <g id="ytick_5">
     <g id="line2d_23">
      <path clip-path="url(#p151f052967)" d="M 60.02524 73.14226 
L 420.065548 73.14226 
" style="fill:none;stroke:#b0b0b0;stroke-dasharray:3.7,1.6;stroke-dashoffset:0;"/>
     </g>
     <g id="line2d_24">
      <g>
       <use style="stroke:#000000;stroke-width:0.8;" x="60.02524" xlink:href="#ma0c39c21b1" y="73.14226"/>
      </g>
     </g>
     <g id="text_13">
      <!-- 400 -->
      <g transform="translate(22.48524 79.22101)scale(0.16 -0.16)">
       <defs>
        <path d="M 2419 4116 
L 825 1625 
L 2419 1625 
L 2419 4116 
z
M 2253 4666 
L 3047 4666 
L 3047 1625 
L 3713 1625 
L 3713 1100 
L 3047 1100 
L 3047 0 
L 2419 0 
L 2419 1100 
L 313 1100 
L 313 1709 
L 2253 4666 
z
" id="DejaVuSans-34" transform="scale(0.015625)"/>
       </defs>
       <use xlink:href="#DejaVuSans-34"/>
       <use x="63.623047" xlink:href="#DejaVuSans-30"/>
       <use x="127.246094" xlink:href="#DejaVuSans-30"/>
      </g>
     </g>
    </g>
    <g id="ytick_6">
     <g id="line2d_25">
      <path clip-path="url(#p151f052967)" d="M 60.02524 33.164027 
L 420.065548 33.164027 
" style="fill:none;stroke:#b0b0b0;stroke-dasharray:3.7,1.6;stroke-dashoffset:0;"/>
     </g>
     <g id="line2d_26">
      <g>
       <use style="stroke:#000000;stroke-width:0.8;" x="60.02524" xlink:href="#ma0c39c21b1" y="33.164027"/>
      </g>
     </g>
     <g id="text_14">
      <!-- 500 -->
      <g transform="translate(22.48524 39.242777)scale(0.16 -0.16)">
       <use xlink:href="#DejaVuSans-35"/>
       <use x="63.623047" xlink:href="#DejaVuSans-30"/>
       <use x="127.246094" xlink:href="#DejaVuSans-30"/>
      </g>
     </g>
    </g>
    <g id="text_15">
     <!-- Queries complete -->
     <g transform="translate(15.15774 204.112)rotate(-90)scale(0.16 -0.16)">
      <defs>
       <path d="M 2522 4238 
Q 1834 4238 1429 3725 
Q 1025 3213 1025 2328 
Q 1025 1447 1429 934 
Q 1834 422 2522 422 
Q 3209 422 3611 934 
Q 4013 1447 4013 2328 
Q 4013 3213 3611 3725 
Q 3209 4238 2522 4238 
z
M 3406 84 
L 4238 -825 
L 3475 -825 
L 2784 -78 
Q 2681 -84 2626 -87 
Q 2572 -91 2522 -91 
Q 1538 -91 948 567 
Q 359 1225 359 2328 
Q 359 3434 948 4092 
Q 1538 4750 2522 4750 
Q 3503 4750 4090 4092 
Q 4678 3434 4678 2328 
Q 4678 1516 4351 937 
Q 4025 359 3406 84 
z
" id="DejaVuSans-51" transform="scale(0.015625)"/>
       <path d="M 544 1381 
L 544 3500 
L 1119 3500 
L 1119 1403 
Q 1119 906 1312 657 
Q 1506 409 1894 409 
Q 2359 409 2629 706 
Q 2900 1003 2900 1516 
L 2900 3500 
L 3475 3500 
L 3475 0 
L 2900 0 
L 2900 538 
Q 2691 219 2414 64 
Q 2138 -91 1772 -91 
Q 1169 -91 856 284 
Q 544 659 544 1381 
z
M 1991 3584 
L 1991 3584 
z
" id="DejaVuSans-75" transform="scale(0.015625)"/>
       <path d="M 2631 2963 
Q 2534 3019 2420 3045 
Q 2306 3072 2169 3072 
Q 1681 3072 1420 2755 
Q 1159 2438 1159 1844 
L 1159 0 
L 581 0 
L 581 3500 
L 1159 3500 
L 1159 2956 
Q 1341 3275 1631 3429 
Q 1922 3584 2338 3584 
Q 2397 3584 2469 3576 
Q 2541 3569 2628 3553 
L 2631 2963 
z
" id="DejaVuSans-72" transform="scale(0.015625)"/>
       <path d="M 2834 3397 
L 2834 2853 
Q 2591 2978 2328 3040 
Q 2066 3103 1784 3103 
Q 1356 3103 1142 2972 
Q 928 2841 928 2578 
Q 928 2378 1081 2264 
Q 1234 2150 1697 2047 
L 1894 2003 
Q 2506 1872 2764 1633 
Q 3022 1394 3022 966 
Q 3022 478 2636 193 
Q 2250 -91 1575 -91 
Q 1294 -91 989 -36 
Q 684 19 347 128 
L 347 722 
Q 666 556 975 473 
Q 1284 391 1588 391 
Q 1994 391 2212 530 
Q 2431 669 2431 922 
Q 2431 1156 2273 1281 
Q 2116 1406 1581 1522 
L 1381 1569 
Q 847 1681 609 1914 
Q 372 2147 372 2553 
Q 372 3047 722 3315 
Q 1072 3584 1716 3584 
Q 2034 3584 2315 3537 
Q 2597 3491 2834 3397 
z
" id="DejaVuSans-73" transform="scale(0.015625)"/>
       <path d="M 3122 3366 
L 3122 2828 
Q 2878 2963 2633 3030 
Q 2388 3097 2138 3097 
Q 1578 3097 1268 2742 
Q 959 2388 959 1747 
Q 959 1106 1268 751 
Q 1578 397 2138 397 
Q 2388 397 2633 464 
Q 2878 531 3122 666 
L 3122 134 
Q 2881 22 2623 -34 
Q 2366 -91 2075 -91 
Q 1284 -91 818 406 
Q 353 903 353 1747 
Q 353 2603 823 3093 
Q 1294 3584 2113 3584 
Q 2378 3584 2631 3529 
Q 2884 3475 3122 3366 
z
" id="DejaVuSans-63" transform="scale(0.015625)"/>
       <path d="M 1959 3097 
Q 1497 3097 1228 2736 
Q 959 2375 959 1747 
Q 959 1119 1226 758 
Q 1494 397 1959 397 
Q 2419 397 2687 759 
Q 2956 1122 2956 1747 
Q 2956 2369 2687 2733 
Q 2419 3097 1959 3097 
z
M 1959 3584 
Q 2709 3584 3137 3096 
Q 3566 2609 3566 1747 
Q 3566 888 3137 398 
Q 2709 -91 1959 -91 
Q 1206 -91 779 398 
Q 353 888 353 1747 
Q 353 2609 779 3096 
Q 1206 3584 1959 3584 
z
" id="DejaVuSans-6f" transform="scale(0.015625)"/>
       <path d="M 1159 525 
L 1159 -1331 
L 581 -1331 
L 581 3500 
L 1159 3500 
L 1159 2969 
Q 1341 3281 1617 3432 
Q 1894 3584 2278 3584 
Q 2916 3584 3314 3078 
Q 3713 2572 3713 1747 
Q 3713 922 3314 415 
Q 2916 -91 2278 -91 
Q 1894 -91 1617 61 
Q 1341 213 1159 525 
z
M 3116 1747 
Q 3116 2381 2855 2742 
Q 2594 3103 2138 3103 
Q 1681 3103 1420 2742 
Q 1159 2381 1159 1747 
Q 1159 1113 1420 752 
Q 1681 391 2138 391 
Q 2594 391 2855 752 
Q 3116 1113 3116 1747 
z
" id="DejaVuSans-70" transform="scale(0.015625)"/>
       <path d="M 603 4863 
L 1178 4863 
L 1178 0 
L 603 0 
L 603 4863 
z
" id="DejaVuSans-6c" transform="scale(0.015625)"/>
       <path d="M 1172 4494 
L 1172 3500 
L 2356 3500 
L 2356 3053 
L 1172 3053 
L 1172 1153 
Q 1172 725 1289 603 
Q 1406 481 1766 481 
L 2356 481 
L 2356 0 
L 1766 0 
Q 1100 0 847 248 
Q 594 497 594 1153 
L 594 3053 
L 172 3053 
L 172 3500 
L 594 3500 
L 594 4494 
L 1172 4494 
z
" id="DejaVuSans-74" transform="scale(0.015625)"/>
      </defs>
      <use xlink:href="#DejaVuSans-51"/>
      <use x="78.710938" xlink:href="#DejaVuSans-75"/>
      <use x="142.089844" xlink:href="#DejaVuSans-65"/>
      <use x="203.613281" xlink:href="#DejaVuSans-72"/>
      <use x="244.726562" xlink:href="#DejaVuSans-69"/>
      <use x="272.509766" xlink:href="#DejaVuSans-65"/>
      <use x="334.033203" xlink:href="#DejaVuSans-73"/>
      <use x="386.132812" xlink:href="#DejaVuSans-20"/>
      <use x="417.919922" xlink:href="#DejaVuSans-63"/>
      <use x="472.900391" xlink:href="#DejaVuSans-6f"/>
      <use x="534.082031" xlink:href="#DejaVuSans-6d"/>
      <use x="631.494141" xlink:href="#DejaVuSans-70"/>
      <use x="694.970703" xlink:href="#DejaVuSans-6c"/>
      <use x="722.753906" xlink:href="#DejaVuSans-65"/>
      <use x="784.277344" xlink:href="#DejaVuSans-74"/>
      <use x="823.486328" xlink:href="#DejaVuSans-65"/>
     </g>
    </g>
   </g>
   <g id="line2d_27">
    <path clip-path="url(#p151f052967)" d="M 76.390709 233.055191 
L 76.626137 232.255626 
L 77.32161 231.855844 
L 77.659614 231.056279 
L 78.394578 230.656497 
L 80.749811 230.256715 
L 81.073792 229.45715 
L 81.757255 229.057368 
L 85.233742 228.657585 
L 85.505718 227.858021 
L 85.734103 227.458238 
L 85.778592 227.058456 
L 86.46542 226.658674 
L 87.190214 224.659762 
L 89.074915 224.25998 
L 89.301896 223.460415 
L 91.161029 223.060633 
L 95.866795 222.261068 
L 96.36825 220.661939 
L 96.406295 220.262156 
L 96.557389 219.862374 
L 96.631848 219.062809 
L 96.87382 218.263245 
L 99.256116 217.863462 
L 99.67904 216.664115 
L 105.338429 216.264333 
L 105.438815 215.864551 
L 107.768406 215.464768 
L 113.424102 215.064986 
L 114.304511 213.066074 
L 114.989769 212.666292 
L 115.118825 212.26651 
L 115.973106 211.866728 
L 116.289028 211.067163 
L 116.652114 209.068251 
L 116.871882 208.668469 
L 116.938336 208.268687 
L 117.277828 207.469122 
L 117.398532 207.06934 
L 123.057443 206.669557 
L 123.381822 205.47021 
L 125.624948 204.270863 
L 126.128071 201.872169 
L 131.785176 201.472387 
L 131.981456 200.672822 
L 132.104968 200.27304 
L 132.80159 199.873258 
L 132.806864 199.473475 
L 133.491584 199.073693 
L 133.593724 198.673911 
L 137.044801 198.274128 
L 139.303966 197.874346 
L 139.597207 197.074781 
L 140.113517 195.875434 
L 140.232996 195.07587 
L 140.518467 193.876523 
L 142.831607 193.47674 
L 143.104867 192.677176 
L 143.302579 192.277393 
L 143.459582 191.477829 
L 144.088598 190.278482 
L 144.27062 189.478917 
L 144.955058 189.079135 
L 145.076358 188.679352 
L 148.51106 188.27957 
L 148.803733 187.480005 
L 151.128324 187.080223 
L 151.228218 186.680441 
L 151.544841 185.880876 
L 151.607616 185.481094 
L 152.935881 185.081312 
L 153.133487 183.881965 
L 153.410377 182.682618 
L 154.989995 181.883053 
L 155.3396 180.683706 
L 156.874815 179.884141 
L 159.271348 179.484359 
L 159.472206 178.684794 
L 162.01457 177.88523 
L 162.31502 176.2861 
L 164.656743 175.886318 
L 164.848469 175.486536 
L 165.524939 175.086753 
L 165.689294 174.287189 
L 166.370052 173.887406 
L 166.56047 173.087842 
L 167.027575 172.288277 
L 170.487562 171.888495 
L 170.663198 171.488712 
L 171.342149 171.08893 
L 173.150436 170.689148 
L 173.271585 170.289365 
L 178.929897 169.889583 
L 179.610062 169.489801 
L 179.928318 168.690236 
L 185.589049 168.290454 
L 185.748319 167.890671 
L 188.089755 167.490889 
L 188.202371 167.091107 
L 193.86274 166.691324 
L 193.960061 166.291542 
L 194.638509 165.89176 
L 194.695943 165.491977 
L 195.55341 165.092195 
L 195.908181 163.493066 
L 196.045892 163.093283 
L 198.17297 162.693501 
L 198.612561 161.893936 
L 198.77596 161.094372 
L 198.972064 160.294807 
L 201.373708 159.895025 
L 201.566651 159.495243 
L 205.773765 158.695678 
L 211.432644 158.295896 
L 211.821257 157.496331 
L 212.113891 156.696766 
L 217.773199 156.296984 
L 218.181109 155.497419 
L 220.524263 155.097637 
L 220.807963 153.89829 
L 221.099044 153.098725 
L 221.955583 152.698943 
L 222.171629 151.899378 
L 222.259567 151.499596 
L 222.935291 151.099814 
L 223.238606 150.300249 
L 223.345633 149.500684 
L 225.144762 143.104167 
L 228.577396 142.704385 
L 230.905173 142.304602 
L 231.115618 141.505038 
L 233.59432 141.105255 
L 234.043907 139.905908 
L 239.699939 139.506126 
L 239.877078 139.106344 
L 240.574183 138.706561 
L 246.232749 138.306779 
L 246.770688 136.70765 
L 250.174159 136.307867 
L 251.691469 135.508303 
L 251.870668 135.10852 
L 257.528328 134.708738 
L 257.629763 133.909173 
L 257.817281 133.109609 
L 258.997804 132.709827 
L 259.458448 130.710915 
L 260.141707 130.311133 
L 260.260546 129.91135 
L 262.550225 128.712003 
L 262.746506 128.312221 
L 262.951415 127.512656 
L 263.227396 126.713092 
L 263.830527 124.314398 
L 264.677614 123.914615 
L 264.733667 123.514833 
L 265.14649 122.315486 
L 265.554844 121.116139 
L 266.225666 120.716357 
L 266.56529 119.916792 
L 266.807606 119.117227 
L 266.955782 118.717445 
L 269.281342 118.317663 
L 269.578203 117.518098 
L 269.670554 117.118316 
L 270.924178 116.718533 
L 271.264869 115.918969 
L 271.804417 114.319839 
L 274.153584 113.920057 
L 274.851881 113.520275 
L 275.011187 113.120492 
L 275.194397 112.320928 
L 275.374783 111.521363 
L 275.520077 110.721798 
L 276.202836 110.322016 
L 276.333801 109.922234 
L 278.657117 109.522451 
L 280.003069 108.722887 
L 285.659506 108.323104 
L 285.968663 107.52354 
L 286.68206 107.123757 
L 286.978916 106.324193 
L 287.043075 105.924411 
L 287.90171 105.524628 
L 290.207386 105.124846 
L 290.433406 104.325281 
L 291.114767 103.925499 
L 291.330981 103.125934 
L 293.136555 102.726152 
L 293.995551 102.32637 
L 294.121536 101.926587 
L 296.487682 101.526805 
L 297.069419 99.927676 
L 301.701919 99.128111 
L 302.383754 98.728329 
L 302.546976 97.928764 
L 302.764333 97.129199 
L 308.423549 96.729417 
L 308.657642 95.929852 
L 310.455797 95.53007 
L 312.828759 95.130288 
L 313.273249 93.930941 
L 313.379989 93.131376 
L 313.417293 92.731594 
L 314.276189 92.331811 
L 314.876229 90.732682 
L 315.189496 89.933117 
L 315.559594 89.133553 
L 315.746362 88.333988 
L 319.11168 87.934206 
L 319.116835 87.534423 
L 319.636866 85.935294 
L 320.487198 85.535512 
L 320.524359 85.135729 
L 320.83185 84.336165 
L 321.317902 82.737035 
L 323.169141 82.337253 
L 323.40072 81.537688 
L 323.661567 80.738124 
L 323.94348 79.938559 
L 324.234114 79.138995 
L 324.289705 78.739212 
L 324.48102 78.33943 
L 325.339267 77.939648 
L 325.696235 77.140083 
L 326.607318 73.542042 
L 326.853526 73.14226 
L 327.535914 72.742477 
L 327.569986 72.342695 
L 327.858979 71.54313 
L 327.92251 71.143348 
L 330.279593 70.743566 
L 333.728709 70.343783 
L 333.94513 69.944001 
L 335.813408 69.544219 
L 335.932737 69.144436 
L 337.266423 68.744654 
L 337.360641 68.344872 
L 338.045054 67.945089 
L 338.268959 67.145525 
L 343.925732 66.745742 
L 344.267637 65.546395 
L 345.115921 63.547484 
L 350.773955 63.147701 
L 350.962642 62.348137 
L 353.467163 61.548572 
L 354.168923 59.949443 
L 357.578458 59.54966 
L 357.69499 59.149878 
L 363.352963 58.750096 
L 363.531411 57.950531 
L 364.118013 55.951619 
L 364.812098 55.551837 
L 365.089641 54.752272 
L 368.512286 54.35249 
L 368.699013 53.552926 
L 369.420284 53.153143 
L 369.711522 51.953796 
L 375.369509 51.554014 
L 375.572553 51.154232 
L 376.936558 50.754449 
L 380.370359 50.354667 
L 380.706946 49.555102 
L 383.129854 49.15532 
L 383.535106 47.156408 
L 389.194282 46.756626 
L 389.871197 45.157497 
L 389.907046 44.757714 
L 390.098902 44.357932 
L 390.778207 43.95815 
L 391.447465 42.35902 
L 393.792122 41.959238 
L 395.040635 41.559456 
L 395.14088 40.759891 
L 395.338457 40.360109 
L 396.58012 39.960326 
L 398.925816 39.560544 
L 399.432879 37.961415 
L 399.531748 37.561632 
L 400.901096 36.762068 
L 401.151157 36.362285 
L 401.264695 35.962503 
L 403.163171 35.562721 
L 403.544865 34.763156 
L 403.70008 33.563809 
L 403.70008 33.563809 
" style="fill:none;stroke:#1f77b4;stroke-linecap:square;stroke-width:3;"/>
   </g>
   <g id="line2d_28">
    <path clip-path="url(#p151f052967)" d="M 76.390709 233.055191 
L 76.624178 232.255626 
L 77.312361 231.855844 
L 77.643651 231.056279 
L 78.330893 230.656497 
L 80.787311 230.256715 
L 81.117856 229.45715 
L 81.801496 229.057368 
L 85.21974 228.657585 
L 85.485848 227.858021 
L 85.743275 227.458238 
L 85.788532 227.058456 
L 86.472306 226.658674 
L 87.199955 224.659762 
L 89.058751 224.25998 
L 89.288078 223.460415 
L 92.761487 223.060633 
L 93.373081 221.861286 
L 94.646917 217.46368 
L 94.970107 216.664115 
L 95.309449 216.264333 
L 95.418445 215.864551 
L 96.948621 213.066074 
L 97.35528 211.866728 
L 97.861184 211.466945 
L 98.530215 209.068251 
L 99.047211 208.668469 
L 99.125994 208.268687 
L 99.625079 207.06934 
L 100.452412 206.669557 
L 102.560343 199.873258 
L 102.575247 199.473475 
L 102.935479 198.673911 
L 103.168458 198.274128 
L 104.014519 197.874346 
L 104.332236 197.074781 
L 104.696698 196.275217 
L 105.523654 193.47674 
L 105.993556 192.677176 
L 106.198454 192.277393 
L 106.389475 191.477829 
L 107.066256 190.278482 
L 107.110228 189.878699 
L 107.335143 189.478917 
L 107.574261 188.679352 
L 113.224361 188.27957 
L 114.220212 185.481094 
L 114.646149 185.081312 
L 114.88347 183.881965 
L 114.987842 183.482182 
L 115.423782 183.0824 
L 116.241832 180.283924 
L 116.833072 178.684794 
L 117.35744 177.88523 
L 117.702149 176.2861 
L 118.060422 175.086753 
L 118.249508 174.287189 
L 118.47107 173.487624 
L 118.984721 173.087842 
L 120.12778 170.689148 
L 121.03674 168.290454 
L 121.358578 167.490889 
L 122.139103 164.692413 
L 122.32452 163.892848 
L 122.459799 163.493066 
L 123.032006 163.093283 
L 123.626562 161.893936 
L 123.813252 161.094372 
L 123.915757 160.694589 
L 124.394435 159.895025 
L 125.032864 157.896113 
L 125.293739 157.496331 
L 125.825478 155.897202 
L 126.208236 155.097637 
L 126.409392 154.298072 
L 126.813781 153.498508 
L 127.290075 153.098725 
L 127.885873 151.099814 
L 128.498168 149.100902 
L 128.709432 148.301337 
L 128.975398 147.501773 
L 129.211196 147.10199 
L 129.286136 146.702208 
L 129.557611 146.302426 
L 129.897647 145.103079 
L 130.331085 143.503949 
L 131.092325 143.104167 
L 131.45975 142.304602 
L 131.692515 141.505038 
L 132.078599 140.705473 
L 132.57323 139.506126 
L 132.856791 138.706561 
L 134.343466 134.308956 
L 134.563365 133.509391 
L 135.26089 133.109609 
L 135.52059 132.709827 
L 135.931576 130.710915 
L 138.075586 123.514833 
L 138.598945 123.115051 
L 138.872434 122.315486 
L 140.68221 117.118316 
L 141.153974 116.318751 
L 141.876166 114.319839 
L 142.10859 113.920057 
L 142.203113 113.520275 
L 142.75011 113.120492 
L 142.797027 112.72071 
L 143.117793 112.320928 
L 143.322076 111.521363 
L 143.584663 110.322016 
L 143.900166 109.922234 
L 144.589263 107.923322 
L 144.918235 107.52354 
L 145.686954 104.725064 
L 146.01252 104.325281 
L 146.205563 103.525717 
L 146.813818 103.125934 
L 147.462352 101.127023 
L 148.509301 97.928764 
L 149.010338 96.329635 
L 149.555268 94.730505 
L 149.644533 94.330723 
L 149.902118 93.930941 
L 149.914625 93.531158 
L 150.704151 93.131376 
L 150.890018 92.331811 
L 151.565308 90.732682 
L 151.898333 89.933117 
L 152.302655 89.133553 
L 152.518891 88.333988 
L 158.167233 87.934206 
L 158.182032 87.534423 
L 159.467148 83.5366 
L 160.126828 83.136818 
L 160.593818 81.537688 
L 160.872021 80.738124 
L 161.593058 77.939648 
L 161.903183 77.140083 
L 162.913327 73.542042 
L 163.757571 73.14226 
L 164.162708 71.54313 
L 164.239903 71.143348 
L 164.981976 69.944001 
L 165.226288 69.144436 
L 165.498078 68.744654 
L 166.22425 66.34596 
L 166.452237 65.546395 
L 166.559314 65.146613 
L 167.146879 63.947266 
L 167.248053 63.547484 
L 168.149097 63.147701 
L 168.356936 62.348137 
L 169.340245 60.749007 
L 170.457634 57.550749 
L 171.164579 55.152055 
L 171.792471 53.552926 
L 172.543687 53.153143 
L 173.469411 50.754449 
L 174.068946 49.555102 
L 174.302637 49.15532 
L 174.906328 46.756626 
L 175.302546 45.957061 
L 175.747838 43.95815 
L 175.855987 43.558367 
L 176.862068 43.158585 
L 177.331729 41.959238 
L 177.592404 41.559456 
L 177.712772 40.759891 
L 177.846681 40.360109 
L 178.237063 39.560544 
L 178.648796 38.361197 
L 178.813036 37.561632 
L 179.061377 36.762068 
L 179.32453 36.362285 
L 179.512775 35.562721 
L 179.829722 34.763156 
L 180.014499 33.563809 
L 180.014499 33.563809 
" style="fill:none;stroke:#ff7f0e;stroke-linecap:square;stroke-width:3;"/>
   </g>
   <g id="patch_3">
    <path d="M 60.02524 243.02976 
L 60.02524 23.58924 
" style="fill:none;stroke:#000000;stroke-linecap:square;stroke-linejoin:miter;stroke-width:0.8;"/>
   </g>
   <g id="patch_4">
    <path d="M 420.065548 243.02976 
L 420.065548 23.58924 
" style="fill:none;stroke:#000000;stroke-linecap:square;stroke-linejoin:miter;stroke-width:0.8;"/>
   </g>
   <g id="patch_5">
    <path d="M 60.02524 243.02976 
L 420.065548 243.02976 
" style="fill:none;stroke:#000000;stroke-linecap:square;stroke-linejoin:miter;stroke-width:0.8;"/>
   </g>
   <g id="patch_6">
    <path d="M 60.02524 23.58924 
L 420.065548 23.58924 
" style="fill:none;stroke:#000000;stroke-linecap:square;stroke-linejoin:miter;stroke-width:0.8;"/>
   </g>
   <g id="text_16">
    <!-- PostgreSQL vs Bao Optimizer -->
    <g transform="translate(100.062394 17.58924)scale(0.192 -0.192)">
     <defs>
      <path d="M 1259 4147 
L 1259 2394 
L 2053 2394 
Q 2494 2394 2734 2622 
Q 2975 2850 2975 3272 
Q 2975 3691 2734 3919 
Q 2494 4147 2053 4147 
L 1259 4147 
z
M 628 4666 
L 2053 4666 
Q 2838 4666 3239 4311 
Q 3641 3956 3641 3272 
Q 3641 2581 3239 2228 
Q 2838 1875 2053 1875 
L 1259 1875 
L 1259 0 
L 628 0 
L 628 4666 
z
" id="DejaVuSans-50" transform="scale(0.015625)"/>
      <path d="M 2906 1791 
Q 2906 2416 2648 2759 
Q 2391 3103 1925 3103 
Q 1463 3103 1205 2759 
Q 947 2416 947 1791 
Q 947 1169 1205 825 
Q 1463 481 1925 481 
Q 2391 481 2648 825 
Q 2906 1169 2906 1791 
z
M 3481 434 
Q 3481 -459 3084 -895 
Q 2688 -1331 1869 -1331 
Q 1566 -1331 1297 -1286 
Q 1028 -1241 775 -1147 
L 775 -588 
Q 1028 -725 1275 -790 
Q 1522 -856 1778 -856 
Q 2344 -856 2625 -561 
Q 2906 -266 2906 331 
L 2906 616 
Q 2728 306 2450 153 
Q 2172 0 1784 0 
Q 1141 0 747 490 
Q 353 981 353 1791 
Q 353 2603 747 3093 
Q 1141 3584 1784 3584 
Q 2172 3584 2450 3431 
Q 2728 3278 2906 2969 
L 2906 3500 
L 3481 3500 
L 3481 434 
z
" id="DejaVuSans-67" transform="scale(0.015625)"/>
      <path d="M 3425 4513 
L 3425 3897 
Q 3066 4069 2747 4153 
Q 2428 4238 2131 4238 
Q 1616 4238 1336 4038 
Q 1056 3838 1056 3469 
Q 1056 3159 1242 3001 
Q 1428 2844 1947 2747 
L 2328 2669 
Q 3034 2534 3370 2195 
Q 3706 1856 3706 1288 
Q 3706 609 3251 259 
Q 2797 -91 1919 -91 
Q 1588 -91 1214 -16 
Q 841 59 441 206 
L 441 856 
Q 825 641 1194 531 
Q 1563 422 1919 422 
Q 2459 422 2753 634 
Q 3047 847 3047 1241 
Q 3047 1584 2836 1778 
Q 2625 1972 2144 2069 
L 1759 2144 
Q 1053 2284 737 2584 
Q 422 2884 422 3419 
Q 422 4038 858 4394 
Q 1294 4750 2059 4750 
Q 2388 4750 2728 4690 
Q 3069 4631 3425 4513 
z
" id="DejaVuSans-53" transform="scale(0.015625)"/>
      <path d="M 628 4666 
L 1259 4666 
L 1259 531 
L 3531 531 
L 3531 0 
L 628 0 
L 628 4666 
z
" id="DejaVuSans-4c" transform="scale(0.015625)"/>
      <path d="M 191 3500 
L 800 3500 
L 1894 563 
L 2988 3500 
L 3597 3500 
L 2284 0 
L 1503 0 
L 191 3500 
z
" id="DejaVuSans-76" transform="scale(0.015625)"/>
      <path d="M 1259 2228 
L 1259 519 
L 2272 519 
Q 2781 519 3026 730 
Q 3272 941 3272 1375 
Q 3272 1813 3026 2020 
Q 2781 2228 2272 2228 
L 1259 2228 
z
M 1259 4147 
L 1259 2741 
L 2194 2741 
Q 2656 2741 2882 2914 
Q 3109 3088 3109 3444 
Q 3109 3797 2882 3972 
Q 2656 4147 2194 4147 
L 1259 4147 
z
M 628 4666 
L 2241 4666 
Q 2963 4666 3353 4366 
Q 3744 4066 3744 3513 
Q 3744 3084 3544 2831 
Q 3344 2578 2956 2516 
Q 3422 2416 3680 2098 
Q 3938 1781 3938 1306 
Q 3938 681 3513 340 
Q 3088 0 2303 0 
L 628 0 
L 628 4666 
z
" id="DejaVuSans-42" transform="scale(0.015625)"/>
      <path d="M 2194 1759 
Q 1497 1759 1228 1600 
Q 959 1441 959 1056 
Q 959 750 1161 570 
Q 1363 391 1709 391 
Q 2188 391 2477 730 
Q 2766 1069 2766 1631 
L 2766 1759 
L 2194 1759 
z
M 3341 1997 
L 3341 0 
L 2766 0 
L 2766 531 
Q 2569 213 2275 61 
Q 1981 -91 1556 -91 
Q 1019 -91 701 211 
Q 384 513 384 1019 
Q 384 1609 779 1909 
Q 1175 2209 1959 2209 
L 2766 2209 
L 2766 2266 
Q 2766 2663 2505 2880 
Q 2244 3097 1772 3097 
Q 1472 3097 1187 3025 
Q 903 2953 641 2809 
L 641 3341 
Q 956 3463 1253 3523 
Q 1550 3584 1831 3584 
Q 2591 3584 2966 3190 
Q 3341 2797 3341 1997 
z
" id="DejaVuSans-61" transform="scale(0.015625)"/>
      <path d="M 2522 4238 
Q 1834 4238 1429 3725 
Q 1025 3213 1025 2328 
Q 1025 1447 1429 934 
Q 1834 422 2522 422 
Q 3209 422 3611 934 
Q 4013 1447 4013 2328 
Q 4013 3213 3611 3725 
Q 3209 4238 2522 4238 
z
M 2522 4750 
Q 3503 4750 4090 4092 
Q 4678 3434 4678 2328 
Q 4678 1225 4090 567 
Q 3503 -91 2522 -91 
Q 1538 -91 948 565 
Q 359 1222 359 2328 
Q 359 3434 948 4092 
Q 1538 4750 2522 4750 
z
" id="DejaVuSans-4f" transform="scale(0.015625)"/>
      <path d="M 353 3500 
L 3084 3500 
L 3084 2975 
L 922 459 
L 3084 459 
L 3084 0 
L 275 0 
L 275 525 
L 2438 3041 
L 353 3041 
L 353 3500 
z
" id="DejaVuSans-7a" transform="scale(0.015625)"/>
     </defs>
     <use xlink:href="#DejaVuSans-50"/>
     <use x="56.677734" xlink:href="#DejaVuSans-6f"/>
     <use x="117.859375" xlink:href="#DejaVuSans-73"/>
     <use x="169.958984" xlink:href="#DejaVuSans-74"/>
     <use x="209.167969" xlink:href="#DejaVuSans-67"/>
     <use x="272.644531" xlink:href="#DejaVuSans-72"/>
     <use x="311.507812" xlink:href="#DejaVuSans-65"/>
     <use x="373.03125" xlink:href="#DejaVuSans-53"/>
     <use x="436.507812" xlink:href="#DejaVuSans-51"/>
     <use x="515.21875" xlink:href="#DejaVuSans-4c"/>
     <use x="570.931641" xlink:href="#DejaVuSans-20"/>
     <use x="602.71875" xlink:href="#DejaVuSans-76"/>
     <use x="661.898438" xlink:href="#DejaVuSans-73"/>
     <use x="713.998047" xlink:href="#DejaVuSans-20"/>
     <use x="745.785156" xlink:href="#DejaVuSans-42"/>
     <use x="814.388672" xlink:href="#DejaVuSans-61"/>
     <use x="875.667969" xlink:href="#DejaVuSans-6f"/>
     <use x="936.849609" xlink:href="#DejaVuSans-20"/>
     <use x="968.636719" xlink:href="#DejaVuSans-4f"/>
     <use x="1047.347656" xlink:href="#DejaVuSans-70"/>
     <use x="1110.824219" xlink:href="#DejaVuSans-74"/>
     <use x="1150.033203" xlink:href="#DejaVuSans-69"/>
     <use x="1177.816406" xlink:href="#DejaVuSans-6d"/>
     <use x="1275.228516" xlink:href="#DejaVuSans-69"/>
     <use x="1303.011719" xlink:href="#DejaVuSans-7a"/>
     <use x="1355.501953" xlink:href="#DejaVuSans-65"/>
     <use x="1417.025391" xlink:href="#DejaVuSans-72"/>
    </g>
   </g>
   <g id="legend_1">
    <g id="patch_7">
     <path d="M 266.313048 235.02976 
L 408.865548 235.02976 
Q 412.065548 235.02976 412.065548 231.82976 
L 412.065548 162.97476 
Q 412.065548 159.77476 408.865548 159.77476 
L 266.313048 159.77476 
Q 263.113048 159.77476 263.113048 162.97476 
L 263.113048 231.82976 
Q 263.113048 235.02976 266.313048 235.02976 
z
" style="fill:#ffffff;opacity:0.8;stroke:#cccccc;stroke-linejoin:miter;"/>
    </g>
    <g id="line2d_29">
     <path d="M 269.513048 172.73226 
L 301.513048 172.73226 
" style="fill:none;stroke:#1f77b4;stroke-linecap:square;stroke-width:3;"/>
    </g>
    <g id="line2d_30"/>
    <g id="text_17">
     <!-- PostgreSQL -->
     <g transform="translate(314.313048 178.33226)scale(0.16 -0.16)">
      <use xlink:href="#DejaVuSans-50"/>
      <use x="56.677734" xlink:href="#DejaVuSans-6f"/>
      <use x="117.859375" xlink:href="#DejaVuSans-73"/>
      <use x="169.958984" xlink:href="#DejaVuSans-74"/>
      <use x="209.167969" xlink:href="#DejaVuSans-67"/>
      <use x="272.644531" xlink:href="#DejaVuSans-72"/>
      <use x="311.507812" xlink:href="#DejaVuSans-65"/>
      <use x="373.03125" xlink:href="#DejaVuSans-53"/>
      <use x="436.507812" xlink:href="#DejaVuSans-51"/>
      <use x="515.21875" xlink:href="#DejaVuSans-4c"/>
     </g>
    </g>
    <g id="line2d_31">
     <path d="M 269.513048 196.21726 
L 301.513048 196.21726 
" style="fill:none;stroke:#ff7f0e;stroke-linecap:square;stroke-width:3;"/>
    </g>
    <g id="line2d_32"/>
    <g id="text_18">
     <!-- Bao -->
     <g transform="translate(314.313048 201.81726)scale(0.16 -0.16)">
      <use xlink:href="#DejaVuSans-42"/>
      <use x="68.603516" xlink:href="#DejaVuSans-61"/>
      <use x="129.882812" xlink:href="#DejaVuSans-6f"/>
     </g>
    </g>
    <g id="PathCollection_2">
     <g>
      <use style="fill:#ff0000;stroke:#ff0000;" x="285.513048" xlink:href="#mde0b053285" y="221.10226"/>
     </g>
    </g>
    <g id="text_19">
     <!-- Training -->
     <g transform="translate(314.313048 225.30226)scale(0.16 -0.16)">
      <defs>
       <path d="M 3513 2113 
L 3513 0 
L 2938 0 
L 2938 2094 
Q 2938 2591 2744 2837 
Q 2550 3084 2163 3084 
Q 1697 3084 1428 2787 
Q 1159 2491 1159 1978 
L 1159 0 
L 581 0 
L 581 3500 
L 1159 3500 
L 1159 2956 
Q 1366 3272 1645 3428 
Q 1925 3584 2291 3584 
Q 2894 3584 3203 3211 
Q 3513 2838 3513 2113 
z
" id="DejaVuSans-6e" transform="scale(0.015625)"/>
      </defs>
      <use xlink:href="#DejaVuSans-54"/>
      <use x="46.333984" xlink:href="#DejaVuSans-72"/>
      <use x="87.447266" xlink:href="#DejaVuSans-61"/>
      <use x="148.726562" xlink:href="#DejaVuSans-69"/>
      <use x="176.509766" xlink:href="#DejaVuSans-6e"/>
      <use x="239.888672" xlink:href="#DejaVuSans-69"/>
      <use x="267.671875" xlink:href="#DejaVuSans-6e"/>
      <use x="331.050781" xlink:href="#DejaVuSans-67"/>
     </g>
    </g>
   </g>
  </g>
 </g>
 <defs>
  <clipPath id="p151f052967">
   <rect height="219.44052" width="360.040308" x="60.02524" y="23.58924"/>
  </clipPath>
 </defs>
</svg>
