<?xml version="1.0" encoding="utf-8" standalone="no"?>
<!DOCTYPE svg PUBLIC "-//W3C//DTD SVG 1.1//EN"
  "http://www.w3.org/Graphics/SVG/1.1/DTD/svg11.dtd">
<!-- Created with matplotlib (https://matplotlib.org/) -->
<svg height="288pt" version="1.1" viewBox="0 0 720 288" width="720pt" xmlns="http://www.w3.org/2000/svg" xmlns:xlink="http://www.w3.org/1999/xlink">
 <defs>
  <style type="text/css">
*{stroke-linecap:butt;stroke-linejoin:round;}
  </style>
 </defs>
 <g id="figure_1">
  <g id="patch_1">
   <path d="M 0 288 
L 720 288 
L 720 0 
L 0 0 
z
" style="fill:#ffffff;"/>
  </g>
  <g id="axes_1">
   <g id="patch_2">
    <path d="M 60.02524 243.02976 
L 343.661962 243.02976 
L 343.661962 23.58924 
L 60.02524 23.58924 
z
" style="fill:#ffffff;"/>
   </g>
   <g id="matplotlib.axis_1">
    <g id="xtick_1">
     <g id="line2d_1">
      <path clip-path="url(#p97f6c91c58)" d="M 72.917818 243.02976 
L 72.917818 23.58924 
" style="fill:none;stroke:#b0b0b0;stroke-dasharray:3.7,1.6;stroke-dashoffset:0;"/>
     </g>
     <g id="line2d_2">
      <defs>
       <path d="M 0 0 
L 0 3.5 
" id="me6c7711c0b" style="stroke:#000000;stroke-width:0.8;"/>
      </defs>
      <g>
       <use style="stroke:#000000;stroke-width:0.8;" x="72.917818" xlink:href="#me6c7711c0b" y="243.02976"/>
      </g>
     </g>
     <g id="text_1">
      <!-- 0.00 -->
      <defs>
       <path d="M 31.78125 66.40625 
Q 24.171875 66.40625 20.328125 58.90625 
Q 16.5 51.421875 16.5 36.375 
Q 16.5 21.390625 20.328125 13.890625 
Q 24.171875 6.390625 31.78125 6.390625 
Q 39.453125 6.390625 43.28125 13.890625 
Q 47.125 21.390625 47.125 36.375 
Q 47.125 51.421875 43.28125 58.90625 
Q 39.453125 66.40625 31.78125 66.40625 
z
M 31.78125 74.21875 
Q 44.046875 74.21875 50.515625 64.515625 
Q 56.984375 54.828125 56.984375 36.375 
Q 56.984375 17.96875 50.515625 8.265625 
Q 44.046875 -1.421875 31.78125 -1.421875 
Q 19.53125 -1.421875 13.0625 8.265625 
Q 6.59375 17.96875 6.59375 36.375 
Q 6.59375 54.828125 13.0625 64.515625 
Q 19.53125 74.21875 31.78125 74.21875 
z
" id="DejaVuSans-48"/>
       <path d="M 10.6875 12.40625 
L 21 12.40625 
L 21 0 
L 10.6875 0 
z
" id="DejaVuSans-46"/>
      </defs>
      <g transform="translate(55.105318 262.18726)scale(0.16 -0.16)">
       <use xlink:href="#DejaVuSans-48"/>
       <use x="63.623047" xlink:href="#DejaVuSans-46"/>
       <use x="95.410156" xlink:href="#DejaVuSans-48"/>
       <use x="159.033203" xlink:href="#DejaVuSans-48"/>
      </g>
     </g>
    </g>
    <g id="xtick_2">
     <g id="line2d_3">
      <path clip-path="url(#p97f6c91c58)" d="M 137.38071 243.02976 
L 137.38071 23.58924 
" style="fill:none;stroke:#b0b0b0;stroke-dasharray:3.7,1.6;stroke-dashoffset:0;"/>
     </g>
     <g id="line2d_4">
      <g>
       <use style="stroke:#000000;stroke-width:0.8;" x="137.38071" xlink:href="#me6c7711c0b" y="243.02976"/>
      </g>
     </g>
     <g id="text_2">
      <!-- 0.25 -->
      <defs>
       <path d="M 19.1875 8.296875 
L 53.609375 8.296875 
L 53.609375 0 
L 7.328125 0 
L 7.328125 8.296875 
Q 12.9375 14.109375 22.625 23.890625 
Q 32.328125 33.6875 34.8125 36.53125 
Q 39.546875 41.84375 41.421875 45.53125 
Q 43.3125 49.21875 43.3125 52.78125 
Q 43.3125 58.59375 39.234375 62.25 
Q 35.15625 65.921875 28.609375 65.921875 
Q 23.96875 65.921875 18.8125 64.3125 
Q 13.671875 62.703125 7.8125 59.421875 
L 7.8125 69.390625 
Q 13.765625 71.78125 18.9375 73 
Q 24.125 74.21875 28.421875 74.21875 
Q 39.75 74.21875 46.484375 68.546875 
Q 53.21875 62.890625 53.21875 53.421875 
Q 53.21875 48.921875 51.53125 44.890625 
Q 49.859375 40.875 45.40625 35.40625 
Q 44.1875 33.984375 37.640625 27.21875 
Q 31.109375 20.453125 19.1875 8.296875 
z
" id="DejaVuSans-50"/>
       <path d="M 10.796875 72.90625 
L 49.515625 72.90625 
L 49.515625 64.59375 
L 19.828125 64.59375 
L 19.828125 46.734375 
Q 21.96875 47.46875 24.109375 47.828125 
Q 26.265625 48.1875 28.421875 48.1875 
Q 40.625 48.1875 47.75 41.5 
Q 54.890625 34.8125 54.890625 23.390625 
Q 54.890625 11.625 47.5625 5.09375 
Q 40.234375 -1.421875 26.90625 -1.421875 
Q 22.3125 -1.421875 17.546875 -0.640625 
Q 12.796875 0.140625 7.71875 1.703125 
L 7.71875 11.625 
Q 12.109375 9.234375 16.796875 8.0625 
Q 21.484375 6.890625 26.703125 6.890625 
Q 35.15625 6.890625 40.078125 11.328125 
Q 45.015625 15.765625 45.015625 23.390625 
Q 45.015625 31 40.078125 35.4375 
Q 35.15625 39.890625 26.703125 39.890625 
Q 22.75 39.890625 18.8125 39.015625 
Q 14.890625 38.140625 10.796875 36.28125 
z
" id="DejaVuSans-53"/>
      </defs>
      <g transform="translate(119.56821 262.18726)scale(0.16 -0.16)">
       <use xlink:href="#DejaVuSans-48"/>
       <use x="63.623047" xlink:href="#DejaVuSans-46"/>
       <use x="95.410156" xlink:href="#DejaVuSans-50"/>
       <use x="159.033203" xlink:href="#DejaVuSans-53"/>
      </g>
     </g>
    </g>
    <g id="xtick_3">
     <g id="line2d_5">
      <path clip-path="url(#p97f6c91c58)" d="M 201.843601 243.02976 
L 201.843601 23.58924 
" style="fill:none;stroke:#b0b0b0;stroke-dasharray:3.7,1.6;stroke-dashoffset:0;"/>
     </g>
     <g id="line2d_6">
      <g>
       <use style="stroke:#000000;stroke-width:0.8;" x="201.843601" xlink:href="#me6c7711c0b" y="243.02976"/>
      </g>
     </g>
     <g id="text_3">
      <!-- 0.50 -->
      <g transform="translate(184.031101 262.18726)scale(0.16 -0.16)">
       <use xlink:href="#DejaVuSans-48"/>
       <use x="63.623047" xlink:href="#DejaVuSans-46"/>
       <use x="95.410156" xlink:href="#DejaVuSans-53"/>
       <use x="159.033203" xlink:href="#DejaVuSans-48"/>
      </g>
     </g>
    </g>
    <g id="xtick_4">
     <g id="line2d_7">
      <path clip-path="url(#p97f6c91c58)" d="M 266.306492 243.02976 
L 266.306492 23.58924 
" style="fill:none;stroke:#b0b0b0;stroke-dasharray:3.7,1.6;stroke-dashoffset:0;"/>
     </g>
     <g id="line2d_8">
      <g>
       <use style="stroke:#000000;stroke-width:0.8;" x="266.306492" xlink:href="#me6c7711c0b" y="243.02976"/>
      </g>
     </g>
     <g id="text_4">
      <!-- 0.75 -->
      <defs>
       <path d="M 8.203125 72.90625 
L 55.078125 72.90625 
L 55.078125 68.703125 
L 28.609375 0 
L 18.3125 0 
L 43.21875 64.59375 
L 8.203125 64.59375 
z
" id="DejaVuSans-55"/>
      </defs>
      <g transform="translate(248.493992 262.18726)scale(0.16 -0.16)">
       <use xlink:href="#DejaVuSans-48"/>
       <use x="63.623047" xlink:href="#DejaVuSans-46"/>
       <use x="95.410156" xlink:href="#DejaVuSans-55"/>
       <use x="159.033203" xlink:href="#DejaVuSans-53"/>
      </g>
     </g>
    </g>
    <g id="xtick_5">
     <g id="line2d_9">
      <path clip-path="url(#p97f6c91c58)" d="M 330.769384 243.02976 
L 330.769384 23.58924 
" style="fill:none;stroke:#b0b0b0;stroke-dasharray:3.7,1.6;stroke-dashoffset:0;"/>
     </g>
     <g id="line2d_10">
      <g>
       <use style="stroke:#000000;stroke-width:0.8;" x="330.769384" xlink:href="#me6c7711c0b" y="243.02976"/>
      </g>
     </g>
     <g id="text_5">
      <!-- 1.00 -->
      <defs>
       <path d="M 12.40625 8.296875 
L 28.515625 8.296875 
L 28.515625 63.921875 
L 10.984375 60.40625 
L 10.984375 69.390625 
L 28.421875 72.90625 
L 38.28125 72.90625 
L 38.28125 8.296875 
L 54.390625 8.296875 
L 54.390625 0 
L 12.40625 0 
z
" id="DejaVuSans-49"/>
      </defs>
      <g transform="translate(312.956884 262.18726)scale(0.16 -0.16)">
       <use xlink:href="#DejaVuSans-49"/>
       <use x="63.623047" xlink:href="#DejaVuSans-46"/>
       <use x="95.410156" xlink:href="#DejaVuSans-48"/>
       <use x="159.033203" xlink:href="#DejaVuSans-48"/>
      </g>
     </g>
    </g>
    <g id="text_6">
     <!-- Proportion of Queries -->
     <defs>
      <path d="M 19.671875 64.796875 
L 19.671875 37.40625 
L 32.078125 37.40625 
Q 38.96875 37.40625 42.71875 40.96875 
Q 46.484375 44.53125 46.484375 51.125 
Q 46.484375 57.671875 42.71875 61.234375 
Q 38.96875 64.796875 32.078125 64.796875 
z
M 9.8125 72.90625 
L 32.078125 72.90625 
Q 44.34375 72.90625 50.609375 67.359375 
Q 56.890625 61.8125 56.890625 51.125 
Q 56.890625 40.328125 50.609375 34.8125 
Q 44.34375 29.296875 32.078125 29.296875 
L 19.671875 29.296875 
L 19.671875 0 
L 9.8125 0 
z
" id="DejaVuSans-80"/>
      <path d="M 41.109375 46.296875 
Q 39.59375 47.171875 37.8125 47.578125 
Q 36.03125 48 33.890625 48 
Q 26.265625 48 22.1875 43.046875 
Q 18.109375 38.09375 18.109375 28.8125 
L 18.109375 0 
L 9.078125 0 
L 9.078125 54.6875 
L 18.109375 54.6875 
L 18.109375 46.1875 
Q 20.953125 51.171875 25.484375 53.578125 
Q 30.03125 56 36.53125 56 
Q 37.453125 56 38.578125 55.875 
Q 39.703125 55.765625 41.0625 55.515625 
z
" id="DejaVuSans-114"/>
      <path d="M 30.609375 48.390625 
Q 23.390625 48.390625 19.1875 42.75 
Q 14.984375 37.109375 14.984375 27.296875 
Q 14.984375 17.484375 19.15625 11.84375 
Q 23.34375 6.203125 30.609375 6.203125 
Q 37.796875 6.203125 41.984375 11.859375 
Q 46.1875 17.53125 46.1875 27.296875 
Q 46.1875 37.015625 41.984375 42.703125 
Q 37.796875 48.390625 30.609375 48.390625 
z
M 30.609375 56 
Q 42.328125 56 49.015625 48.375 
Q 55.71875 40.765625 55.71875 27.296875 
Q 55.71875 13.875 49.015625 6.21875 
Q 42.328125 -1.421875 30.609375 -1.421875 
Q 18.84375 -1.421875 12.171875 6.21875 
Q 5.515625 13.875 5.515625 27.296875 
Q 5.515625 40.765625 12.171875 48.375 
Q 18.84375 56 30.609375 56 
z
" id="DejaVuSans-111"/>
      <path d="M 18.109375 8.203125 
L 18.109375 -20.796875 
L 9.078125 -20.796875 
L 9.078125 54.6875 
L 18.109375 54.6875 
L 18.109375 46.390625 
Q 20.953125 51.265625 25.265625 53.625 
Q 29.59375 56 35.59375 56 
Q 45.5625 56 51.78125 48.09375 
Q 58.015625 40.1875 58.015625 27.296875 
Q 58.015625 14.40625 51.78125 6.484375 
Q 45.5625 -1.421875 35.59375 -1.421875 
Q 29.59375 -1.421875 25.265625 0.953125 
Q 20.953125 3.328125 18.109375 8.203125 
z
M 48.6875 27.296875 
Q 48.6875 37.203125 44.609375 42.84375 
Q 40.53125 48.484375 33.40625 48.484375 
Q 26.265625 48.484375 22.1875 42.84375 
Q 18.109375 37.203125 18.109375 27.296875 
Q 18.109375 17.390625 22.1875 11.75 
Q 26.265625 6.109375 33.40625 6.109375 
Q 40.53125 6.109375 44.609375 11.75 
Q 48.6875 17.390625 48.6875 27.296875 
z
" id="DejaVuSans-112"/>
      <path d="M 18.3125 70.21875 
L 18.3125 54.6875 
L 36.8125 54.6875 
L 36.8125 47.703125 
L 18.3125 47.703125 
L 18.3125 18.015625 
Q 18.3125 11.328125 20.140625 9.421875 
Q 21.96875 7.515625 27.59375 7.515625 
L 36.8125 7.515625 
L 36.8125 0 
L 27.59375 0 
Q 17.1875 0 13.234375 3.875 
Q 9.28125 7.765625 9.28125 18.015625 
L 9.28125 47.703125 
L 2.6875 47.703125 
L 2.6875 54.6875 
L 9.28125 54.6875 
L 9.28125 70.21875 
z
" id="DejaVuSans-116"/>
      <path d="M 9.421875 54.6875 
L 18.40625 54.6875 
L 18.40625 0 
L 9.421875 0 
z
M 9.421875 75.984375 
L 18.40625 75.984375 
L 18.40625 64.59375 
L 9.421875 64.59375 
z
" id="DejaVuSans-105"/>
      <path d="M 54.890625 33.015625 
L 54.890625 0 
L 45.90625 0 
L 45.90625 32.71875 
Q 45.90625 40.484375 42.875 44.328125 
Q 39.84375 48.1875 33.796875 48.1875 
Q 26.515625 48.1875 22.3125 43.546875 
Q 18.109375 38.921875 18.109375 30.90625 
L 18.109375 0 
L 9.078125 0 
L 9.078125 54.6875 
L 18.109375 54.6875 
L 18.109375 46.1875 
Q 21.34375 51.125 25.703125 53.5625 
Q 30.078125 56 35.796875 56 
Q 45.21875 56 50.046875 50.171875 
Q 54.890625 44.34375 54.890625 33.015625 
z
" id="DejaVuSans-110"/>
      <path id="DejaVuSans-32"/>
      <path d="M 37.109375 75.984375 
L 37.109375 68.5 
L 28.515625 68.5 
Q 23.6875 68.5 21.796875 66.546875 
Q 19.921875 64.59375 19.921875 59.515625 
L 19.921875 54.6875 
L 34.71875 54.6875 
L 34.71875 47.703125 
L 19.921875 47.703125 
L 19.921875 0 
L 10.890625 0 
L 10.890625 47.703125 
L 2.296875 47.703125 
L 2.296875 54.6875 
L 10.890625 54.6875 
L 10.890625 58.5 
Q 10.890625 67.625 15.140625 71.796875 
Q 19.390625 75.984375 28.609375 75.984375 
z
" id="DejaVuSans-102"/>
      <path d="M 39.40625 66.21875 
Q 28.65625 66.21875 22.328125 58.203125 
Q 16.015625 50.203125 16.015625 36.375 
Q 16.015625 22.609375 22.328125 14.59375 
Q 28.65625 6.59375 39.40625 6.59375 
Q 50.140625 6.59375 56.421875 14.59375 
Q 62.703125 22.609375 62.703125 36.375 
Q 62.703125 50.203125 56.421875 58.203125 
Q 50.140625 66.21875 39.40625 66.21875 
z
M 53.21875 1.3125 
L 66.21875 -12.890625 
L 54.296875 -12.890625 
L 43.5 -1.21875 
Q 41.890625 -1.3125 41.03125 -1.359375 
Q 40.1875 -1.421875 39.40625 -1.421875 
Q 24.03125 -1.421875 14.8125 8.859375 
Q 5.609375 19.140625 5.609375 36.375 
Q 5.609375 53.65625 14.8125 63.9375 
Q 24.03125 74.21875 39.40625 74.21875 
Q 54.734375 74.21875 63.90625 63.9375 
Q 73.09375 53.65625 73.09375 36.375 
Q 73.09375 23.6875 67.984375 14.640625 
Q 62.890625 5.609375 53.21875 1.3125 
z
" id="DejaVuSans-81"/>
      <path d="M 8.5 21.578125 
L 8.5 54.6875 
L 17.484375 54.6875 
L 17.484375 21.921875 
Q 17.484375 14.15625 20.5 10.265625 
Q 23.53125 6.390625 29.59375 6.390625 
Q 36.859375 6.390625 41.078125 11.03125 
Q 45.3125 15.671875 45.3125 23.6875 
L 45.3125 54.6875 
L 54.296875 54.6875 
L 54.296875 0 
L 45.3125 0 
L 45.3125 8.40625 
Q 42.046875 3.421875 37.71875 1 
Q 33.40625 -1.421875 27.6875 -1.421875 
Q 18.265625 -1.421875 13.375 4.4375 
Q 8.5 10.296875 8.5 21.578125 
z
M 31.109375 56 
z
" id="DejaVuSans-117"/>
      <path d="M 56.203125 29.59375 
L 56.203125 25.203125 
L 14.890625 25.203125 
Q 15.484375 15.921875 20.484375 11.0625 
Q 25.484375 6.203125 34.421875 6.203125 
Q 39.59375 6.203125 44.453125 7.46875 
Q 49.3125 8.734375 54.109375 11.28125 
L 54.109375 2.78125 
Q 49.265625 0.734375 44.1875 -0.34375 
Q 39.109375 -1.421875 33.890625 -1.421875 
Q 20.796875 -1.421875 13.15625 6.1875 
Q 5.515625 13.8125 5.515625 26.8125 
Q 5.515625 40.234375 12.765625 48.109375 
Q 20.015625 56 32.328125 56 
Q 43.359375 56 49.78125 48.890625 
Q 56.203125 41.796875 56.203125 29.59375 
z
M 47.21875 32.234375 
Q 47.125 39.59375 43.09375 43.984375 
Q 39.0625 48.390625 32.421875 48.390625 
Q 24.90625 48.390625 20.390625 44.140625 
Q 15.875 39.890625 15.1875 32.171875 
z
" id="DejaVuSans-101"/>
      <path d="M 44.28125 53.078125 
L 44.28125 44.578125 
Q 40.484375 46.53125 36.375 47.5 
Q 32.28125 48.484375 27.875 48.484375 
Q 21.1875 48.484375 17.84375 46.4375 
Q 14.5 44.390625 14.5 40.28125 
Q 14.5 37.15625 16.890625 35.375 
Q 19.28125 33.59375 26.515625 31.984375 
L 29.59375 31.296875 
Q 39.15625 29.25 43.1875 25.515625 
Q 47.21875 21.78125 47.21875 15.09375 
Q 47.21875 7.46875 41.1875 3.015625 
Q 35.15625 -1.421875 24.609375 -1.421875 
Q 20.21875 -1.421875 15.453125 -0.5625 
Q 10.6875 0.296875 5.421875 2 
L 5.421875 11.28125 
Q 10.40625 8.6875 15.234375 7.390625 
Q 20.0625 6.109375 24.8125 6.109375 
Q 31.15625 6.109375 34.5625 8.28125 
Q 37.984375 10.453125 37.984375 14.40625 
Q 37.984375 18.0625 35.515625 20.015625 
Q 33.0625 21.96875 24.703125 23.78125 
L 21.578125 24.515625 
Q 13.234375 26.265625 9.515625 29.90625 
Q 5.8125 33.546875 5.8125 39.890625 
Q 5.8125 47.609375 11.28125 51.796875 
Q 16.75 56 26.8125 56 
Q 31.78125 56 36.171875 55.265625 
Q 40.578125 54.546875 44.28125 53.078125 
z
" id="DejaVuSans-115"/>
     </defs>
     <g transform="translate(116.882351 281.67226)scale(0.16 -0.16)">
      <use xlink:href="#DejaVuSans-80"/>
      <use x="58.552734" xlink:href="#DejaVuSans-114"/>
      <use x="97.416016" xlink:href="#DejaVuSans-111"/>
      <use x="158.597656" xlink:href="#DejaVuSans-112"/>
      <use x="222.074219" xlink:href="#DejaVuSans-111"/>
      <use x="283.255859" xlink:href="#DejaVuSans-114"/>
      <use x="324.369141" xlink:href="#DejaVuSans-116"/>
      <use x="363.578125" xlink:href="#DejaVuSans-105"/>
      <use x="391.361328" xlink:href="#DejaVuSans-111"/>
      <use x="452.542969" xlink:href="#DejaVuSans-110"/>
      <use x="515.921875" xlink:href="#DejaVuSans-32"/>
      <use x="547.708984" xlink:href="#DejaVuSans-111"/>
      <use x="608.890625" xlink:href="#DejaVuSans-102"/>
      <use x="644.095703" xlink:href="#DejaVuSans-32"/>
      <use x="675.882812" xlink:href="#DejaVuSans-81"/>
      <use x="754.59375" xlink:href="#DejaVuSans-117"/>
      <use x="817.972656" xlink:href="#DejaVuSans-101"/>
      <use x="879.496094" xlink:href="#DejaVuSans-114"/>
      <use x="920.609375" xlink:href="#DejaVuSans-105"/>
      <use x="948.392578" xlink:href="#DejaVuSans-101"/>
      <use x="1009.916016" xlink:href="#DejaVuSans-115"/>
     </g>
    </g>
   </g>
   <g id="matplotlib.axis_2">
    <g id="ytick_1">
     <g id="line2d_11">
      <path clip-path="url(#p97f6c91c58)" d="M 60.02524 233.072165 
L 343.661962 233.072165 
" style="fill:none;stroke:#b0b0b0;stroke-dasharray:3.7,1.6;stroke-dashoffset:0;"/>
     </g>
     <g id="line2d_12">
      <defs>
       <path d="M 0 0 
L -3.5 0 
" id="m9c1cca26fb" style="stroke:#000000;stroke-width:0.8;"/>
      </defs>
      <g>
       <use style="stroke:#000000;stroke-width:0.8;" x="60.02524" xlink:href="#m9c1cca26fb" y="233.072165"/>
      </g>
     </g>
     <g id="text_7">
      <!-- 0 -->
      <g transform="translate(42.84524 239.150915)scale(0.16 -0.16)">
       <use xlink:href="#DejaVuSans-48"/>
      </g>
     </g>
    </g>
    <g id="ytick_2">
     <g id="line2d_13">
      <path clip-path="url(#p97f6c91c58)" d="M 60.02524 164.287755 
L 343.661962 164.287755 
" style="fill:none;stroke:#b0b0b0;stroke-dasharray:3.7,1.6;stroke-dashoffset:0;"/>
     </g>
     <g id="line2d_14">
      <g>
       <use style="stroke:#000000;stroke-width:0.8;" x="60.02524" xlink:href="#m9c1cca26fb" y="164.287755"/>
      </g>
     </g>
     <g id="text_8">
      <!-- 100 -->
      <g transform="translate(22.48524 170.366505)scale(0.16 -0.16)">
       <use xlink:href="#DejaVuSans-49"/>
       <use x="63.623047" xlink:href="#DejaVuSans-48"/>
       <use x="127.246094" xlink:href="#DejaVuSans-48"/>
      </g>
     </g>
    </g>
    <g id="ytick_3">
     <g id="line2d_15">
      <path clip-path="url(#p97f6c91c58)" d="M 60.02524 95.503345 
L 343.661962 95.503345 
" style="fill:none;stroke:#b0b0b0;stroke-dasharray:3.7,1.6;stroke-dashoffset:0;"/>
     </g>
     <g id="line2d_16">
      <g>
       <use style="stroke:#000000;stroke-width:0.8;" x="60.02524" xlink:href="#m9c1cca26fb" y="95.503345"/>
      </g>
     </g>
     <g id="text_9">
      <!-- 200 -->
      <g transform="translate(22.48524 101.582095)scale(0.16 -0.16)">
       <use xlink:href="#DejaVuSans-50"/>
       <use x="63.623047" xlink:href="#DejaVuSans-48"/>
       <use x="127.246094" xlink:href="#DejaVuSans-48"/>
      </g>
     </g>
    </g>
    <g id="ytick_4">
     <g id="line2d_17">
      <path clip-path="url(#p97f6c91c58)" d="M 60.02524 26.718935 
L 343.661962 26.718935 
" style="fill:none;stroke:#b0b0b0;stroke-dasharray:3.7,1.6;stroke-dashoffset:0;"/>
     </g>
     <g id="line2d_18">
      <g>
       <use style="stroke:#000000;stroke-width:0.8;" x="60.02524" xlink:href="#m9c1cca26fb" y="26.718935"/>
      </g>
     </g>
     <g id="text_10">
      <!-- 300 -->
      <defs>
       <path d="M 40.578125 39.3125 
Q 47.65625 37.796875 51.625 33 
Q 55.609375 28.21875 55.609375 21.1875 
Q 55.609375 10.40625 48.1875 4.484375 
Q 40.765625 -1.421875 27.09375 -1.421875 
Q 22.515625 -1.421875 17.65625 -0.515625 
Q 12.796875 0.390625 7.625 2.203125 
L 7.625 11.71875 
Q 11.71875 9.328125 16.59375 8.109375 
Q 21.484375 6.890625 26.8125 6.890625 
Q 36.078125 6.890625 40.9375 10.546875 
Q 45.796875 14.203125 45.796875 21.1875 
Q 45.796875 27.640625 41.28125 31.265625 
Q 36.765625 34.90625 28.71875 34.90625 
L 20.21875 34.90625 
L 20.21875 43.015625 
L 29.109375 43.015625 
Q 36.375 43.015625 40.234375 45.921875 
Q 44.09375 48.828125 44.09375 54.296875 
Q 44.09375 59.90625 40.109375 62.90625 
Q 36.140625 65.921875 28.71875 65.921875 
Q 24.65625 65.921875 20.015625 65.03125 
Q 15.375 64.15625 9.8125 62.3125 
L 9.8125 71.09375 
Q 15.4375 72.65625 20.34375 73.4375 
Q 25.25 74.21875 29.59375 74.21875 
Q 40.828125 74.21875 47.359375 69.109375 
Q 53.90625 64.015625 53.90625 55.328125 
Q 53.90625 49.265625 50.4375 45.09375 
Q 46.96875 40.921875 40.578125 39.3125 
z
" id="DejaVuSans-51"/>
      </defs>
      <g transform="translate(22.48524 32.797685)scale(0.16 -0.16)">
       <use xlink:href="#DejaVuSans-51"/>
       <use x="63.623047" xlink:href="#DejaVuSans-48"/>
       <use x="127.246094" xlink:href="#DejaVuSans-48"/>
      </g>
     </g>
    </g>
    <g id="text_11">
     <!-- Max Latency (s) -->
     <defs>
      <path d="M 9.8125 72.90625 
L 24.515625 72.90625 
L 43.109375 23.296875 
L 61.8125 72.90625 
L 76.515625 72.90625 
L 76.515625 0 
L 66.890625 0 
L 66.890625 64.015625 
L 48.09375 14.015625 
L 38.1875 14.015625 
L 19.390625 64.015625 
L 19.390625 0 
L 9.8125 0 
z
" id="DejaVuSans-77"/>
      <path d="M 34.28125 27.484375 
Q 23.390625 27.484375 19.1875 25 
Q 14.984375 22.515625 14.984375 16.5 
Q 14.984375 11.71875 18.140625 8.90625 
Q 21.296875 6.109375 26.703125 6.109375 
Q 34.1875 6.109375 38.703125 11.40625 
Q 43.21875 16.703125 43.21875 25.484375 
L 43.21875 27.484375 
z
M 52.203125 31.203125 
L 52.203125 0 
L 43.21875 0 
L 43.21875 8.296875 
Q 40.140625 3.328125 35.546875 0.953125 
Q 30.953125 -1.421875 24.3125 -1.421875 
Q 15.921875 -1.421875 10.953125 3.296875 
Q 6 8.015625 6 15.921875 
Q 6 25.140625 12.171875 29.828125 
Q 18.359375 34.515625 30.609375 34.515625 
L 43.21875 34.515625 
L 43.21875 35.40625 
Q 43.21875 41.609375 39.140625 45 
Q 35.0625 48.390625 27.6875 48.390625 
Q 23 48.390625 18.546875 47.265625 
Q 14.109375 46.140625 10.015625 43.890625 
L 10.015625 52.203125 
Q 14.9375 54.109375 19.578125 55.046875 
Q 24.21875 56 28.609375 56 
Q 40.484375 56 46.34375 49.84375 
Q 52.203125 43.703125 52.203125 31.203125 
z
" id="DejaVuSans-97"/>
      <path d="M 54.890625 54.6875 
L 35.109375 28.078125 
L 55.90625 0 
L 45.3125 0 
L 29.390625 21.484375 
L 13.484375 0 
L 2.875 0 
L 24.125 28.609375 
L 4.6875 54.6875 
L 15.28125 54.6875 
L 29.78125 35.203125 
L 44.28125 54.6875 
z
" id="DejaVuSans-120"/>
      <path d="M 9.8125 72.90625 
L 19.671875 72.90625 
L 19.671875 8.296875 
L 55.171875 8.296875 
L 55.171875 0 
L 9.8125 0 
z
" id="DejaVuSans-76"/>
      <path d="M 48.78125 52.59375 
L 48.78125 44.1875 
Q 44.96875 46.296875 41.140625 47.34375 
Q 37.3125 48.390625 33.40625 48.390625 
Q 24.65625 48.390625 19.8125 42.84375 
Q 14.984375 37.3125 14.984375 27.296875 
Q 14.984375 17.28125 19.8125 11.734375 
Q 24.65625 6.203125 33.40625 6.203125 
Q 37.3125 6.203125 41.140625 7.25 
Q 44.96875 8.296875 48.78125 10.40625 
L 48.78125 2.09375 
Q 45.015625 0.34375 40.984375 -0.53125 
Q 36.96875 -1.421875 32.421875 -1.421875 
Q 20.0625 -1.421875 12.78125 6.34375 
Q 5.515625 14.109375 5.515625 27.296875 
Q 5.515625 40.671875 12.859375 48.328125 
Q 20.21875 56 33.015625 56 
Q 37.15625 56 41.109375 55.140625 
Q 45.0625 54.296875 48.78125 52.59375 
z
" id="DejaVuSans-99"/>
      <path d="M 32.171875 -5.078125 
Q 28.375 -14.84375 24.75 -17.8125 
Q 21.140625 -20.796875 15.09375 -20.796875 
L 7.90625 -20.796875 
L 7.90625 -13.28125 
L 13.1875 -13.28125 
Q 16.890625 -13.28125 18.9375 -11.515625 
Q 21 -9.765625 23.484375 -3.21875 
L 25.09375 0.875 
L 2.984375 54.6875 
L 12.5 54.6875 
L 29.59375 11.921875 
L 46.6875 54.6875 
L 56.203125 54.6875 
z
" id="DejaVuSans-121"/>
      <path d="M 31 75.875 
Q 24.46875 64.65625 21.28125 53.65625 
Q 18.109375 42.671875 18.109375 31.390625 
Q 18.109375 20.125 21.3125 9.0625 
Q 24.515625 -2 31 -13.1875 
L 23.1875 -13.1875 
Q 15.875 -1.703125 12.234375 9.375 
Q 8.59375 20.453125 8.59375 31.390625 
Q 8.59375 42.28125 12.203125 53.3125 
Q 15.828125 64.359375 23.1875 75.875 
z
" id="DejaVuSans-40"/>
      <path d="M 8.015625 75.875 
L 15.828125 75.875 
Q 23.140625 64.359375 26.78125 53.3125 
Q 30.421875 42.28125 30.421875 31.390625 
Q 30.421875 20.453125 26.78125 9.375 
Q 23.140625 -1.703125 15.828125 -13.1875 
L 8.015625 -13.1875 
Q 14.5 -2 17.703125 9.0625 
Q 20.90625 20.125 20.90625 31.390625 
Q 20.90625 42.671875 17.703125 53.65625 
Q 14.5 64.65625 8.015625 75.875 
z
" id="DejaVuSans-41"/>
     </defs>
     <g transform="translate(15.15774 196.967)rotate(-90)scale(0.16 -0.16)">
      <use xlink:href="#DejaVuSans-77"/>
      <use x="86.279297" xlink:href="#DejaVuSans-97"/>
      <use x="147.558594" xlink:href="#DejaVuSans-120"/>
      <use x="206.738281" xlink:href="#DejaVuSans-32"/>
      <use x="238.525391" xlink:href="#DejaVuSans-76"/>
      <use x="294.238281" xlink:href="#DejaVuSans-97"/>
      <use x="355.517578" xlink:href="#DejaVuSans-116"/>
      <use x="394.726562" xlink:href="#DejaVuSans-101"/>
      <use x="456.25" xlink:href="#DejaVuSans-110"/>
      <use x="519.628906" xlink:href="#DejaVuSans-99"/>
      <use x="574.609375" xlink:href="#DejaVuSans-121"/>
      <use x="633.789062" xlink:href="#DejaVuSans-32"/>
      <use x="665.576172" xlink:href="#DejaVuSans-40"/>
      <use x="704.589844" xlink:href="#DejaVuSans-115"/>
      <use x="756.689453" xlink:href="#DejaVuSans-41"/>
     </g>
    </g>
   </g>
   <g id="line2d_19">
    <path clip-path="url(#p97f6c91c58)" d="M 72.917818 233.055191 
L 91.003599 232.92476 
L 98.754648 232.673576 
L 103.405278 232.45761 
L 106.505698 232.366814 
L 110.63959 232.257325 
L 114.773483 231.80491 
L 118.390639 231.674557 
L 119.940849 231.53688 
L 122.524532 231.470349 
L 126.658425 231.356421 
L 127.691898 231.260243 
L 130.275581 231.115063 
L 131.309055 230.987918 
L 135.959684 230.876787 
L 141.643787 230.496954 
L 143.710733 230.058535 
L 144.744206 229.94576 
L 157.145885 228.948095 
L 163.863461 228.529697 
L 166.447144 228.279633 
L 169.030827 227.848014 
L 171.61451 227.654555 
L 173.164719 227.473947 
L 180.399032 227.092815 
L 182.982715 226.950978 
L 186.083135 226.693359 
L 187.633344 226.611489 
L 189.183554 226.453739 
L 191.250501 226.338771 
L 192.283974 226.23278 
L 196.417867 226.066917 
L 197.968076 225.891129 
L 201.068496 225.794869 
L 202.101969 225.717738 
L 213.470175 225.314558 
L 217.604067 225.076574 
L 227.422063 224.725898 
L 230.005746 224.550556 
L 231.039219 224.537311 
L 232.072692 224.40511 
L 233.622902 224.215521 
L 239.823741 223.809348 
L 242.407424 223.717469 
L 244.474371 223.493535 
L 255.325839 222.874718 
L 255.842576 222.718438 
L 269.794464 221.988685 
L 270.827938 221.689428 
L 275.995304 220.962971 
L 276.51204 220.789727 
L 278.578987 220.589583 
L 279.61246 220.230172 
L 280.129196 220.218417 
L 282.196143 219.639287 
L 283.229616 219.57803 
L 283.746353 219.249531 
L 284.779826 219.005089 
L 285.813299 218.903626 
L 286.846772 218.476302 
L 289.947192 217.882428 
L 290.463929 217.520943 
L 291.497402 217.290132 
L 292.014138 216.002982 
L 293.564348 215.895955 
L 296.148031 215.627217 
L 296.664768 215.464981 
L 297.698241 215.41585 
L 298.214978 215.284309 
L 299.765187 215.161165 
L 301.315397 214.675064 
L 302.865607 214.575444 
L 305.44929 213.805354 
L 305.966027 213.738614 
L 306.482763 213.313421 
L 307.516236 213.032971 
L 308.032973 212.759055 
L 308.54971 198.766596 
L 309.583183 198.604938 
L 310.616656 198.420462 
L 311.133393 198.40827 
L 312.166866 198.098816 
L 312.683603 197.8078 
L 313.200339 197.728423 
L 314.750549 197.004674 
L 315.267286 196.335343 
L 315.784022 184.200892 
L 316.300759 183.57286 
L 316.817495 183.542325 
L 318.367705 182.909082 
L 318.884442 182.587942 
L 319.401178 181.581966 
L 319.917915 181.2512 
L 320.434652 179.502765 
L 320.951388 179.354666 
L 321.468125 47.222493 
L 321.984861 46.409157 
L 323.018335 46.285517 
L 325.085281 45.847182 
L 325.602018 45.457356 
L 327.668964 44.748049 
L 328.185701 44.179665 
L 329.219174 44.131398 
L 329.73591 43.628975 
L 330.252647 42.795558 
L 330.769384 41.648078 
L 330.769384 41.648078 
" style="fill:none;stroke:#1f77b4;stroke-linecap:square;stroke-width:3;"/>
   </g>
   <g id="line2d_20">
    <path clip-path="url(#p97f6c91c58)" d="M 72.917818 233.002855 
L 86.869707 232.865238 
L 88.936653 232.829688 
L 93.587282 232.72067 
L 95.137492 232.628401 
L 103.405278 232.339499 
L 108.055907 232.231748 
L 111.156327 232.021618 
L 115.29022 231.90809 
L 150.945045 230.380881 
L 152.495255 230.262659 
L 158.179358 229.931744 
L 161.279778 229.822326 
L 166.96388 229.424758 
L 169.547563 229.337187 
L 171.61451 229.205058 
L 173.164719 229.130565 
L 175.231666 229.025313 
L 203.652179 228.000457 
L 206.235862 227.877623 
L 209.336282 227.785018 
L 211.919965 227.647961 
L 218.637541 227.391347 
L 222.771433 227.271803 
L 224.321643 227.151051 
L 231.555956 227.018567 
L 235.173112 226.819337 
L 243.957634 226.547807 
L 250.158473 226.131269 
L 250.67521 225.977174 
L 257.909522 225.750683 
L 259.459732 225.648112 
L 262.560152 225.547673 
L 263.593625 225.455461 
L 266.694045 225.288536 
L 268.244255 225.123415 
L 279.095723 224.439206 
L 280.645933 224.297317 
L 286.330036 223.974377 
L 286.846772 223.785145 
L 297.181504 222.919919 
L 301.832134 222.585552 
L 302.865607 222.461907 
L 303.89908 222.351442 
L 305.44929 222.267245 
L 306.482763 222.162185 
L 308.032973 222.079059 
L 312.166866 221.460899 
L 313.717076 220.895496 
L 314.750549 220.77479 
L 315.784022 220.58484 
L 316.300759 220.390957 
L 316.817495 219.81528 
L 317.334232 219.790395 
L 317.850969 219.417439 
L 318.884442 219.387452 
L 319.917915 218.751321 
L 320.434652 218.27972 
L 321.468125 216.836508 
L 321.984861 216.57477 
L 322.501598 216.056522 
L 323.018335 214.523717 
L 324.051808 212.97776 
L 324.568544 212.927013 
L 325.085281 211.720245 
L 325.602018 209.762289 
L 326.118754 209.726862 
L 326.635491 209.382731 
L 327.152227 201.801213 
L 327.668964 200.506047 
L 328.185701 197.832539 
L 328.702437 197.770853 
L 329.219174 181.135822 
L 329.73591 180.320675 
L 330.252647 96.665646 
L 330.769384 33.563809 
L 330.769384 33.563809 
" style="fill:none;stroke:#ff7f0e;stroke-linecap:square;stroke-width:3;"/>
   </g>
   <g id="line2d_21">
    <path clip-path="url(#p97f6c91c58)" d="M 72.917818 232.998477 
L 86.35297 232.90215 
L 87.90318 232.83151 
L 99.271385 232.608869 
L 101.338331 232.54841 
L 103.405278 232.463727 
L 105.472224 232.304074 
L 111.673064 232.164285 
L 113.223273 232.082151 
L 119.424113 231.806384 
L 120.974322 231.67601 
L 123.558005 231.533621 
L 125.624952 231.487444 
L 142.67726 231.066381 
L 145.260943 230.965755 
L 150.945045 230.715938 
L 174.198193 229.38556 
L 175.231666 229.225213 
L 182.465978 228.94027 
L 185.566398 228.759991 
L 188.666818 228.508504 
L 190.217027 228.356939 
L 194.35092 228.163764 
L 196.934603 228.00977 
L 199.00155 227.907514 
L 200.035023 227.777161 
L 202.101969 227.693207 
L 203.652179 227.604799 
L 207.786072 227.481976 
L 221.73796 226.985353 
L 223.804907 226.924808 
L 230.005746 226.644148 
L 231.039219 226.409522 
L 233.106166 226.254526 
L 245.507844 225.764592 
L 247.058054 225.686357 
L 248.608264 225.618073 
L 251.708683 225.496186 
L 253.77563 225.377752 
L 255.325839 225.289841 
L 256.359313 225.165561 
L 263.076889 224.835127 
L 266.177308 224.675656 
L 268.760991 224.565331 
L 275.995304 224.389284 
L 279.095723 224.196311 
L 282.196143 224.117108 
L 285.296563 223.774692 
L 286.330036 223.739571 
L 286.846772 223.50585 
L 289.947192 223.269536 
L 291.497402 223.174594 
L 293.047612 223.070116 
L 294.081085 222.953934 
L 295.631295 222.886737 
L 297.181504 222.769842 
L 298.214978 222.657122 
L 304.415817 222.274918 
L 305.44929 222.137676 
L 305.966027 222.129346 
L 306.482763 221.900075 
L 306.9995 221.884992 
L 307.516236 221.636774 
L 308.54971 221.595004 
L 309.066446 221.338931 
L 310.099919 221.21339 
L 312.166866 220.951413 
L 313.200339 220.654984 
L 313.717076 220.428662 
L 314.750549 220.266551 
L 315.267286 219.810761 
L 316.300759 219.476455 
L 319.401178 219.092085 
L 320.434652 218.152284 
L 321.468125 217.882814 
L 321.984861 217.386403 
L 323.018335 217.131574 
L 323.535071 216.898224 
L 326.635491 213.447607 
L 327.152227 212.189222 
L 327.668964 211.892826 
L 328.185701 197.982844 
L 328.702437 196.395796 
L 329.219174 183.441977 
L 329.73591 183.314097 
L 330.769384 182.370407 
L 330.769384 182.370407 
" style="fill:none;stroke:#2ca02c;stroke-linecap:square;stroke-width:3;"/>
   </g>
   <g id="patch_3">
    <path d="M 60.02524 243.02976 
L 60.02524 23.58924 
" style="fill:none;stroke:#000000;stroke-linecap:square;stroke-linejoin:miter;stroke-width:0.8;"/>
   </g>
   <g id="patch_4">
    <path d="M 343.661962 243.02976 
L 343.661962 23.58924 
" style="fill:none;stroke:#000000;stroke-linecap:square;stroke-linejoin:miter;stroke-width:0.8;"/>
   </g>
   <g id="patch_5">
    <path d="M 60.02524 243.02976 
L 343.661962 243.02976 
" style="fill:none;stroke:#000000;stroke-linecap:square;stroke-linejoin:miter;stroke-width:0.8;"/>
   </g>
   <g id="patch_6">
    <path d="M 60.02524 23.58924 
L 343.661962 23.58924 
" style="fill:none;stroke:#000000;stroke-linecap:square;stroke-linejoin:miter;stroke-width:0.8;"/>
   </g>
   <g id="text_12">
    <!-- Query Latency CDF -->
    <defs>
     <path d="M 64.40625 67.28125 
L 64.40625 56.890625 
Q 59.421875 61.53125 53.78125 63.8125 
Q 48.140625 66.109375 41.796875 66.109375 
Q 29.296875 66.109375 22.65625 58.46875 
Q 16.015625 50.828125 16.015625 36.375 
Q 16.015625 21.96875 22.65625 14.328125 
Q 29.296875 6.6875 41.796875 6.6875 
Q 48.140625 6.6875 53.78125 8.984375 
Q 59.421875 11.28125 64.40625 15.921875 
L 64.40625 5.609375 
Q 59.234375 2.09375 53.4375 0.328125 
Q 47.65625 -1.421875 41.21875 -1.421875 
Q 24.65625 -1.421875 15.125 8.703125 
Q 5.609375 18.84375 5.609375 36.375 
Q 5.609375 53.953125 15.125 64.078125 
Q 24.65625 74.21875 41.21875 74.21875 
Q 47.75 74.21875 53.53125 72.484375 
Q 59.328125 70.75 64.40625 67.28125 
z
" id="DejaVuSans-67"/>
     <path d="M 19.671875 64.796875 
L 19.671875 8.109375 
L 31.59375 8.109375 
Q 46.6875 8.109375 53.6875 14.9375 
Q 60.6875 21.78125 60.6875 36.53125 
Q 60.6875 51.171875 53.6875 57.984375 
Q 46.6875 64.796875 31.59375 64.796875 
z
M 9.8125 72.90625 
L 30.078125 72.90625 
Q 51.265625 72.90625 61.171875 64.09375 
Q 71.09375 55.28125 71.09375 36.53125 
Q 71.09375 17.671875 61.125 8.828125 
Q 51.171875 0 30.078125 0 
L 9.8125 0 
z
" id="DejaVuSans-68"/>
     <path d="M 9.8125 72.90625 
L 51.703125 72.90625 
L 51.703125 64.59375 
L 19.671875 64.59375 
L 19.671875 43.109375 
L 48.578125 43.109375 
L 48.578125 34.8125 
L 19.671875 34.8125 
L 19.671875 0 
L 9.8125 0 
z
" id="DejaVuSans-70"/>
    </defs>
    <g transform="translate(109.001101 17.58924)scale(0.192 -0.192)">
     <use xlink:href="#DejaVuSans-81"/>
     <use x="78.710938" xlink:href="#DejaVuSans-117"/>
     <use x="142.089844" xlink:href="#DejaVuSans-101"/>
     <use x="203.613281" xlink:href="#DejaVuSans-114"/>
     <use x="244.726562" xlink:href="#DejaVuSans-121"/>
     <use x="303.90625" xlink:href="#DejaVuSans-32"/>
     <use x="335.693359" xlink:href="#DejaVuSans-76"/>
     <use x="391.40625" xlink:href="#DejaVuSans-97"/>
     <use x="452.685547" xlink:href="#DejaVuSans-116"/>
     <use x="491.894531" xlink:href="#DejaVuSans-101"/>
     <use x="553.417969" xlink:href="#DejaVuSans-110"/>
     <use x="616.796875" xlink:href="#DejaVuSans-99"/>
     <use x="671.777344" xlink:href="#DejaVuSans-121"/>
     <use x="730.957031" xlink:href="#DejaVuSans-32"/>
     <use x="762.744141" xlink:href="#DejaVuSans-67"/>
     <use x="832.568359" xlink:href="#DejaVuSans-68"/>
     <use x="909.570312" xlink:href="#DejaVuSans-70"/>
    </g>
   </g>
   <g id="legend_1">
    <g id="patch_7">
     <path d="M 71.22524 106.84424 
L 284.58524 106.84424 
Q 287.78524 106.84424 287.78524 103.64424 
L 287.78524 34.78924 
Q 287.78524 31.58924 284.58524 31.58924 
L 71.22524 31.58924 
Q 68.02524 31.58924 68.02524 34.78924 
L 68.02524 103.64424 
Q 68.02524 106.84424 71.22524 106.84424 
z
" style="fill:#ffffff;opacity:0.8;stroke:#cccccc;stroke-linejoin:miter;"/>
    </g>
    <g id="line2d_22">
     <path d="M 74.42524 44.54674 
L 106.42524 44.54674 
" style="fill:none;stroke:#1f77b4;stroke-linecap:square;stroke-width:3;"/>
    </g>
    <g id="line2d_23"/>
    <g id="text_13">
     <!-- PostgreSQL -->
     <defs>
      <path d="M 45.40625 27.984375 
Q 45.40625 37.75 41.375 43.109375 
Q 37.359375 48.484375 30.078125 48.484375 
Q 22.859375 48.484375 18.828125 43.109375 
Q 14.796875 37.75 14.796875 27.984375 
Q 14.796875 18.265625 18.828125 12.890625 
Q 22.859375 7.515625 30.078125 7.515625 
Q 37.359375 7.515625 41.375 12.890625 
Q 45.40625 18.265625 45.40625 27.984375 
z
M 54.390625 6.78125 
Q 54.390625 -7.171875 48.1875 -13.984375 
Q 42 -20.796875 29.203125 -20.796875 
Q 24.46875 -20.796875 20.265625 -20.09375 
Q 16.0625 -19.390625 12.109375 -17.921875 
L 12.109375 -9.1875 
Q 16.0625 -11.328125 19.921875 -12.34375 
Q 23.78125 -13.375 27.78125 -13.375 
Q 36.625 -13.375 41.015625 -8.765625 
Q 45.40625 -4.15625 45.40625 5.171875 
L 45.40625 9.625 
Q 42.625 4.78125 38.28125 2.390625 
Q 33.9375 0 27.875 0 
Q 17.828125 0 11.671875 7.65625 
Q 5.515625 15.328125 5.515625 27.984375 
Q 5.515625 40.671875 11.671875 48.328125 
Q 17.828125 56 27.875 56 
Q 33.9375 56 38.28125 53.609375 
Q 42.625 51.21875 45.40625 46.390625 
L 45.40625 54.6875 
L 54.390625 54.6875 
z
" id="DejaVuSans-103"/>
      <path d="M 53.515625 70.515625 
L 53.515625 60.890625 
Q 47.90625 63.578125 42.921875 64.890625 
Q 37.9375 66.21875 33.296875 66.21875 
Q 25.25 66.21875 20.875 63.09375 
Q 16.5 59.96875 16.5 54.203125 
Q 16.5 49.359375 19.40625 46.890625 
Q 22.3125 44.4375 30.421875 42.921875 
L 36.375 41.703125 
Q 47.40625 39.59375 52.65625 34.296875 
Q 57.90625 29 57.90625 20.125 
Q 57.90625 9.515625 50.796875 4.046875 
Q 43.703125 -1.421875 29.984375 -1.421875 
Q 24.8125 -1.421875 18.96875 -0.25 
Q 13.140625 0.921875 6.890625 3.21875 
L 6.890625 13.375 
Q 12.890625 10.015625 18.65625 8.296875 
Q 24.421875 6.59375 29.984375 6.59375 
Q 38.421875 6.59375 43.015625 9.90625 
Q 47.609375 13.234375 47.609375 19.390625 
Q 47.609375 24.75 44.3125 27.78125 
Q 41.015625 30.8125 33.5 32.328125 
L 27.484375 33.5 
Q 16.453125 35.6875 11.515625 40.375 
Q 6.59375 45.0625 6.59375 53.421875 
Q 6.59375 63.09375 13.40625 68.65625 
Q 20.21875 74.21875 32.171875 74.21875 
Q 37.3125 74.21875 42.625 73.28125 
Q 47.953125 72.359375 53.515625 70.515625 
z
" id="DejaVuSans-83"/>
     </defs>
     <g transform="translate(119.22524 50.14674)scale(0.16 -0.16)">
      <use xlink:href="#DejaVuSans-80"/>
      <use x="56.677734" xlink:href="#DejaVuSans-111"/>
      <use x="117.859375" xlink:href="#DejaVuSans-115"/>
      <use x="169.958984" xlink:href="#DejaVuSans-116"/>
      <use x="209.167969" xlink:href="#DejaVuSans-103"/>
      <use x="272.644531" xlink:href="#DejaVuSans-114"/>
      <use x="311.507812" xlink:href="#DejaVuSans-101"/>
      <use x="373.03125" xlink:href="#DejaVuSans-83"/>
      <use x="436.507812" xlink:href="#DejaVuSans-81"/>
      <use x="515.21875" xlink:href="#DejaVuSans-76"/>
     </g>
    </g>
    <g id="line2d_24">
     <path d="M 74.42524 68.03174 
L 106.42524 68.03174 
" style="fill:none;stroke:#ff7f0e;stroke-linecap:square;stroke-width:3;"/>
    </g>
    <g id="line2d_25"/>
    <g id="text_14">
     <!-- Bao -->
     <defs>
      <path d="M 19.671875 34.8125 
L 19.671875 8.109375 
L 35.5 8.109375 
Q 43.453125 8.109375 47.28125 11.40625 
Q 51.125 14.703125 51.125 21.484375 
Q 51.125 28.328125 47.28125 31.5625 
Q 43.453125 34.8125 35.5 34.8125 
z
M 19.671875 64.796875 
L 19.671875 42.828125 
L 34.28125 42.828125 
Q 41.5 42.828125 45.03125 45.53125 
Q 48.578125 48.25 48.578125 53.8125 
Q 48.578125 59.328125 45.03125 62.0625 
Q 41.5 64.796875 34.28125 64.796875 
z
M 9.8125 72.90625 
L 35.015625 72.90625 
Q 46.296875 72.90625 52.390625 68.21875 
Q 58.5 63.53125 58.5 54.890625 
Q 58.5 48.1875 55.375 44.234375 
Q 52.25 40.28125 46.1875 39.3125 
Q 53.46875 37.75 57.5 32.78125 
Q 61.53125 27.828125 61.53125 20.40625 
Q 61.53125 10.640625 54.890625 5.3125 
Q 48.25 0 35.984375 0 
L 9.8125 0 
z
" id="DejaVuSans-66"/>
     </defs>
     <g transform="translate(119.22524 73.63174)scale(0.16 -0.16)">
      <use xlink:href="#DejaVuSans-66"/>
      <use x="68.603516" xlink:href="#DejaVuSans-97"/>
      <use x="129.882812" xlink:href="#DejaVuSans-111"/>
     </g>
    </g>
    <g id="line2d_26">
     <path d="M 74.42524 91.51674 
L 106.42524 91.51674 
" style="fill:none;stroke:#2ca02c;stroke-linecap:square;stroke-width:3;"/>
    </g>
    <g id="line2d_27"/>
    <g id="text_15">
     <!-- Bao (w/ exploration) -->
     <defs>
      <path d="M 4.203125 54.6875 
L 13.1875 54.6875 
L 24.421875 12.015625 
L 35.59375 54.6875 
L 46.1875 54.6875 
L 57.421875 12.015625 
L 68.609375 54.6875 
L 77.59375 54.6875 
L 63.28125 0 
L 52.6875 0 
L 40.921875 44.828125 
L 29.109375 0 
L 18.5 0 
z
" id="DejaVuSans-119"/>
      <path d="M 25.390625 72.90625 
L 33.6875 72.90625 
L 8.296875 -9.28125 
L 0 -9.28125 
z
" id="DejaVuSans-47"/>
      <path d="M 9.421875 75.984375 
L 18.40625 75.984375 
L 18.40625 0 
L 9.421875 0 
z
" id="DejaVuSans-108"/>
     </defs>
     <g transform="translate(119.22524 97.11674)scale(0.16 -0.16)">
      <use xlink:href="#DejaVuSans-66"/>
      <use x="68.603516" xlink:href="#DejaVuSans-97"/>
      <use x="129.882812" xlink:href="#DejaVuSans-111"/>
      <use x="191.064453" xlink:href="#DejaVuSans-32"/>
      <use x="222.851562" xlink:href="#DejaVuSans-40"/>
      <use x="261.865234" xlink:href="#DejaVuSans-119"/>
      <use x="343.652344" xlink:href="#DejaVuSans-47"/>
      <use x="377.34375" xlink:href="#DejaVuSans-32"/>
      <use x="409.130859" xlink:href="#DejaVuSans-101"/>
      <use x="468.904297" xlink:href="#DejaVuSans-120"/>
      <use x="528.083984" xlink:href="#DejaVuSans-112"/>
      <use x="591.560547" xlink:href="#DejaVuSans-108"/>
      <use x="619.34375" xlink:href="#DejaVuSans-111"/>
      <use x="680.525391" xlink:href="#DejaVuSans-114"/>
      <use x="721.638672" xlink:href="#DejaVuSans-97"/>
      <use x="782.917969" xlink:href="#DejaVuSans-116"/>
      <use x="822.126953" xlink:href="#DejaVuSans-105"/>
      <use x="849.910156" xlink:href="#DejaVuSans-111"/>
      <use x="911.091797" xlink:href="#DejaVuSans-110"/>
      <use x="974.470703" xlink:href="#DejaVuSans-41"/>
     </g>
    </g>
   </g>
  </g>
  <g id="axes_2">
   <g id="patch_8">
    <path d="M 426.159575 243.02976 
L 709.796297 243.02976 
L 709.796297 23.58924 
L 426.159575 23.58924 
z
" style="fill:#ffffff;"/>
   </g>
   <g id="matplotlib.axis_3">
    <g id="xtick_6">
     <g id="line2d_28">
      <path clip-path="url(#pd52deb95e9)" d="M 439.052153 243.02976 
L 439.052153 23.58924 
" style="fill:none;stroke:#b0b0b0;stroke-dasharray:3.7,1.6;stroke-dashoffset:0;"/>
     </g>
     <g id="line2d_29">
      <g>
       <use style="stroke:#000000;stroke-width:0.8;" x="439.052153" xlink:href="#me6c7711c0b" y="243.02976"/>
      </g>
     </g>
     <g id="text_16">
      <!-- 0.00 -->
      <g transform="translate(421.239653 262.18726)scale(0.16 -0.16)">
       <use xlink:href="#DejaVuSans-48"/>
       <use x="63.623047" xlink:href="#DejaVuSans-46"/>
       <use x="95.410156" xlink:href="#DejaVuSans-48"/>
       <use x="159.033203" xlink:href="#DejaVuSans-48"/>
      </g>
     </g>
    </g>
    <g id="xtick_7">
     <g id="line2d_30">
      <path clip-path="url(#pd52deb95e9)" d="M 503.515045 243.02976 
L 503.515045 23.58924 
" style="fill:none;stroke:#b0b0b0;stroke-dasharray:3.7,1.6;stroke-dashoffset:0;"/>
     </g>
     <g id="line2d_31">
      <g>
       <use style="stroke:#000000;stroke-width:0.8;" x="503.515045" xlink:href="#me6c7711c0b" y="243.02976"/>
      </g>
     </g>
     <g id="text_17">
      <!-- 0.25 -->
      <g transform="translate(485.702545 262.18726)scale(0.16 -0.16)">
       <use xlink:href="#DejaVuSans-48"/>
       <use x="63.623047" xlink:href="#DejaVuSans-46"/>
       <use x="95.410156" xlink:href="#DejaVuSans-50"/>
       <use x="159.033203" xlink:href="#DejaVuSans-53"/>
      </g>
     </g>
    </g>
    <g id="xtick_8">
     <g id="line2d_32">
      <path clip-path="url(#pd52deb95e9)" d="M 567.977936 243.02976 
L 567.977936 23.58924 
" style="fill:none;stroke:#b0b0b0;stroke-dasharray:3.7,1.6;stroke-dashoffset:0;"/>
     </g>
     <g id="line2d_33">
      <g>
       <use style="stroke:#000000;stroke-width:0.8;" x="567.977936" xlink:href="#me6c7711c0b" y="243.02976"/>
      </g>
     </g>
     <g id="text_18">
      <!-- 0.50 -->
      <g transform="translate(550.165436 262.18726)scale(0.16 -0.16)">
       <use xlink:href="#DejaVuSans-48"/>
       <use x="63.623047" xlink:href="#DejaVuSans-46"/>
       <use x="95.410156" xlink:href="#DejaVuSans-53"/>
       <use x="159.033203" xlink:href="#DejaVuSans-48"/>
      </g>
     </g>
    </g>
    <g id="xtick_9">
     <g id="line2d_34">
      <path clip-path="url(#pd52deb95e9)" d="M 632.440827 243.02976 
L 632.440827 23.58924 
" style="fill:none;stroke:#b0b0b0;stroke-dasharray:3.7,1.6;stroke-dashoffset:0;"/>
     </g>
     <g id="line2d_35">
      <g>
       <use style="stroke:#000000;stroke-width:0.8;" x="632.440827" xlink:href="#me6c7711c0b" y="243.02976"/>
      </g>
     </g>
     <g id="text_19">
      <!-- 0.75 -->
      <g transform="translate(614.628327 262.18726)scale(0.16 -0.16)">
       <use xlink:href="#DejaVuSans-48"/>
       <use x="63.623047" xlink:href="#DejaVuSans-46"/>
       <use x="95.410156" xlink:href="#DejaVuSans-55"/>
       <use x="159.033203" xlink:href="#DejaVuSans-53"/>
      </g>
     </g>
    </g>
    <g id="xtick_10">
     <g id="line2d_36">
      <path clip-path="url(#pd52deb95e9)" d="M 696.903719 243.02976 
L 696.903719 23.58924 
" style="fill:none;stroke:#b0b0b0;stroke-dasharray:3.7,1.6;stroke-dashoffset:0;"/>
     </g>
     <g id="line2d_37">
      <g>
       <use style="stroke:#000000;stroke-width:0.8;" x="696.903719" xlink:href="#me6c7711c0b" y="243.02976"/>
      </g>
     </g>
     <g id="text_20">
      <!-- 1.00 -->
      <g transform="translate(679.091219 262.18726)scale(0.16 -0.16)">
       <use xlink:href="#DejaVuSans-49"/>
       <use x="63.623047" xlink:href="#DejaVuSans-46"/>
       <use x="95.410156" xlink:href="#DejaVuSans-48"/>
       <use x="159.033203" xlink:href="#DejaVuSans-48"/>
      </g>
     </g>
    </g>
    <g id="text_21">
     <!-- Proportion of Queries -->
     <g transform="translate(483.016686 281.67226)scale(0.16 -0.16)">
      <use xlink:href="#DejaVuSans-80"/>
      <use x="58.552734" xlink:href="#DejaVuSans-114"/>
      <use x="97.416016" xlink:href="#DejaVuSans-111"/>
      <use x="158.597656" xlink:href="#DejaVuSans-112"/>
      <use x="222.074219" xlink:href="#DejaVuSans-111"/>
      <use x="283.255859" xlink:href="#DejaVuSans-114"/>
      <use x="324.369141" xlink:href="#DejaVuSans-116"/>
      <use x="363.578125" xlink:href="#DejaVuSans-105"/>
      <use x="391.361328" xlink:href="#DejaVuSans-111"/>
      <use x="452.542969" xlink:href="#DejaVuSans-110"/>
      <use x="515.921875" xlink:href="#DejaVuSans-32"/>
      <use x="547.708984" xlink:href="#DejaVuSans-111"/>
      <use x="608.890625" xlink:href="#DejaVuSans-102"/>
      <use x="644.095703" xlink:href="#DejaVuSans-32"/>
      <use x="675.882812" xlink:href="#DejaVuSans-81"/>
      <use x="754.59375" xlink:href="#DejaVuSans-117"/>
      <use x="817.972656" xlink:href="#DejaVuSans-101"/>
      <use x="879.496094" xlink:href="#DejaVuSans-114"/>
      <use x="920.609375" xlink:href="#DejaVuSans-105"/>
      <use x="948.392578" xlink:href="#DejaVuSans-101"/>
      <use x="1009.916016" xlink:href="#DejaVuSans-115"/>
     </g>
    </g>
   </g>
   <g id="matplotlib.axis_4">
    <g id="ytick_5">
     <g id="line2d_38">
      <path clip-path="url(#pd52deb95e9)" d="M 426.159575 203.269687 
L 709.796297 203.269687 
" style="fill:none;stroke:#b0b0b0;stroke-dasharray:3.7,1.6;stroke-dashoffset:0;"/>
     </g>
     <g id="line2d_39">
      <g>
       <use style="stroke:#000000;stroke-width:0.8;" x="426.159575" xlink:href="#m9c1cca26fb" y="203.269687"/>
      </g>
     </g>
     <g id="text_22">
      <!-- $\mathdefault{10^{-1}}$ -->
      <defs>
       <path d="M 10.59375 35.5 
L 73.1875 35.5 
L 73.1875 27.203125 
L 10.59375 27.203125 
z
" id="DejaVuSans-8722"/>
      </defs>
      <g transform="translate(381.559575 209.348437)scale(0.16 -0.16)">
       <use transform="translate(0 0.684375)" xlink:href="#DejaVuSans-49"/>
       <use transform="translate(63.623047 0.684375)" xlink:href="#DejaVuSans-48"/>
       <use transform="translate(128.203125 38.965625)scale(0.7)" xlink:href="#DejaVuSans-8722"/>
       <use transform="translate(186.855469 38.965625)scale(0.7)" xlink:href="#DejaVuSans-49"/>
      </g>
     </g>
    </g>
    <g id="ytick_6">
     <g id="line2d_40">
      <path clip-path="url(#pd52deb95e9)" d="M 426.159575 154.25675 
L 709.796297 154.25675 
" style="fill:none;stroke:#b0b0b0;stroke-dasharray:3.7,1.6;stroke-dashoffset:0;"/>
     </g>
     <g id="line2d_41">
      <g>
       <use style="stroke:#000000;stroke-width:0.8;" x="426.159575" xlink:href="#m9c1cca26fb" y="154.25675"/>
      </g>
     </g>
     <g id="text_23">
      <!-- $\mathdefault{10^{0}}$ -->
      <g transform="translate(390.999575 160.3355)scale(0.16 -0.16)">
       <use transform="translate(0 0.765625)" xlink:href="#DejaVuSans-49"/>
       <use transform="translate(63.623047 0.765625)" xlink:href="#DejaVuSans-48"/>
       <use transform="translate(128.203125 39.046875)scale(0.7)" xlink:href="#DejaVuSans-48"/>
      </g>
     </g>
    </g>
    <g id="ytick_7">
     <g id="line2d_42">
      <path clip-path="url(#pd52deb95e9)" d="M 426.159575 105.243812 
L 709.796297 105.243812 
" style="fill:none;stroke:#b0b0b0;stroke-dasharray:3.7,1.6;stroke-dashoffset:0;"/>
     </g>
     <g id="line2d_43">
      <g>
       <use style="stroke:#000000;stroke-width:0.8;" x="426.159575" xlink:href="#m9c1cca26fb" y="105.243812"/>
      </g>
     </g>
     <g id="text_24">
      <!-- $\mathdefault{10^{1}}$ -->
      <g transform="translate(390.999575 111.322562)scale(0.16 -0.16)">
       <use transform="translate(0 0.684375)" xlink:href="#DejaVuSans-49"/>
       <use transform="translate(63.623047 0.684375)" xlink:href="#DejaVuSans-48"/>
       <use transform="translate(128.203125 38.965625)scale(0.7)" xlink:href="#DejaVuSans-49"/>
      </g>
     </g>
    </g>
    <g id="ytick_8">
     <g id="line2d_44">
      <path clip-path="url(#pd52deb95e9)" d="M 426.159575 56.230875 
L 709.796297 56.230875 
" style="fill:none;stroke:#b0b0b0;stroke-dasharray:3.7,1.6;stroke-dashoffset:0;"/>
     </g>
     <g id="line2d_45">
      <g>
       <use style="stroke:#000000;stroke-width:0.8;" x="426.159575" xlink:href="#m9c1cca26fb" y="56.230875"/>
      </g>
     </g>
     <g id="text_25">
      <!-- $\mathdefault{10^{2}}$ -->
      <g transform="translate(390.999575 62.309625)scale(0.16 -0.16)">
       <use transform="translate(0 0.765625)" xlink:href="#DejaVuSans-49"/>
       <use transform="translate(63.623047 0.765625)" xlink:href="#DejaVuSans-48"/>
       <use transform="translate(128.203125 39.046875)scale(0.7)" xlink:href="#DejaVuSans-50"/>
      </g>
     </g>
    </g>
    <g id="ytick_9">
     <g id="line2d_46">
      <defs>
       <path d="M 0 0 
L -2 0 
" id="m8bc941717f" style="stroke:#000000;stroke-width:0.6;"/>
      </defs>
      <g>
       <use style="stroke:#000000;stroke-width:0.6;" x="426.159575" xlink:href="#m8bc941717f" y="237.52826"/>
      </g>
     </g>
    </g>
    <g id="ytick_10">
     <g id="line2d_47">
      <g>
       <use style="stroke:#000000;stroke-width:0.6;" x="426.159575" xlink:href="#m8bc941717f" y="228.897511"/>
      </g>
     </g>
    </g>
    <g id="ytick_11">
     <g id="line2d_48">
      <g>
       <use style="stroke:#000000;stroke-width:0.6;" x="426.159575" xlink:href="#m8bc941717f" y="222.773896"/>
      </g>
     </g>
    </g>
    <g id="ytick_12">
     <g id="line2d_49">
      <g>
       <use style="stroke:#000000;stroke-width:0.6;" x="426.159575" xlink:href="#m8bc941717f" y="218.024052"/>
      </g>
     </g>
    </g>
    <g id="ytick_13">
     <g id="line2d_50">
      <g>
       <use style="stroke:#000000;stroke-width:0.6;" x="426.159575" xlink:href="#m8bc941717f" y="214.143146"/>
      </g>
     </g>
    </g>
    <g id="ytick_14">
     <g id="line2d_51">
      <g>
       <use style="stroke:#000000;stroke-width:0.6;" x="426.159575" xlink:href="#m8bc941717f" y="210.861887"/>
      </g>
     </g>
    </g>
    <g id="ytick_15">
     <g id="line2d_52">
      <g>
       <use style="stroke:#000000;stroke-width:0.6;" x="426.159575" xlink:href="#m8bc941717f" y="208.019532"/>
      </g>
     </g>
    </g>
    <g id="ytick_16">
     <g id="line2d_53">
      <g>
       <use style="stroke:#000000;stroke-width:0.6;" x="426.159575" xlink:href="#m8bc941717f" y="205.512396"/>
      </g>
     </g>
    </g>
    <g id="ytick_17">
     <g id="line2d_54">
      <g>
       <use style="stroke:#000000;stroke-width:0.6;" x="426.159575" xlink:href="#m8bc941717f" y="188.515323"/>
      </g>
     </g>
    </g>
    <g id="ytick_18">
     <g id="line2d_55">
      <g>
       <use style="stroke:#000000;stroke-width:0.6;" x="426.159575" xlink:href="#m8bc941717f" y="179.884573"/>
      </g>
     </g>
    </g>
    <g id="ytick_19">
     <g id="line2d_56">
      <g>
       <use style="stroke:#000000;stroke-width:0.6;" x="426.159575" xlink:href="#m8bc941717f" y="173.760959"/>
      </g>
     </g>
    </g>
    <g id="ytick_20">
     <g id="line2d_57">
      <g>
       <use style="stroke:#000000;stroke-width:0.6;" x="426.159575" xlink:href="#m8bc941717f" y="169.011114"/>
      </g>
     </g>
    </g>
    <g id="ytick_21">
     <g id="line2d_58">
      <g>
       <use style="stroke:#000000;stroke-width:0.6;" x="426.159575" xlink:href="#m8bc941717f" y="165.130209"/>
      </g>
     </g>
    </g>
    <g id="ytick_22">
     <g id="line2d_59">
      <g>
       <use style="stroke:#000000;stroke-width:0.6;" x="426.159575" xlink:href="#m8bc941717f" y="161.84895"/>
      </g>
     </g>
    </g>
    <g id="ytick_23">
     <g id="line2d_60">
      <g>
       <use style="stroke:#000000;stroke-width:0.6;" x="426.159575" xlink:href="#m8bc941717f" y="159.006594"/>
      </g>
     </g>
    </g>
    <g id="ytick_24">
     <g id="line2d_61">
      <g>
       <use style="stroke:#000000;stroke-width:0.6;" x="426.159575" xlink:href="#m8bc941717f" y="156.499459"/>
      </g>
     </g>
    </g>
    <g id="ytick_25">
     <g id="line2d_62">
      <g>
       <use style="stroke:#000000;stroke-width:0.6;" x="426.159575" xlink:href="#m8bc941717f" y="139.502386"/>
      </g>
     </g>
    </g>
    <g id="ytick_26">
     <g id="line2d_63">
      <g>
       <use style="stroke:#000000;stroke-width:0.6;" x="426.159575" xlink:href="#m8bc941717f" y="130.871636"/>
      </g>
     </g>
    </g>
    <g id="ytick_27">
     <g id="line2d_64">
      <g>
       <use style="stroke:#000000;stroke-width:0.6;" x="426.159575" xlink:href="#m8bc941717f" y="124.748021"/>
      </g>
     </g>
    </g>
    <g id="ytick_28">
     <g id="line2d_65">
      <g>
       <use style="stroke:#000000;stroke-width:0.6;" x="426.159575" xlink:href="#m8bc941717f" y="119.998177"/>
      </g>
     </g>
    </g>
    <g id="ytick_29">
     <g id="line2d_66">
      <g>
       <use style="stroke:#000000;stroke-width:0.6;" x="426.159575" xlink:href="#m8bc941717f" y="116.117271"/>
      </g>
     </g>
    </g>
    <g id="ytick_30">
     <g id="line2d_67">
      <g>
       <use style="stroke:#000000;stroke-width:0.6;" x="426.159575" xlink:href="#m8bc941717f" y="112.836012"/>
      </g>
     </g>
    </g>
    <g id="ytick_31">
     <g id="line2d_68">
      <g>
       <use style="stroke:#000000;stroke-width:0.6;" x="426.159575" xlink:href="#m8bc941717f" y="109.993657"/>
      </g>
     </g>
    </g>
    <g id="ytick_32">
     <g id="line2d_69">
      <g>
       <use style="stroke:#000000;stroke-width:0.6;" x="426.159575" xlink:href="#m8bc941717f" y="107.486521"/>
      </g>
     </g>
    </g>
    <g id="ytick_33">
     <g id="line2d_70">
      <g>
       <use style="stroke:#000000;stroke-width:0.6;" x="426.159575" xlink:href="#m8bc941717f" y="90.489448"/>
      </g>
     </g>
    </g>
    <g id="ytick_34">
     <g id="line2d_71">
      <g>
       <use style="stroke:#000000;stroke-width:0.6;" x="426.159575" xlink:href="#m8bc941717f" y="81.858698"/>
      </g>
     </g>
    </g>
    <g id="ytick_35">
     <g id="line2d_72">
      <g>
       <use style="stroke:#000000;stroke-width:0.6;" x="426.159575" xlink:href="#m8bc941717f" y="75.735084"/>
      </g>
     </g>
    </g>
    <g id="ytick_36">
     <g id="line2d_73">
      <g>
       <use style="stroke:#000000;stroke-width:0.6;" x="426.159575" xlink:href="#m8bc941717f" y="70.985239"/>
      </g>
     </g>
    </g>
    <g id="ytick_37">
     <g id="line2d_74">
      <g>
       <use style="stroke:#000000;stroke-width:0.6;" x="426.159575" xlink:href="#m8bc941717f" y="67.104334"/>
      </g>
     </g>
    </g>
    <g id="ytick_38">
     <g id="line2d_75">
      <g>
       <use style="stroke:#000000;stroke-width:0.6;" x="426.159575" xlink:href="#m8bc941717f" y="63.823075"/>
      </g>
     </g>
    </g>
    <g id="ytick_39">
     <g id="line2d_76">
      <g>
       <use style="stroke:#000000;stroke-width:0.6;" x="426.159575" xlink:href="#m8bc941717f" y="60.980719"/>
      </g>
     </g>
    </g>
    <g id="ytick_40">
     <g id="line2d_77">
      <g>
       <use style="stroke:#000000;stroke-width:0.6;" x="426.159575" xlink:href="#m8bc941717f" y="58.473584"/>
      </g>
     </g>
    </g>
    <g id="ytick_41">
     <g id="line2d_78">
      <g>
       <use style="stroke:#000000;stroke-width:0.6;" x="426.159575" xlink:href="#m8bc941717f" y="41.476511"/>
      </g>
     </g>
    </g>
    <g id="ytick_42">
     <g id="line2d_79">
      <g>
       <use style="stroke:#000000;stroke-width:0.6;" x="426.159575" xlink:href="#m8bc941717f" y="32.845761"/>
      </g>
     </g>
    </g>
    <g id="ytick_43">
     <g id="line2d_80">
      <g>
       <use style="stroke:#000000;stroke-width:0.6;" x="426.159575" xlink:href="#m8bc941717f" y="26.722146"/>
      </g>
     </g>
    </g>
    <g id="text_26">
     <!-- Max Latency (s) -->
     <g transform="translate(374.232075 196.967)rotate(-90)scale(0.16 -0.16)">
      <use xlink:href="#DejaVuSans-77"/>
      <use x="86.279297" xlink:href="#DejaVuSans-97"/>
      <use x="147.558594" xlink:href="#DejaVuSans-120"/>
      <use x="206.738281" xlink:href="#DejaVuSans-32"/>
      <use x="238.525391" xlink:href="#DejaVuSans-76"/>
      <use x="294.238281" xlink:href="#DejaVuSans-97"/>
      <use x="355.517578" xlink:href="#DejaVuSans-116"/>
      <use x="394.726562" xlink:href="#DejaVuSans-101"/>
      <use x="456.25" xlink:href="#DejaVuSans-110"/>
      <use x="519.628906" xlink:href="#DejaVuSans-99"/>
      <use x="574.609375" xlink:href="#DejaVuSans-121"/>
      <use x="633.789062" xlink:href="#DejaVuSans-32"/>
      <use x="665.576172" xlink:href="#DejaVuSans-40"/>
      <use x="704.589844" xlink:href="#DejaVuSans-115"/>
      <use x="756.689453" xlink:href="#DejaVuSans-41"/>
     </g>
    </g>
   </g>
   <g id="line2d_81">
    <path clip-path="url(#pd52deb95e9)" d="M 439.052153 233.055191 
L 439.56889 231.951743 
L 440.602363 226.335375 
L 441.1191 224.65222 
L 441.635836 223.628338 
L 442.152573 223.248607 
L 442.669309 222.563209 
L 443.186046 222.151029 
L 444.219519 220.07955 
L 444.736256 219.989749 
L 445.252992 219.699303 
L 445.769729 217.774431 
L 446.286466 217.680841 
L 446.803202 217.46392 
L 447.319939 213.03986 
L 447.836675 211.235939 
L 448.353412 210.774219 
L 448.870149 207.720775 
L 449.386885 205.573234 
L 449.903622 201.694779 
L 450.420358 198.761644 
L 450.937095 197.482778 
L 451.970568 195.962099 
L 454.554251 195.417521 
L 455.070988 193.693516 
L 455.587725 193.668708 
L 456.621198 191.74698 
L 457.137934 187.04535 
L 457.654671 183.86665 
L 458.171408 182.909867 
L 459.204881 181.416748 
L 459.721617 173.243554 
L 460.238354 169.741796 
L 460.755091 168.857774 
L 461.271827 168.534131 
L 461.788564 168.37991 
L 462.822037 167.440392 
L 463.85551 167.228958 
L 464.372247 166.812544 
L 464.888983 165.871118 
L 465.40572 165.246204 
L 466.95593 162.336943 
L 467.472666 161.379627 
L 467.989403 160.099615 
L 468.50614 159.840279 
L 469.539613 156.654912 
L 470.573086 154.652877 
L 471.089823 154.130887 
L 471.606559 154.113197 
L 472.123296 153.778844 
L 473.673506 153.57375 
L 474.190242 152.783206 
L 474.706979 151.773519 
L 475.740452 151.312417 
L 476.257189 151.223433 
L 476.773925 150.65028 
L 477.290662 149.001892 
L 477.807399 148.156261 
L 478.324135 145.118615 
L 478.840872 143.061945 
L 479.357608 142.676014 
L 479.874345 142.493566 
L 480.907818 141.249988 
L 481.424555 141.179257 
L 481.941291 140.844406 
L 482.458028 140.369217 
L 483.491501 140.307986 
L 484.008238 139.459028 
L 484.524974 139.1659 
L 485.041711 138.119127 
L 485.558448 137.326202 
L 486.075184 137.165995 
L 486.591921 136.736797 
L 487.108657 136.509374 
L 488.142131 136.376058 
L 489.175604 136.2266 
L 489.69234 135.734849 
L 490.725814 135.559372 
L 491.24255 135.313665 
L 491.759287 135.303889 
L 492.79276 134.800458 
L 493.309497 133.682517 
L 494.34297 133.492412 
L 494.859706 133.41713 
L 495.376443 132.996978 
L 495.89318 132.78556 
L 496.409916 131.998826 
L 496.926653 130.925039 
L 497.443389 130.659019 
L 498.476863 130.536095 
L 498.993599 130.344217 
L 500.027072 130.303081 
L 500.543809 129.950259 
L 501.577282 129.576005 
L 502.094019 129.553282 
L 502.610755 129.315434 
L 503.127492 128.668683 
L 503.644229 128.371349 
L 505.194439 127.981357 
L 505.711175 127.721968 
L 506.227912 127.71903 
L 507.778122 126.156514 
L 508.294858 125.248895 
L 508.811595 124.695097 
L 509.845068 122.810057 
L 510.361805 122.800804 
L 510.878541 122.028039 
L 511.912014 121.41068 
L 512.428751 121.279316 
L 512.945488 120.698361 
L 513.462224 120.647865 
L 514.495697 119.432277 
L 515.012434 119.429106 
L 515.529171 119.262877 
L 516.045907 119.238948 
L 517.596117 118.707158 
L 519.146327 117.706954 
L 521.213273 116.614665 
L 522.246746 116.585543 
L 522.763483 116.287891 
L 524.313693 115.917219 
L 524.830429 115.835145 
L 525.347166 115.35034 
L 527.930849 114.995779 
L 528.447586 114.736473 
L 528.964322 114.729667 
L 529.997796 114.075852 
L 531.031269 113.780508 
L 532.064742 113.04285 
L 532.581479 112.935167 
L 534.648425 111.132358 
L 536.715371 110.915021 
L 537.232108 110.765211 
L 537.748845 110.325586 
L 538.265581 110.223763 
L 538.782318 109.857382 
L 539.815791 109.496316 
L 540.849264 109.402292 
L 541.366001 109.226874 
L 542.399474 109.206607 
L 543.432947 108.729451 
L 544.46642 108.690642 
L 544.983157 108.297762 
L 548.083577 108.136597 
L 548.600313 107.761439 
L 549.11705 107.726532 
L 549.633786 107.519146 
L 550.150523 107.171067 
L 550.66726 106.976414 
L 553.250943 106.785568 
L 555.317889 106.064058 
L 556.868099 105.850026 
L 559.451782 105.144433 
L 560.485255 105.088372 
L 561.001992 104.91544 
L 562.552202 104.854967 
L 563.585675 104.351375 
L 566.686094 104.112589 
L 567.202831 104.043974 
L 567.719568 103.845363 
L 569.269777 103.680157 
L 571.85346 103.249759 
L 576.50409 102.997084 
L 577.020826 102.864641 
L 579.087773 102.73463 
L 582.188193 102.347903 
L 583.221666 102.13547 
L 585.288612 101.863711 
L 587.355559 101.658624 
L 588.905768 101.518412 
L 593.556398 101.126617 
L 594.589871 100.921771 
L 595.623344 100.856979 
L 596.140081 100.684062 
L 597.173554 100.651002 
L 597.690291 100.358666 
L 598.207027 100.32382 
L 599.2405 99.889698 
L 600.273974 99.766832 
L 601.307447 99.625291 
L 601.824183 99.380927 
L 602.857657 99.253156 
L 603.89113 99.010905 
L 606.991549 98.885673 
L 611.125442 98.139524 
L 612.158916 97.958316 
L 613.709125 97.888116 
L 615.259335 97.794943 
L 616.292808 97.585636 
L 617.326282 97.402929 
L 618.359755 97.348466 
L 619.393228 97.133785 
L 621.460174 96.862529 
L 621.976911 96.538787 
L 627.144277 96.07905 
L 629.211223 95.938249 
L 630.761433 95.746231 
L 631.794906 95.627364 
L 633.345116 95.359487 
L 635.928799 95.089013 
L 636.445536 94.735335 
L 637.479009 94.39438 
L 638.512482 94.199147 
L 640.062692 93.745346 
L 640.579429 93.744439 
L 641.612902 93.308621 
L 642.129639 93.204999 
L 642.646375 92.902622 
L 644.713322 92.558557 
L 645.230058 92.168888 
L 645.746795 91.954327 
L 646.263531 91.934851 
L 648.330478 90.996778 
L 649.363951 90.899929 
L 649.880688 90.387952 
L 650.914161 90.014816 
L 651.947634 89.861835 
L 652.981107 89.229338 
L 654.531317 88.712515 
L 655.048054 88.68728 
L 656.081527 88.38041 
L 656.598263 87.879778 
L 657.631737 87.566173 
L 658.148473 85.897293 
L 659.698683 85.764242 
L 662.282366 85.43378 
L 662.799103 85.236737 
L 663.832576 85.177423 
L 664.349313 85.019428 
L 665.899522 84.872574 
L 667.449732 84.302576 
L 668.483205 84.231304 
L 668.999942 84.187623 
L 671.583625 83.319354 
L 672.100362 83.245747 
L 672.617098 82.782687 
L 673.650571 82.482683 
L 674.167308 82.193695 
L 674.684045 71.038928 
L 675.717518 70.938857 
L 680.368147 70.176707 
L 680.884884 69.972833 
L 681.40162 69.581432 
L 681.918357 63.506177 
L 682.435094 63.234379 
L 683.468567 63.138818 
L 685.018777 62.814996 
L 685.535513 62.395009 
L 686.05225 62.258707 
L 686.568987 61.552368 
L 687.085723 61.493601 
L 687.60246 35.073373 
L 688.635933 34.967627 
L 692.253089 34.850217 
L 696.386982 34.572284 
L 696.903719 34.444302 
L 696.903719 34.444302 
" style="fill:none;stroke:#1f77b4;stroke-linecap:square;stroke-width:3;"/>
   </g>
   <g id="line2d_82">
    <path clip-path="url(#pd52deb95e9)" d="M 439.052153 203.107823 
L 439.56889 202.573805 
L 440.085626 202.408334 
L 441.1191 201.779311 
L 441.635836 200.48741 
L 442.152573 199.865655 
L 442.669309 199.488888 
L 443.186046 198.893868 
L 443.702783 198.543404 
L 444.219519 198.478431 
L 444.736256 196.501617 
L 445.252992 196.430982 
L 445.769729 195.607593 
L 446.286466 194.306316 
L 446.803202 194.19022 
L 447.319939 193.328052 
L 448.353412 190.473368 
L 449.386885 188.7876 
L 449.903622 187.00071 
L 450.420358 186.988495 
L 450.937095 186.149229 
L 452.487305 182.660002 
L 453.520778 176.95564 
L 454.037515 176.575759 
L 455.070988 176.450806 
L 456.104461 176.300378 
L 456.621198 175.620777 
L 457.137934 175.581643 
L 457.654671 174.867039 
L 458.171408 174.637918 
L 458.688144 170.709769 
L 459.204881 169.403007 
L 459.721617 168.547494 
L 460.238354 165.003605 
L 460.755091 163.884423 
L 461.271827 163.585793 
L 461.788564 162.473711 
L 462.3053 162.099314 
L 462.822037 161.990101 
L 463.338774 161.032398 
L 464.372247 160.905854 
L 464.888983 160.034883 
L 465.40572 159.870284 
L 465.922457 156.002402 
L 466.95593 154.873664 
L 467.472666 154.860247 
L 467.989403 154.464454 
L 468.50614 153.386879 
L 469.022876 153.343535 
L 469.539613 152.913014 
L 470.573086 152.701972 
L 471.089823 151.640918 
L 472.123296 151.555657 
L 473.156769 150.54792 
L 473.673506 150.392263 
L 474.190242 149.992393 
L 475.740452 146.394714 
L 476.257189 146.205491 
L 477.290662 145.242029 
L 478.324135 145.12947 
L 478.840872 144.302736 
L 479.357608 143.799863 
L 480.391082 143.321651 
L 480.907818 143.063483 
L 481.424555 143.05774 
L 482.458028 142.348883 
L 482.974765 142.168598 
L 483.491501 141.806772 
L 484.008238 141.271375 
L 484.524974 140.413453 
L 485.041711 140.087328 
L 486.075184 140.032498 
L 486.591921 139.536995 
L 487.108657 139.502155 
L 487.625394 139.202263 
L 488.142131 138.543125 
L 489.175604 137.764293 
L 490.725814 137.584457 
L 491.24255 137.549344 
L 491.759287 136.880406 
L 492.276023 136.854355 
L 492.79276 136.530004 
L 493.309497 136.519352 
L 494.34297 135.805639 
L 494.859706 135.804257 
L 495.376443 135.101166 
L 495.89318 134.959458 
L 496.409916 134.59112 
L 496.926653 134.570561 
L 497.443389 134.222673 
L 497.960126 134.111578 
L 498.476863 133.485091 
L 499.510336 133.169858 
L 500.027072 133.154045 
L 500.543809 132.824776 
L 501.577282 132.724128 
L 502.610755 132.273937 
L 503.127492 131.673991 
L 504.160965 131.568225 
L 504.677702 131.280589 
L 505.194439 130.834002 
L 505.711175 130.647641 
L 506.744648 130.542907 
L 507.261385 129.897946 
L 507.778122 129.879931 
L 508.294858 129.701066 
L 508.811595 128.760038 
L 509.328331 128.336685 
L 509.845068 128.318238 
L 510.361805 128.095499 
L 510.878541 128.090839 
L 511.395278 127.943558 
L 512.428751 127.929754 
L 512.945488 127.394439 
L 513.978961 127.347226 
L 514.495697 127.162368 
L 515.012434 126.773326 
L 515.529171 126.652968 
L 516.562644 126.239786 
L 517.07938 125.218082 
L 517.596117 124.669817 
L 521.213273 123.203555 
L 521.73001 122.860044 
L 522.246746 122.748709 
L 522.763483 122.367658 
L 523.28022 122.275566 
L 523.796956 121.988961 
L 524.830429 121.911569 
L 525.347166 121.544858 
L 527.414112 121.203809 
L 527.930849 120.917159 
L 528.964322 120.843491 
L 529.481059 120.169155 
L 529.997796 119.709702 
L 530.514532 119.418903 
L 531.031269 119.395407 
L 532.581479 118.75141 
L 534.131688 118.683463 
L 535.681898 118.242142 
L 536.715371 117.548224 
L 538.265581 117.499926 
L 540.332528 116.644453 
L 541.882737 116.42782 
L 542.399474 116.133641 
L 543.949684 115.981423 
L 544.983157 115.695122 
L 546.01663 115.51499 
L 547.050103 115.357799 
L 547.56684 115.226156 
L 548.600313 115.101 
L 549.633786 114.930421 
L 550.150523 114.91805 
L 551.183996 114.649249 
L 551.700733 114.562293 
L 552.217469 114.146052 
L 553.250943 114.058739 
L 553.767679 113.885106 
L 555.317889 113.775527 
L 556.351362 113.674077 
L 557.384836 113.540713 
L 557.901572 113.193356 
L 558.418309 113.018611 
L 560.485255 112.911682 
L 561.518728 112.268976 
L 564.102411 112.14125 
L 566.169358 111.946175 
L 568.753041 111.822859 
L 570.819987 111.610602 
L 571.85346 111.22516 
L 572.370197 111.220587 
L 573.920407 110.923015 
L 575.987353 110.822755 
L 577.020826 110.486199 
L 577.537563 110.455969 
L 579.087773 110.098626 
L 584.255139 109.348317 
L 585.805349 109.212049 
L 586.322085 109.067398 
L 588.389032 108.941676 
L 588.905768 108.872483 
L 589.422505 108.613651 
L 590.455978 108.433898 
L 592.006188 108.304851 
L 597.690291 107.962875 
L 599.2405 107.546895 
L 600.273974 107.47783 
L 601.824183 107.239158 
L 603.374393 107.185988 
L 604.407866 106.949172 
L 606.474813 106.85207 
L 606.991549 106.664225 
L 610.091969 106.368768 
L 611.125442 106.081716 
L 611.642179 105.930257 
L 613.709125 105.856281 
L 614.225862 105.281847 
L 615.259335 105.173099 
L 616.292808 105.051411 
L 616.809545 104.58401 
L 617.843018 104.530402 
L 618.876491 104.257114 
L 620.943438 104.189666 
L 621.976911 104.104828 
L 623.010384 104.005508 
L 630.244697 103.036798 
L 630.761433 102.853348 
L 631.794906 102.754737 
L 633.345116 102.40172 
L 634.37859 102.165368 
L 636.962273 101.847155 
L 638.512482 101.713765 
L 640.579429 101.299241 
L 642.129639 101.149769 
L 644.713322 100.622408 
L 645.746795 100.208823 
L 647.297005 100.011319 
L 648.847214 99.930009 
L 649.880688 99.700693 
L 650.397424 99.697193 
L 651.430897 99.483801 
L 651.947634 99.454086 
L 652.464371 99.291398 
L 652.981107 98.853193 
L 653.497844 98.741567 
L 654.01458 98.439361 
L 655.048054 98.287796 
L 656.081527 98.189835 
L 656.598263 97.887499 
L 658.66521 97.633368 
L 659.698683 97.572183 
L 660.732156 97.090561 
L 664.349313 96.805888 
L 665.382786 96.577057 
L 666.416259 96.432539 
L 667.449732 96.330172 
L 668.483205 96.09792 
L 674.684045 95.111516 
L 676.234254 94.58339 
L 676.750991 94.399637 
L 677.784464 94.295016 
L 678.301201 94.098782 
L 679.851411 93.086718 
L 680.368147 93.059874 
L 682.435094 92.222515 
L 682.95183 91.277504 
L 683.468567 91.237584 
L 683.985303 90.648104 
L 685.018777 90.60141 
L 686.05225 89.634242 
L 686.568987 88.944563 
L 687.60246 86.962975 
L 688.119196 86.622554 
L 688.635933 85.964165 
L 689.15267 84.128178 
L 690.186143 82.424118 
L 690.702879 82.370429 
L 691.219616 81.132049 
L 691.736353 79.264508 
L 692.253089 79.232181 
L 692.769826 78.920695 
L 693.286562 73.010401 
L 693.803299 72.146553 
L 694.320036 70.46711 
L 694.836772 70.429882 
L 695.353509 62.211367 
L 695.870245 61.879875 
L 696.386982 41.657118 
L 696.903719 33.563809 
L 696.903719 33.563809 
" style="fill:none;stroke:#ff7f0e;stroke-linecap:square;stroke-width:3;"/>
   </g>
   <g id="line2d_83">
    <path clip-path="url(#pd52deb95e9)" d="M 439.052153 201.803883 
L 439.56889 201.445929 
L 440.085626 201.378259 
L 440.602363 200.311924 
L 441.1191 199.947251 
L 442.152573 197.852871 
L 442.669309 197.504792 
L 443.186046 197.408431 
L 443.702783 196.794499 
L 444.736256 196.372836 
L 445.252992 196.190718 
L 445.769729 193.918723 
L 446.286466 193.26449 
L 447.319939 190.744721 
L 448.870149 190.352169 
L 449.386885 188.71381 
L 449.903622 186.475727 
L 450.420358 186.198898 
L 450.937095 185.530569 
L 451.970568 185.317747 
L 452.487305 184.007793 
L 453.004042 177.826171 
L 453.520778 176.661966 
L 454.037515 176.611326 
L 454.554251 176.154412 
L 455.070988 175.993357 
L 455.587725 175.963633 
L 456.104461 175.79714 
L 456.621198 175.783253 
L 457.137934 175.345631 
L 457.654671 175.070826 
L 458.171408 174.93194 
L 458.688144 173.279445 
L 459.204881 170.774926 
L 459.721617 170.433183 
L 460.238354 169.08651 
L 460.755091 168.428315 
L 461.271827 166.788959 
L 461.788564 166.696542 
L 462.3053 165.5251 
L 462.822037 165.190368 
L 463.338774 164.222848 
L 463.85551 163.864784 
L 464.372247 163.331216 
L 465.40572 162.668904 
L 465.922457 161.054325 
L 466.439193 160.934088 
L 466.95593 160.193259 
L 467.989403 159.954212 
L 469.022876 158.433972 
L 469.539613 156.867862 
L 470.056349 154.638369 
L 470.573086 153.763362 
L 471.089823 153.35492 
L 471.606559 151.907932 
L 473.156769 151.532568 
L 473.673506 151.504241 
L 474.190242 151.284982 
L 476.257189 149.610215 
L 477.290662 148.613014 
L 477.807399 148.34881 
L 478.324135 147.04396 
L 478.840872 146.944842 
L 479.874345 146.143383 
L 480.391082 146.07969 
L 480.907818 145.480414 
L 481.424555 144.286051 
L 481.941291 143.702905 
L 482.974765 143.549094 
L 483.491501 143.204833 
L 484.008238 142.416768 
L 484.524974 142.300982 
L 485.041711 141.366039 
L 485.558448 141.274769 
L 486.075184 140.028563 
L 487.108657 139.188034 
L 487.625394 138.444833 
L 488.142131 138.088598 
L 488.658867 137.399462 
L 489.175604 137.375895 
L 489.69234 137.12085 
L 490.209077 136.603548 
L 491.759287 136.491391 
L 494.34297 135.834543 
L 494.859706 135.470578 
L 495.89318 135.299443 
L 496.926653 134.807916 
L 497.443389 134.615167 
L 497.960126 134.28061 
L 499.510336 134.041911 
L 500.027072 133.721987 
L 501.060546 133.62641 
L 501.577282 133.276293 
L 503.127492 133.050077 
L 503.644229 132.757579 
L 505.711175 132.552974 
L 506.227912 131.898493 
L 507.261385 131.69838 
L 507.778122 131.691389 
L 508.294858 131.476264 
L 508.811595 131.475829 
L 509.328331 131.060132 
L 510.361805 130.903846 
L 510.878541 130.599422 
L 511.912014 130.296487 
L 512.945488 129.596958 
L 513.462224 129.478849 
L 514.495697 129.019031 
L 515.529171 128.697602 
L 517.596117 127.785405 
L 518.112854 127.76006 
L 518.62959 127.391969 
L 520.1798 127.103149 
L 520.696537 126.73565 
L 522.246746 124.837706 
L 524.313693 124.116709 
L 524.830429 123.81671 
L 525.347166 123.664124 
L 525.863903 123.664115 
L 526.897376 123.271297 
L 527.414112 123.066249 
L 527.930849 122.626609 
L 529.481059 122.420735 
L 529.997796 121.966951 
L 530.514532 121.674359 
L 531.548005 121.524578 
L 532.581479 120.679699 
L 533.098215 120.463079 
L 534.648425 120.293573 
L 535.165162 119.956653 
L 536.715371 119.703896 
L 537.748845 118.983696 
L 538.782318 118.889858 
L 539.299054 118.620187 
L 540.332528 118.519627 
L 540.849264 117.767149 
L 542.399474 117.409919 
L 542.916211 117.328719 
L 543.432947 116.986727 
L 544.983157 116.90007 
L 545.499894 116.657352 
L 546.01663 116.654859 
L 546.533367 116.503115 
L 547.56684 116.405338 
L 548.083577 116.130724 
L 548.600313 116.092373 
L 549.633786 115.691205 
L 550.150523 115.597207 
L 550.66726 115.2304 
L 551.700733 115.183332 
L 552.217469 115.047987 
L 552.734206 114.772586 
L 553.250943 114.252879 
L 554.801152 113.976775 
L 555.317889 113.57394 
L 555.834626 113.317101 
L 557.384836 113.175793 
L 557.901572 112.790065 
L 560.485255 112.42666 
L 561.518728 111.970141 
L 562.552202 111.8921 
L 565.135885 111.343427 
L 565.652621 110.924161 
L 566.686094 110.809358 
L 567.202831 110.754252 
L 567.719568 110.508353 
L 568.236304 110.477998 
L 568.753041 110.22781 
L 570.303251 110.121586 
L 571.336724 110.033462 
L 571.85346 109.989201 
L 572.370197 109.804524 
L 573.920407 109.65809 
L 577.020826 109.345553 
L 577.537563 109.133282 
L 578.0543 109.092407 
L 578.571036 108.924937 
L 582.188193 108.655287 
L 582.704929 108.408158 
L 586.322085 108.074289 
L 589.422505 107.659665 
L 590.455978 107.558212 
L 590.972715 107.389005 
L 594.073134 107.273549 
L 595.106608 106.952851 
L 595.623344 106.739379 
L 596.140081 106.68543 
L 596.656817 106.183168 
L 597.690291 105.728073 
L 598.207027 105.676139 
L 598.723764 105.445896 
L 599.757237 105.354955 
L 603.374393 104.663264 
L 605.958076 104.496235 
L 608.025023 104.408796 
L 609.058496 104.300264 
L 610.091969 104.059069 
L 612.158916 103.945498 
L 612.675652 103.751506 
L 613.192389 103.72892 
L 613.709125 103.566978 
L 617.326282 103.33942 
L 618.876491 102.919388 
L 620.943438 102.783482 
L 621.460174 102.615773 
L 621.976911 102.322009 
L 625.594067 101.985203 
L 626.110804 101.826198 
L 627.144277 101.715292 
L 630.244697 101.252088 
L 631.27817 101.134516 
L 632.82838 100.998765 
L 633.345116 100.86808 
L 634.37859 100.751664 
L 642.646375 100.176635 
L 643.163112 100.043624 
L 644.713322 99.901416 
L 645.746795 99.810158 
L 648.847214 99.454604 
L 649.363951 99.143594 
L 651.430897 98.829248 
L 652.464371 98.748992 
L 652.981107 98.222481 
L 655.048054 97.742836 
L 657.631737 97.497877 
L 658.66521 97.310748 
L 659.698683 97.257925 
L 660.21542 97.02853 
L 661.248893 96.897076 
L 662.799103 96.771219 
L 664.866049 96.36598 
L 666.932996 96.185236 
L 667.449732 95.998676 
L 669.516679 95.856753 
L 670.550152 95.645951 
L 671.066888 95.421652 
L 672.100362 95.360882 
L 672.617098 94.91951 
L 673.133835 94.890792 
L 673.650571 94.423668 
L 674.684045 94.346058 
L 675.200781 93.876353 
L 675.717518 93.668365 
L 676.750991 93.562037 
L 678.817937 92.978598 
L 679.851411 92.285899 
L 680.368147 92.23726 
L 680.884884 92.014711 
L 681.40162 91.27025 
L 682.435094 90.740302 
L 683.468567 90.618092 
L 683.985303 90.321462 
L 685.535513 90.146865 
L 686.05225 89.54508 
L 686.568987 88.76197 
L 687.60246 88.380951 
L 688.119196 87.696416 
L 689.15267 87.353385 
L 689.669406 87.044042 
L 690.186143 86.283908 
L 690.702879 85.736509 
L 691.736353 83.987519 
L 692.769826 82.927739 
L 693.286562 81.60479 
L 693.803299 81.304797 
L 694.320036 70.558095 
L 694.836772 69.616489 
L 695.353509 63.17817 
L 695.870245 63.123393 
L 696.903719 62.723472 
L 696.903719 62.723472 
" style="fill:none;stroke:#2ca02c;stroke-linecap:square;stroke-width:3;"/>
   </g>
   <g id="patch_9">
    <path d="M 426.159575 243.02976 
L 426.159575 23.58924 
" style="fill:none;stroke:#000000;stroke-linecap:square;stroke-linejoin:miter;stroke-width:0.8;"/>
   </g>
   <g id="patch_10">
    <path d="M 709.796297 243.02976 
L 709.796297 23.58924 
" style="fill:none;stroke:#000000;stroke-linecap:square;stroke-linejoin:miter;stroke-width:0.8;"/>
   </g>
   <g id="patch_11">
    <path d="M 426.159575 243.02976 
L 709.796297 243.02976 
" style="fill:none;stroke:#000000;stroke-linecap:square;stroke-linejoin:miter;stroke-width:0.8;"/>
   </g>
   <g id="patch_12">
    <path d="M 426.159575 23.58924 
L 709.796297 23.58924 
" style="fill:none;stroke:#000000;stroke-linecap:square;stroke-linejoin:miter;stroke-width:0.8;"/>
   </g>
   <g id="text_27">
    <!-- Query Latency CDF (log scale) -->
    <g transform="translate(422.170436 17.58924)scale(0.192 -0.192)">
     <use xlink:href="#DejaVuSans-81"/>
     <use x="78.710938" xlink:href="#DejaVuSans-117"/>
     <use x="142.089844" xlink:href="#DejaVuSans-101"/>
     <use x="203.613281" xlink:href="#DejaVuSans-114"/>
     <use x="244.726562" xlink:href="#DejaVuSans-121"/>
     <use x="303.90625" xlink:href="#DejaVuSans-32"/>
     <use x="335.693359" xlink:href="#DejaVuSans-76"/>
     <use x="391.40625" xlink:href="#DejaVuSans-97"/>
     <use x="452.685547" xlink:href="#DejaVuSans-116"/>
     <use x="491.894531" xlink:href="#DejaVuSans-101"/>
     <use x="553.417969" xlink:href="#DejaVuSans-110"/>
     <use x="616.796875" xlink:href="#DejaVuSans-99"/>
     <use x="671.777344" xlink:href="#DejaVuSans-121"/>
     <use x="730.957031" xlink:href="#DejaVuSans-32"/>
     <use x="762.744141" xlink:href="#DejaVuSans-67"/>
     <use x="832.568359" xlink:href="#DejaVuSans-68"/>
     <use x="909.570312" xlink:href="#DejaVuSans-70"/>
     <use x="967.089844" xlink:href="#DejaVuSans-32"/>
     <use x="998.876953" xlink:href="#DejaVuSans-40"/>
     <use x="1037.890625" xlink:href="#DejaVuSans-108"/>
     <use x="1065.673828" xlink:href="#DejaVuSans-111"/>
     <use x="1126.855469" xlink:href="#DejaVuSans-103"/>
     <use x="1190.332031" xlink:href="#DejaVuSans-32"/>
     <use x="1222.119141" xlink:href="#DejaVuSans-115"/>
     <use x="1274.21875" xlink:href="#DejaVuSans-99"/>
     <use x="1329.199219" xlink:href="#DejaVuSans-97"/>
     <use x="1390.478516" xlink:href="#DejaVuSans-108"/>
     <use x="1418.261719" xlink:href="#DejaVuSans-101"/>
     <use x="1479.785156" xlink:href="#DejaVuSans-41"/>
    </g>
   </g>
   <g id="legend_2">
    <g id="patch_13">
     <path d="M 485.236297 235.02976 
L 698.596297 235.02976 
Q 701.796297 235.02976 701.796297 231.82976 
L 701.796297 162.97476 
Q 701.796297 159.77476 698.596297 159.77476 
L 485.236297 159.77476 
Q 482.036297 159.77476 482.036297 162.97476 
L 482.036297 231.82976 
Q 482.036297 235.02976 485.236297 235.02976 
z
" style="fill:#ffffff;opacity:0.8;stroke:#cccccc;stroke-linejoin:miter;"/>
    </g>
    <g id="line2d_84">
     <path d="M 488.436297 172.73226 
L 520.436297 172.73226 
" style="fill:none;stroke:#1f77b4;stroke-linecap:square;stroke-width:3;"/>
    </g>
    <g id="line2d_85"/>
    <g id="text_28">
     <!-- PostgreSQL -->
     <g transform="translate(533.236297 178.33226)scale(0.16 -0.16)">
      <use xlink:href="#DejaVuSans-80"/>
      <use x="56.677734" xlink:href="#DejaVuSans-111"/>
      <use x="117.859375" xlink:href="#DejaVuSans-115"/>
      <use x="169.958984" xlink:href="#DejaVuSans-116"/>
      <use x="209.167969" xlink:href="#DejaVuSans-103"/>
      <use x="272.644531" xlink:href="#DejaVuSans-114"/>
      <use x="311.507812" xlink:href="#DejaVuSans-101"/>
      <use x="373.03125" xlink:href="#DejaVuSans-83"/>
      <use x="436.507812" xlink:href="#DejaVuSans-81"/>
      <use x="515.21875" xlink:href="#DejaVuSans-76"/>
     </g>
    </g>
    <g id="line2d_86">
     <path d="M 488.436297 196.21726 
L 520.436297 196.21726 
" style="fill:none;stroke:#ff7f0e;stroke-linecap:square;stroke-width:3;"/>
    </g>
    <g id="line2d_87"/>
    <g id="text_29">
     <!-- Bao -->
     <g transform="translate(533.236297 201.81726)scale(0.16 -0.16)">
      <use xlink:href="#DejaVuSans-66"/>
      <use x="68.603516" xlink:href="#DejaVuSans-97"/>
      <use x="129.882812" xlink:href="#DejaVuSans-111"/>
     </g>
    </g>
    <g id="line2d_88">
     <path d="M 488.436297 219.70226 
L 520.436297 219.70226 
" style="fill:none;stroke:#2ca02c;stroke-linecap:square;stroke-width:3;"/>
    </g>
    <g id="line2d_89"/>
    <g id="text_30">
     <!-- Bao (w/ exploration) -->
     <g transform="translate(533.236297 225.30226)scale(0.16 -0.16)">
      <use xlink:href="#DejaVuSans-66"/>
      <use x="68.603516" xlink:href="#DejaVuSans-97"/>
      <use x="129.882812" xlink:href="#DejaVuSans-111"/>
      <use x="191.064453" xlink:href="#DejaVuSans-32"/>
      <use x="222.851562" xlink:href="#DejaVuSans-40"/>
      <use x="261.865234" xlink:href="#DejaVuSans-119"/>
      <use x="343.652344" xlink:href="#DejaVuSans-47"/>
      <use x="377.34375" xlink:href="#DejaVuSans-32"/>
      <use x="409.130859" xlink:href="#DejaVuSans-101"/>
      <use x="468.904297" xlink:href="#DejaVuSans-120"/>
      <use x="528.083984" xlink:href="#DejaVuSans-112"/>
      <use x="591.560547" xlink:href="#DejaVuSans-108"/>
      <use x="619.34375" xlink:href="#DejaVuSans-111"/>
      <use x="680.525391" xlink:href="#DejaVuSans-114"/>
      <use x="721.638672" xlink:href="#DejaVuSans-97"/>
      <use x="782.917969" xlink:href="#DejaVuSans-116"/>
      <use x="822.126953" xlink:href="#DejaVuSans-105"/>
      <use x="849.910156" xlink:href="#DejaVuSans-111"/>
      <use x="911.091797" xlink:href="#DejaVuSans-110"/>
      <use x="974.470703" xlink:href="#DejaVuSans-41"/>
     </g>
    </g>
   </g>
  </g>
 </g>
 <defs>
  <clipPath id="p97f6c91c58">
   <rect height="219.44052" width="283.636722" x="60.02524" y="23.58924"/>
  </clipPath>
  <clipPath id="pd52deb95e9">
   <rect height="219.44052" width="283.636722" x="426.159575" y="23.58924"/>
  </clipPath>
 </defs>
</svg>
