<?xml version="1.0" encoding="utf-8" standalone="no"?>
<!DOCTYPE svg PUBLIC "-//W3C//DTD SVG 1.1//EN"
  "http://www.w3.org/Graphics/SVG/1.1/DTD/svg11.dtd">
<!-- Created with matplotlib (https://matplotlib.org/) -->
<svg height="288pt" version="1.1" viewBox="0 0 432 288" width="432pt" xmlns="http://www.w3.org/2000/svg" xmlns:xlink="http://www.w3.org/1999/xlink">
 <defs>
  <style type="text/css">
*{stroke-linecap:butt;stroke-linejoin:round;}
  </style>
 </defs>
 <g id="figure_1">
  <g id="patch_1">
   <path d="M 0 288 
L 432 288 
L 432 0 
L 0 0 
z
" style="fill:#ffffff;"/>
  </g>
  <g id="axes_1">
   <g id="patch_2">
    <path d="M 60.02524 243.02976 
L 428.99976 243.02976 
L 428.99976 23.58924 
L 60.02524 23.58924 
z
" style="fill:#ffffff;"/>
   </g>
   <g id="PathCollection_1">
    <defs>
     <path d="M 0 3.354102 
C 0.889518 3.354102 1.742724 3.000693 2.371708 2.371708 
C 3.000693 1.742724 3.354102 0.889518 3.354102 0 
C 3.354102 -0.889518 3.000693 -1.742724 2.371708 -2.371708 
C 1.742724 -3.000693 0.889518 -3.354102 0 -3.354102 
C -0.889518 -3.354102 -1.742724 -3.000693 -2.371708 -2.371708 
C -3.000693 -1.742724 -3.354102 -0.889518 -3.354102 0 
C -3.354102 0.889518 -3.000693 1.742724 -2.371708 2.371708 
C -1.742724 3.000693 -0.889518 3.354102 0 3.354102 
z
" id="mcb11476796" style="stroke:#ff0000;"/>
    </defs>
    <g clip-path="url(#pc0eab0c1c4)">
     <use style="fill:#ff0000;stroke:#ff0000;" x="86.948225" xlink:href="#mcb11476796" y="223.460415"/>
     <use style="fill:#ff0000;stroke:#ff0000;" x="97.661837" xlink:href="#mcb11476796" y="213.465857"/>
     <use style="fill:#ff0000;stroke:#ff0000;" x="103.048051" xlink:href="#mcb11476796" y="203.471299"/>
     <use style="fill:#ff0000;stroke:#ff0000;" x="110.832902" xlink:href="#mcb11476796" y="193.47674"/>
     <use style="fill:#ff0000;stroke:#ff0000;" x="123.346153" xlink:href="#mcb11476796" y="183.482182"/>
     <use style="fill:#ff0000;stroke:#ff0000;" x="128.093782" xlink:href="#mcb11476796" y="173.487624"/>
     <use style="fill:#ff0000;stroke:#ff0000;" x="137.464433" xlink:href="#mcb11476796" y="163.493066"/>
     <use style="fill:#ff0000;stroke:#ff0000;" x="144.206018" xlink:href="#mcb11476796" y="153.498508"/>
     <use style="fill:#ff0000;stroke:#ff0000;" x="151.147793" xlink:href="#mcb11476796" y="143.503949"/>
     <use style="fill:#ff0000;stroke:#ff0000;" x="156.044176" xlink:href="#mcb11476796" y="133.509391"/>
     <use style="fill:#ff0000;stroke:#ff0000;" x="161.823727" xlink:href="#mcb11476796" y="123.514833"/>
     <use style="fill:#ff0000;stroke:#ff0000;" x="167.850645" xlink:href="#mcb11476796" y="113.520275"/>
     <use style="fill:#ff0000;stroke:#ff0000;" x="173.190657" xlink:href="#mcb11476796" y="103.525717"/>
     <use style="fill:#ff0000;stroke:#ff0000;" x="180.066225" xlink:href="#mcb11476796" y="93.531158"/>
     <use style="fill:#ff0000;stroke:#ff0000;" x="186.35079" xlink:href="#mcb11476796" y="83.5366"/>
     <use style="fill:#ff0000;stroke:#ff0000;" x="190.205121" xlink:href="#mcb11476796" y="73.542042"/>
     <use style="fill:#ff0000;stroke:#ff0000;" x="197.035848" xlink:href="#mcb11476796" y="63.547484"/>
     <use style="fill:#ff0000;stroke:#ff0000;" x="212.511413" xlink:href="#mcb11476796" y="53.552926"/>
     <use style="fill:#ff0000;stroke:#ff0000;" x="217.030949" xlink:href="#mcb11476796" y="43.558367"/>
    </g>
   </g>
   <g id="PathCollection_2">
    <g clip-path="url(#pc0eab0c1c4)">
     <use style="fill:#ff0000;stroke:#ff0000;" x="86.215641" xlink:href="#mcb11476796" y="223.460415"/>
     <use style="fill:#ff0000;stroke:#ff0000;" x="93.504152" xlink:href="#mcb11476796" y="213.465857"/>
     <use style="fill:#ff0000;stroke:#ff0000;" x="100.290003" xlink:href="#mcb11476796" y="203.471299"/>
     <use style="fill:#ff0000;stroke:#ff0000;" x="107.711545" xlink:href="#mcb11476796" y="193.47674"/>
     <use style="fill:#ff0000;stroke:#ff0000;" x="114.94967" xlink:href="#mcb11476796" y="183.482182"/>
     <use style="fill:#ff0000;stroke:#ff0000;" x="121.969238" xlink:href="#mcb11476796" y="173.487624"/>
     <use style="fill:#ff0000;stroke:#ff0000;" x="130.706669" xlink:href="#mcb11476796" y="163.493066"/>
     <use style="fill:#ff0000;stroke:#ff0000;" x="136.44206" xlink:href="#mcb11476796" y="153.498508"/>
     <use style="fill:#ff0000;stroke:#ff0000;" x="144.292756" xlink:href="#mcb11476796" y="143.503949"/>
     <use style="fill:#ff0000;stroke:#ff0000;" x="150.253243" xlink:href="#mcb11476796" y="133.509391"/>
     <use style="fill:#ff0000;stroke:#ff0000;" x="157.945609" xlink:href="#mcb11476796" y="123.514833"/>
     <use style="fill:#ff0000;stroke:#ff0000;" x="164.410558" xlink:href="#mcb11476796" y="113.520275"/>
     <use style="fill:#ff0000;stroke:#ff0000;" x="169.426829" xlink:href="#mcb11476796" y="103.525717"/>
     <use style="fill:#ff0000;stroke:#ff0000;" x="174.955865" xlink:href="#mcb11476796" y="93.531158"/>
     <use style="fill:#ff0000;stroke:#ff0000;" x="181.901686" xlink:href="#mcb11476796" y="83.5366"/>
     <use style="fill:#ff0000;stroke:#ff0000;" x="186.554502" xlink:href="#mcb11476796" y="73.542042"/>
     <use style="fill:#ff0000;stroke:#ff0000;" x="193.169189" xlink:href="#mcb11476796" y="63.547484"/>
     <use style="fill:#ff0000;stroke:#ff0000;" x="204.479438" xlink:href="#mcb11476796" y="53.552926"/>
     <use style="fill:#ff0000;stroke:#ff0000;" x="212.588973" xlink:href="#mcb11476796" y="43.558367"/>
    </g>
   </g>
   <g id="matplotlib.axis_1">
    <g id="xtick_1">
     <g id="line2d_1">
      <path clip-path="url(#pc0eab0c1c4)" d="M 76.796809 243.02976 
L 76.796809 23.58924 
" style="fill:none;stroke:#b0b0b0;stroke-dasharray:3.7,1.6;stroke-dashoffset:0;"/>
     </g>
     <g id="line2d_2">
      <defs>
       <path d="M 0 0 
L 0 3.5 
" id="m5a0295f637" style="stroke:#000000;stroke-width:0.8;"/>
      </defs>
      <g>
       <use style="stroke:#000000;stroke-width:0.8;" x="76.796809" xlink:href="#m5a0295f637" y="243.02976"/>
      </g>
     </g>
     <g id="text_1">
      <!-- 0 -->
      <defs>
       <path d="M 31.78125 66.40625 
Q 24.171875 66.40625 20.328125 58.90625 
Q 16.5 51.421875 16.5 36.375 
Q 16.5 21.390625 20.328125 13.890625 
Q 24.171875 6.390625 31.78125 6.390625 
Q 39.453125 6.390625 43.28125 13.890625 
Q 47.125 21.390625 47.125 36.375 
Q 47.125 51.421875 43.28125 58.90625 
Q 39.453125 66.40625 31.78125 66.40625 
z
M 31.78125 74.21875 
Q 44.046875 74.21875 50.515625 64.515625 
Q 56.984375 54.828125 56.984375 36.375 
Q 56.984375 17.96875 50.515625 8.265625 
Q 44.046875 -1.421875 31.78125 -1.421875 
Q 19.53125 -1.421875 13.0625 8.265625 
Q 6.59375 17.96875 6.59375 36.375 
Q 6.59375 54.828125 13.0625 64.515625 
Q 19.53125 74.21875 31.78125 74.21875 
z
" id="DejaVuSans-48"/>
      </defs>
      <g transform="translate(71.706809 262.18726)scale(0.16 -0.16)">
       <use xlink:href="#DejaVuSans-48"/>
      </g>
     </g>
    </g>
    <g id="xtick_2">
     <g id="line2d_3">
      <path clip-path="url(#pc0eab0c1c4)" d="M 166.796242 243.02976 
L 166.796242 23.58924 
" style="fill:none;stroke:#b0b0b0;stroke-dasharray:3.7,1.6;stroke-dashoffset:0;"/>
     </g>
     <g id="line2d_4">
      <g>
       <use style="stroke:#000000;stroke-width:0.8;" x="166.796242" xlink:href="#m5a0295f637" y="243.02976"/>
      </g>
     </g>
     <g id="text_2">
      <!-- 50 -->
      <defs>
       <path d="M 10.796875 72.90625 
L 49.515625 72.90625 
L 49.515625 64.59375 
L 19.828125 64.59375 
L 19.828125 46.734375 
Q 21.96875 47.46875 24.109375 47.828125 
Q 26.265625 48.1875 28.421875 48.1875 
Q 40.625 48.1875 47.75 41.5 
Q 54.890625 34.8125 54.890625 23.390625 
Q 54.890625 11.625 47.5625 5.09375 
Q 40.234375 -1.421875 26.90625 -1.421875 
Q 22.3125 -1.421875 17.546875 -0.640625 
Q 12.796875 0.140625 7.71875 1.703125 
L 7.71875 11.625 
Q 12.109375 9.234375 16.796875 8.0625 
Q 21.484375 6.890625 26.703125 6.890625 
Q 35.15625 6.890625 40.078125 11.328125 
Q 45.015625 15.765625 45.015625 23.390625 
Q 45.015625 31 40.078125 35.4375 
Q 35.15625 39.890625 26.703125 39.890625 
Q 22.75 39.890625 18.8125 39.015625 
Q 14.890625 38.140625 10.796875 36.28125 
z
" id="DejaVuSans-53"/>
      </defs>
      <g transform="translate(156.616242 262.18726)scale(0.16 -0.16)">
       <use xlink:href="#DejaVuSans-53"/>
       <use x="63.623047" xlink:href="#DejaVuSans-48"/>
      </g>
     </g>
    </g>
    <g id="xtick_3">
     <g id="line2d_5">
      <path clip-path="url(#pc0eab0c1c4)" d="M 256.795674 243.02976 
L 256.795674 23.58924 
" style="fill:none;stroke:#b0b0b0;stroke-dasharray:3.7,1.6;stroke-dashoffset:0;"/>
     </g>
     <g id="line2d_6">
      <g>
       <use style="stroke:#000000;stroke-width:0.8;" x="256.795674" xlink:href="#m5a0295f637" y="243.02976"/>
      </g>
     </g>
     <g id="text_3">
      <!-- 100 -->
      <defs>
       <path d="M 12.40625 8.296875 
L 28.515625 8.296875 
L 28.515625 63.921875 
L 10.984375 60.40625 
L 10.984375 69.390625 
L 28.421875 72.90625 
L 38.28125 72.90625 
L 38.28125 8.296875 
L 54.390625 8.296875 
L 54.390625 0 
L 12.40625 0 
z
" id="DejaVuSans-49"/>
      </defs>
      <g transform="translate(241.525674 262.18726)scale(0.16 -0.16)">
       <use xlink:href="#DejaVuSans-49"/>
       <use x="63.623047" xlink:href="#DejaVuSans-48"/>
       <use x="127.246094" xlink:href="#DejaVuSans-48"/>
      </g>
     </g>
    </g>
    <g id="xtick_4">
     <g id="line2d_7">
      <path clip-path="url(#pc0eab0c1c4)" d="M 346.795106 243.02976 
L 346.795106 23.58924 
" style="fill:none;stroke:#b0b0b0;stroke-dasharray:3.7,1.6;stroke-dashoffset:0;"/>
     </g>
     <g id="line2d_8">
      <g>
       <use style="stroke:#000000;stroke-width:0.8;" x="346.795106" xlink:href="#m5a0295f637" y="243.02976"/>
      </g>
     </g>
     <g id="text_4">
      <!-- 150 -->
      <g transform="translate(331.525106 262.18726)scale(0.16 -0.16)">
       <use xlink:href="#DejaVuSans-49"/>
       <use x="63.623047" xlink:href="#DejaVuSans-53"/>
       <use x="127.246094" xlink:href="#DejaVuSans-48"/>
      </g>
     </g>
    </g>
    <g id="text_5">
     <!-- Time (m) -->
     <defs>
      <path d="M -0.296875 72.90625 
L 61.375 72.90625 
L 61.375 64.59375 
L 35.5 64.59375 
L 35.5 0 
L 25.59375 0 
L 25.59375 64.59375 
L -0.296875 64.59375 
z
" id="DejaVuSans-84"/>
      <path d="M 9.421875 54.6875 
L 18.40625 54.6875 
L 18.40625 0 
L 9.421875 0 
z
M 9.421875 75.984375 
L 18.40625 75.984375 
L 18.40625 64.59375 
L 9.421875 64.59375 
z
" id="DejaVuSans-105"/>
      <path d="M 52 44.1875 
Q 55.375 50.25 60.0625 53.125 
Q 64.75 56 71.09375 56 
Q 79.640625 56 84.28125 50.015625 
Q 88.921875 44.046875 88.921875 33.015625 
L 88.921875 0 
L 79.890625 0 
L 79.890625 32.71875 
Q 79.890625 40.578125 77.09375 44.375 
Q 74.3125 48.1875 68.609375 48.1875 
Q 61.625 48.1875 57.5625 43.546875 
Q 53.515625 38.921875 53.515625 30.90625 
L 53.515625 0 
L 44.484375 0 
L 44.484375 32.71875 
Q 44.484375 40.625 41.703125 44.40625 
Q 38.921875 48.1875 33.109375 48.1875 
Q 26.21875 48.1875 22.15625 43.53125 
Q 18.109375 38.875 18.109375 30.90625 
L 18.109375 0 
L 9.078125 0 
L 9.078125 54.6875 
L 18.109375 54.6875 
L 18.109375 46.1875 
Q 21.1875 51.21875 25.484375 53.609375 
Q 29.78125 56 35.6875 56 
Q 41.65625 56 45.828125 52.96875 
Q 50 49.953125 52 44.1875 
z
" id="DejaVuSans-109"/>
      <path d="M 56.203125 29.59375 
L 56.203125 25.203125 
L 14.890625 25.203125 
Q 15.484375 15.921875 20.484375 11.0625 
Q 25.484375 6.203125 34.421875 6.203125 
Q 39.59375 6.203125 44.453125 7.46875 
Q 49.3125 8.734375 54.109375 11.28125 
L 54.109375 2.78125 
Q 49.265625 0.734375 44.1875 -0.34375 
Q 39.109375 -1.421875 33.890625 -1.421875 
Q 20.796875 -1.421875 13.15625 6.1875 
Q 5.515625 13.8125 5.515625 26.8125 
Q 5.515625 40.234375 12.765625 48.109375 
Q 20.015625 56 32.328125 56 
Q 43.359375 56 49.78125 48.890625 
Q 56.203125 41.796875 56.203125 29.59375 
z
M 47.21875 32.234375 
Q 47.125 39.59375 43.09375 43.984375 
Q 39.0625 48.390625 32.421875 48.390625 
Q 24.90625 48.390625 20.390625 44.140625 
Q 15.875 39.890625 15.1875 32.171875 
z
" id="DejaVuSans-101"/>
      <path id="DejaVuSans-32"/>
      <path d="M 31 75.875 
Q 24.46875 64.65625 21.28125 53.65625 
Q 18.109375 42.671875 18.109375 31.390625 
Q 18.109375 20.125 21.3125 9.0625 
Q 24.515625 -2 31 -13.1875 
L 23.1875 -13.1875 
Q 15.875 -1.703125 12.234375 9.375 
Q 8.59375 20.453125 8.59375 31.390625 
Q 8.59375 42.28125 12.203125 53.3125 
Q 15.828125 64.359375 23.1875 75.875 
z
" id="DejaVuSans-40"/>
      <path d="M 8.015625 75.875 
L 15.828125 75.875 
Q 23.140625 64.359375 26.78125 53.3125 
Q 30.421875 42.28125 30.421875 31.390625 
Q 30.421875 20.453125 26.78125 9.375 
Q 23.140625 -1.703125 15.828125 -13.1875 
L 8.015625 -13.1875 
Q 14.5 -2 17.703125 9.0625 
Q 20.90625 20.125 20.90625 31.390625 
Q 20.90625 42.671875 17.703125 53.65625 
Q 14.5 64.65625 8.015625 75.875 
z
" id="DejaVuSans-41"/>
     </defs>
     <g transform="translate(208.36125 281.67226)scale(0.16 -0.16)">
      <use xlink:href="#DejaVuSans-84"/>
      <use x="57.958984" xlink:href="#DejaVuSans-105"/>
      <use x="85.742188" xlink:href="#DejaVuSans-109"/>
      <use x="183.154297" xlink:href="#DejaVuSans-101"/>
      <use x="244.677734" xlink:href="#DejaVuSans-32"/>
      <use x="276.464844" xlink:href="#DejaVuSans-40"/>
      <use x="315.478516" xlink:href="#DejaVuSans-109"/>
      <use x="412.890625" xlink:href="#DejaVuSans-41"/>
     </g>
    </g>
   </g>
   <g id="matplotlib.axis_2">
    <g id="ytick_1">
     <g id="line2d_9">
      <path clip-path="url(#pc0eab0c1c4)" d="M 60.02524 233.055191 
L 428.99976 233.055191 
" style="fill:none;stroke:#b0b0b0;stroke-dasharray:3.7,1.6;stroke-dashoffset:0;"/>
     </g>
     <g id="line2d_10">
      <defs>
       <path d="M 0 0 
L -3.5 0 
" id="m5ab1169671" style="stroke:#000000;stroke-width:0.8;"/>
      </defs>
      <g>
       <use style="stroke:#000000;stroke-width:0.8;" x="60.02524" xlink:href="#m5ab1169671" y="233.055191"/>
      </g>
     </g>
     <g id="text_6">
      <!-- 0 -->
      <g transform="translate(42.84524 239.133941)scale(0.16 -0.16)">
       <use xlink:href="#DejaVuSans-48"/>
      </g>
     </g>
    </g>
    <g id="ytick_2">
     <g id="line2d_11">
      <path clip-path="url(#pc0eab0c1c4)" d="M 60.02524 193.076958 
L 428.99976 193.076958 
" style="fill:none;stroke:#b0b0b0;stroke-dasharray:3.7,1.6;stroke-dashoffset:0;"/>
     </g>
     <g id="line2d_12">
      <g>
       <use style="stroke:#000000;stroke-width:0.8;" x="60.02524" xlink:href="#m5ab1169671" y="193.076958"/>
      </g>
     </g>
     <g id="text_7">
      <!-- 100 -->
      <g transform="translate(22.48524 199.155708)scale(0.16 -0.16)">
       <use xlink:href="#DejaVuSans-49"/>
       <use x="63.623047" xlink:href="#DejaVuSans-48"/>
       <use x="127.246094" xlink:href="#DejaVuSans-48"/>
      </g>
     </g>
    </g>
    <g id="ytick_3">
     <g id="line2d_13">
      <path clip-path="url(#pc0eab0c1c4)" d="M 60.02524 153.098725 
L 428.99976 153.098725 
" style="fill:none;stroke:#b0b0b0;stroke-dasharray:3.7,1.6;stroke-dashoffset:0;"/>
     </g>
     <g id="line2d_14">
      <g>
       <use style="stroke:#000000;stroke-width:0.8;" x="60.02524" xlink:href="#m5ab1169671" y="153.098725"/>
      </g>
     </g>
     <g id="text_8">
      <!-- 200 -->
      <defs>
       <path d="M 19.1875 8.296875 
L 53.609375 8.296875 
L 53.609375 0 
L 7.328125 0 
L 7.328125 8.296875 
Q 12.9375 14.109375 22.625 23.890625 
Q 32.328125 33.6875 34.8125 36.53125 
Q 39.546875 41.84375 41.421875 45.53125 
Q 43.3125 49.21875 43.3125 52.78125 
Q 43.3125 58.59375 39.234375 62.25 
Q 35.15625 65.921875 28.609375 65.921875 
Q 23.96875 65.921875 18.8125 64.3125 
Q 13.671875 62.703125 7.8125 59.421875 
L 7.8125 69.390625 
Q 13.765625 71.78125 18.9375 73 
Q 24.125 74.21875 28.421875 74.21875 
Q 39.75 74.21875 46.484375 68.546875 
Q 53.21875 62.890625 53.21875 53.421875 
Q 53.21875 48.921875 51.53125 44.890625 
Q 49.859375 40.875 45.40625 35.40625 
Q 44.1875 33.984375 37.640625 27.21875 
Q 31.109375 20.453125 19.1875 8.296875 
z
" id="DejaVuSans-50"/>
      </defs>
      <g transform="translate(22.48524 159.177475)scale(0.16 -0.16)">
       <use xlink:href="#DejaVuSans-50"/>
       <use x="63.623047" xlink:href="#DejaVuSans-48"/>
       <use x="127.246094" xlink:href="#DejaVuSans-48"/>
      </g>
     </g>
    </g>
    <g id="ytick_4">
     <g id="line2d_15">
      <path clip-path="url(#pc0eab0c1c4)" d="M 60.02524 113.120492 
L 428.99976 113.120492 
" style="fill:none;stroke:#b0b0b0;stroke-dasharray:3.7,1.6;stroke-dashoffset:0;"/>
     </g>
     <g id="line2d_16">
      <g>
       <use style="stroke:#000000;stroke-width:0.8;" x="60.02524" xlink:href="#m5ab1169671" y="113.120492"/>
      </g>
     </g>
     <g id="text_9">
      <!-- 300 -->
      <defs>
       <path d="M 40.578125 39.3125 
Q 47.65625 37.796875 51.625 33 
Q 55.609375 28.21875 55.609375 21.1875 
Q 55.609375 10.40625 48.1875 4.484375 
Q 40.765625 -1.421875 27.09375 -1.421875 
Q 22.515625 -1.421875 17.65625 -0.515625 
Q 12.796875 0.390625 7.625 2.203125 
L 7.625 11.71875 
Q 11.71875 9.328125 16.59375 8.109375 
Q 21.484375 6.890625 26.8125 6.890625 
Q 36.078125 6.890625 40.9375 10.546875 
Q 45.796875 14.203125 45.796875 21.1875 
Q 45.796875 27.640625 41.28125 31.265625 
Q 36.765625 34.90625 28.71875 34.90625 
L 20.21875 34.90625 
L 20.21875 43.015625 
L 29.109375 43.015625 
Q 36.375 43.015625 40.234375 45.921875 
Q 44.09375 48.828125 44.09375 54.296875 
Q 44.09375 59.90625 40.109375 62.90625 
Q 36.140625 65.921875 28.71875 65.921875 
Q 24.65625 65.921875 20.015625 65.03125 
Q 15.375 64.15625 9.8125 62.3125 
L 9.8125 71.09375 
Q 15.4375 72.65625 20.34375 73.4375 
Q 25.25 74.21875 29.59375 74.21875 
Q 40.828125 74.21875 47.359375 69.109375 
Q 53.90625 64.015625 53.90625 55.328125 
Q 53.90625 49.265625 50.4375 45.09375 
Q 46.96875 40.921875 40.578125 39.3125 
z
" id="DejaVuSans-51"/>
      </defs>
      <g transform="translate(22.48524 119.199242)scale(0.16 -0.16)">
       <use xlink:href="#DejaVuSans-51"/>
       <use x="63.623047" xlink:href="#DejaVuSans-48"/>
       <use x="127.246094" xlink:href="#DejaVuSans-48"/>
      </g>
     </g>
    </g>
    <g id="ytick_5">
     <g id="line2d_17">
      <path clip-path="url(#pc0eab0c1c4)" d="M 60.02524 73.14226 
L 428.99976 73.14226 
" style="fill:none;stroke:#b0b0b0;stroke-dasharray:3.7,1.6;stroke-dashoffset:0;"/>
     </g>
     <g id="line2d_18">
      <g>
       <use style="stroke:#000000;stroke-width:0.8;" x="60.02524" xlink:href="#m5ab1169671" y="73.14226"/>
      </g>
     </g>
     <g id="text_10">
      <!-- 400 -->
      <defs>
       <path d="M 37.796875 64.3125 
L 12.890625 25.390625 
L 37.796875 25.390625 
z
M 35.203125 72.90625 
L 47.609375 72.90625 
L 47.609375 25.390625 
L 58.015625 25.390625 
L 58.015625 17.1875 
L 47.609375 17.1875 
L 47.609375 0 
L 37.796875 0 
L 37.796875 17.1875 
L 4.890625 17.1875 
L 4.890625 26.703125 
z
" id="DejaVuSans-52"/>
      </defs>
      <g transform="translate(22.48524 79.22101)scale(0.16 -0.16)">
       <use xlink:href="#DejaVuSans-52"/>
       <use x="63.623047" xlink:href="#DejaVuSans-48"/>
       <use x="127.246094" xlink:href="#DejaVuSans-48"/>
      </g>
     </g>
    </g>
    <g id="ytick_6">
     <g id="line2d_19">
      <path clip-path="url(#pc0eab0c1c4)" d="M 60.02524 33.164027 
L 428.99976 33.164027 
" style="fill:none;stroke:#b0b0b0;stroke-dasharray:3.7,1.6;stroke-dashoffset:0;"/>
     </g>
     <g id="line2d_20">
      <g>
       <use style="stroke:#000000;stroke-width:0.8;" x="60.02524" xlink:href="#m5ab1169671" y="33.164027"/>
      </g>
     </g>
     <g id="text_11">
      <!-- 500 -->
      <g transform="translate(22.48524 39.242777)scale(0.16 -0.16)">
       <use xlink:href="#DejaVuSans-53"/>
       <use x="63.623047" xlink:href="#DejaVuSans-48"/>
       <use x="127.246094" xlink:href="#DejaVuSans-48"/>
      </g>
     </g>
    </g>
    <g id="text_12">
     <!-- Queries complete -->
     <defs>
      <path d="M 39.40625 66.21875 
Q 28.65625 66.21875 22.328125 58.203125 
Q 16.015625 50.203125 16.015625 36.375 
Q 16.015625 22.609375 22.328125 14.59375 
Q 28.65625 6.59375 39.40625 6.59375 
Q 50.140625 6.59375 56.421875 14.59375 
Q 62.703125 22.609375 62.703125 36.375 
Q 62.703125 50.203125 56.421875 58.203125 
Q 50.140625 66.21875 39.40625 66.21875 
z
M 53.21875 1.3125 
L 66.21875 -12.890625 
L 54.296875 -12.890625 
L 43.5 -1.21875 
Q 41.890625 -1.3125 41.03125 -1.359375 
Q 40.1875 -1.421875 39.40625 -1.421875 
Q 24.03125 -1.421875 14.8125 8.859375 
Q 5.609375 19.140625 5.609375 36.375 
Q 5.609375 53.65625 14.8125 63.9375 
Q 24.03125 74.21875 39.40625 74.21875 
Q 54.734375 74.21875 63.90625 63.9375 
Q 73.09375 53.65625 73.09375 36.375 
Q 73.09375 23.6875 67.984375 14.640625 
Q 62.890625 5.609375 53.21875 1.3125 
z
" id="DejaVuSans-81"/>
      <path d="M 8.5 21.578125 
L 8.5 54.6875 
L 17.484375 54.6875 
L 17.484375 21.921875 
Q 17.484375 14.15625 20.5 10.265625 
Q 23.53125 6.390625 29.59375 6.390625 
Q 36.859375 6.390625 41.078125 11.03125 
Q 45.3125 15.671875 45.3125 23.6875 
L 45.3125 54.6875 
L 54.296875 54.6875 
L 54.296875 0 
L 45.3125 0 
L 45.3125 8.40625 
Q 42.046875 3.421875 37.71875 1 
Q 33.40625 -1.421875 27.6875 -1.421875 
Q 18.265625 -1.421875 13.375 4.4375 
Q 8.5 10.296875 8.5 21.578125 
z
M 31.109375 56 
z
" id="DejaVuSans-117"/>
      <path d="M 41.109375 46.296875 
Q 39.59375 47.171875 37.8125 47.578125 
Q 36.03125 48 33.890625 48 
Q 26.265625 48 22.1875 43.046875 
Q 18.109375 38.09375 18.109375 28.8125 
L 18.109375 0 
L 9.078125 0 
L 9.078125 54.6875 
L 18.109375 54.6875 
L 18.109375 46.1875 
Q 20.953125 51.171875 25.484375 53.578125 
Q 30.03125 56 36.53125 56 
Q 37.453125 56 38.578125 55.875 
Q 39.703125 55.765625 41.0625 55.515625 
z
" id="DejaVuSans-114"/>
      <path d="M 44.28125 53.078125 
L 44.28125 44.578125 
Q 40.484375 46.53125 36.375 47.5 
Q 32.28125 48.484375 27.875 48.484375 
Q 21.1875 48.484375 17.84375 46.4375 
Q 14.5 44.390625 14.5 40.28125 
Q 14.5 37.15625 16.890625 35.375 
Q 19.28125 33.59375 26.515625 31.984375 
L 29.59375 31.296875 
Q 39.15625 29.25 43.1875 25.515625 
Q 47.21875 21.78125 47.21875 15.09375 
Q 47.21875 7.46875 41.1875 3.015625 
Q 35.15625 -1.421875 24.609375 -1.421875 
Q 20.21875 -1.421875 15.453125 -0.5625 
Q 10.6875 0.296875 5.421875 2 
L 5.421875 11.28125 
Q 10.40625 8.6875 15.234375 7.390625 
Q 20.0625 6.109375 24.8125 6.109375 
Q 31.15625 6.109375 34.5625 8.28125 
Q 37.984375 10.453125 37.984375 14.40625 
Q 37.984375 18.0625 35.515625 20.015625 
Q 33.0625 21.96875 24.703125 23.78125 
L 21.578125 24.515625 
Q 13.234375 26.265625 9.515625 29.90625 
Q 5.8125 33.546875 5.8125 39.890625 
Q 5.8125 47.609375 11.28125 51.796875 
Q 16.75 56 26.8125 56 
Q 31.78125 56 36.171875 55.265625 
Q 40.578125 54.546875 44.28125 53.078125 
z
" id="DejaVuSans-115"/>
      <path d="M 48.78125 52.59375 
L 48.78125 44.1875 
Q 44.96875 46.296875 41.140625 47.34375 
Q 37.3125 48.390625 33.40625 48.390625 
Q 24.65625 48.390625 19.8125 42.84375 
Q 14.984375 37.3125 14.984375 27.296875 
Q 14.984375 17.28125 19.8125 11.734375 
Q 24.65625 6.203125 33.40625 6.203125 
Q 37.3125 6.203125 41.140625 7.25 
Q 44.96875 8.296875 48.78125 10.40625 
L 48.78125 2.09375 
Q 45.015625 0.34375 40.984375 -0.53125 
Q 36.96875 -1.421875 32.421875 -1.421875 
Q 20.0625 -1.421875 12.78125 6.34375 
Q 5.515625 14.109375 5.515625 27.296875 
Q 5.515625 40.671875 12.859375 48.328125 
Q 20.21875 56 33.015625 56 
Q 37.15625 56 41.109375 55.140625 
Q 45.0625 54.296875 48.78125 52.59375 
z
" id="DejaVuSans-99"/>
      <path d="M 30.609375 48.390625 
Q 23.390625 48.390625 19.1875 42.75 
Q 14.984375 37.109375 14.984375 27.296875 
Q 14.984375 17.484375 19.15625 11.84375 
Q 23.34375 6.203125 30.609375 6.203125 
Q 37.796875 6.203125 41.984375 11.859375 
Q 46.1875 17.53125 46.1875 27.296875 
Q 46.1875 37.015625 41.984375 42.703125 
Q 37.796875 48.390625 30.609375 48.390625 
z
M 30.609375 56 
Q 42.328125 56 49.015625 48.375 
Q 55.71875 40.765625 55.71875 27.296875 
Q 55.71875 13.875 49.015625 6.21875 
Q 42.328125 -1.421875 30.609375 -1.421875 
Q 18.84375 -1.421875 12.171875 6.21875 
Q 5.515625 13.875 5.515625 27.296875 
Q 5.515625 40.765625 12.171875 48.375 
Q 18.84375 56 30.609375 56 
z
" id="DejaVuSans-111"/>
      <path d="M 18.109375 8.203125 
L 18.109375 -20.796875 
L 9.078125 -20.796875 
L 9.078125 54.6875 
L 18.109375 54.6875 
L 18.109375 46.390625 
Q 20.953125 51.265625 25.265625 53.625 
Q 29.59375 56 35.59375 56 
Q 45.5625 56 51.78125 48.09375 
Q 58.015625 40.1875 58.015625 27.296875 
Q 58.015625 14.40625 51.78125 6.484375 
Q 45.5625 -1.421875 35.59375 -1.421875 
Q 29.59375 -1.421875 25.265625 0.953125 
Q 20.953125 3.328125 18.109375 8.203125 
z
M 48.6875 27.296875 
Q 48.6875 37.203125 44.609375 42.84375 
Q 40.53125 48.484375 33.40625 48.484375 
Q 26.265625 48.484375 22.1875 42.84375 
Q 18.109375 37.203125 18.109375 27.296875 
Q 18.109375 17.390625 22.1875 11.75 
Q 26.265625 6.109375 33.40625 6.109375 
Q 40.53125 6.109375 44.609375 11.75 
Q 48.6875 17.390625 48.6875 27.296875 
z
" id="DejaVuSans-112"/>
      <path d="M 9.421875 75.984375 
L 18.40625 75.984375 
L 18.40625 0 
L 9.421875 0 
z
" id="DejaVuSans-108"/>
      <path d="M 18.3125 70.21875 
L 18.3125 54.6875 
L 36.8125 54.6875 
L 36.8125 47.703125 
L 18.3125 47.703125 
L 18.3125 18.015625 
Q 18.3125 11.328125 20.140625 9.421875 
Q 21.96875 7.515625 27.59375 7.515625 
L 36.8125 7.515625 
L 36.8125 0 
L 27.59375 0 
Q 17.1875 0 13.234375 3.875 
Q 9.28125 7.765625 9.28125 18.015625 
L 9.28125 47.703125 
L 2.6875 47.703125 
L 2.6875 54.6875 
L 9.28125 54.6875 
L 9.28125 70.21875 
z
" id="DejaVuSans-116"/>
     </defs>
     <g transform="translate(15.15774 204.112)rotate(-90)scale(0.16 -0.16)">
      <use xlink:href="#DejaVuSans-81"/>
      <use x="78.710938" xlink:href="#DejaVuSans-117"/>
      <use x="142.089844" xlink:href="#DejaVuSans-101"/>
      <use x="203.613281" xlink:href="#DejaVuSans-114"/>
      <use x="244.726562" xlink:href="#DejaVuSans-105"/>
      <use x="272.509766" xlink:href="#DejaVuSans-101"/>
      <use x="334.033203" xlink:href="#DejaVuSans-115"/>
      <use x="386.132812" xlink:href="#DejaVuSans-32"/>
      <use x="417.919922" xlink:href="#DejaVuSans-99"/>
      <use x="472.900391" xlink:href="#DejaVuSans-111"/>
      <use x="534.082031" xlink:href="#DejaVuSans-109"/>
      <use x="631.494141" xlink:href="#DejaVuSans-112"/>
      <use x="694.970703" xlink:href="#DejaVuSans-108"/>
      <use x="722.753906" xlink:href="#DejaVuSans-101"/>
      <use x="784.277344" xlink:href="#DejaVuSans-116"/>
      <use x="823.486328" xlink:href="#DejaVuSans-101"/>
     </g>
    </g>
   </g>
   <g id="line2d_21">
    <path clip-path="url(#pc0eab0c1c4)" d="M 76.796809 233.055191 
L 77.566878 232.655409 
L 77.571828 232.255626 
L 78.570217 231.456062 
L 78.756823 231.056279 
L 79.124363 230.656497 
L 79.742315 230.256715 
L 79.833219 229.856932 
L 80.707573 229.057368 
L 82.967709 228.657585 
L 83.303188 228.257803 
L 83.564513 227.458238 
L 83.567747 227.058456 
L 83.991518 226.658674 
L 84.043655 226.258891 
L 84.636419 225.459327 
L 85.053989 224.659762 
L 85.553423 224.25998 
L 85.69892 223.860197 
L 86.539235 223.460415 
L 88.718437 221.861286 
L 88.738164 221.461503 
L 89.269984 220.661939 
L 89.274698 220.262156 
L 90.020429 219.862374 
L 90.022541 219.462592 
L 90.646397 218.263245 
L 91.468622 217.863462 
L 91.526293 217.46368 
L 92.34845 216.664115 
L 100.647226 216.264333 
L 100.651458 215.864551 
L 101.293031 215.464768 
L 109.434201 215.064986 
L 109.795527 214.665204 
L 109.909137 213.865639 
L 110.480245 213.066074 
L 111.734508 212.26651 
L 113.245818 211.866728 
L 113.849474 209.867816 
L 113.850367 209.468034 
L 114.308982 209.068251 
L 114.364255 208.668469 
L 115.456278 207.06934 
L 123.696801 206.669557 
L 124.018166 206.269775 
L 124.05657 205.869993 
L 124.898687 205.070428 
L 126.407079 204.670646 
L 126.698662 204.270863 
L 126.728866 203.871081 
L 126.898096 203.471299 
L 126.89884 203.071516 
L 127.507959 202.671734 
L 127.542555 202.271952 
L 127.953977 201.872169 
L 136.119658 201.472387 
L 137.083524 199.873258 
L 137.084682 199.473475 
L 137.980317 198.673911 
L 140.140528 198.274128 
L 140.727723 197.874346 
L 141.464106 197.074781 
L 141.604478 196.674999 
L 142.039198 196.275217 
L 142.134955 195.875434 
L 142.679389 195.475652 
L 142.680784 195.07587 
L 143.152114 194.676087 
L 143.153484 194.276305 
L 144.841807 193.47674 
L 145.094259 193.076958 
L 145.518094 192.677176 
L 145.764123 192.277393 
L 145.765651 191.877611 
L 146.15193 191.477829 
L 146.231512 191.078046 
L 146.902262 190.278482 
L 146.9189 189.878699 
L 147.749679 189.478917 
L 148.545391 188.679352 
L 150.723066 188.27957 
L 150.927151 187.879788 
L 152.342889 187.080223 
L 152.454955 186.280658 
L 152.470065 185.880876 
L 152.632141 185.481094 
L 152.980872 185.081312 
L 152.982417 184.681529 
L 153.519908 184.281747 
L 153.521147 183.881965 
L 153.766822 183.482182 
L 153.797029 183.0824 
L 154.010347 182.682618 
L 155.527762 182.282835 
L 156.162315 181.483271 
L 156.187339 181.083488 
L 156.892942 180.283924 
L 158.39032 179.884141 
L 158.97886 179.484359 
L 159.034318 179.084577 
L 160.32492 177.085665 
L 160.329228 176.685883 
L 160.736322 176.2861 
L 161.550255 175.886318 
L 161.623316 175.486536 
L 162.10138 175.086753 
L 162.102745 174.686971 
L 162.932106 173.887406 
L 162.965822 173.487624 
L 163.39944 173.087842 
L 163.474273 172.688059 
L 163.736154 172.288277 
L 165.904745 171.888495 
L 166.272454 171.488712 
L 167.323387 170.689148 
L 167.387422 170.289365 
L 175.543202 169.889583 
L 176.313922 169.090018 
L 176.382256 168.690236 
L 184.528323 168.290454 
L 185.019823 167.890671 
L 185.77056 167.490889 
L 186.007982 167.091107 
L 194.113687 166.691324 
L 194.269137 166.291542 
L 194.75137 165.89176 
L 194.929936 165.491977 
L 196.433202 165.092195 
L 196.628495 164.692413 
L 196.647306 164.29263 
L 197.271187 163.493066 
L 197.452091 163.093283 
L 198.067393 162.693501 
L 198.316401 162.293719 
L 198.42992 161.494154 
L 198.967189 161.094372 
L 199.12126 160.694589 
L 199.566017 160.294807 
L 200.194389 159.895025 
L 200.298759 159.495243 
L 200.754012 159.09546 
L 201.521955 158.695678 
L 209.713079 158.295896 
L 209.902822 157.896113 
L 210.227182 157.496331 
L 210.32317 156.696766 
L 218.476637 156.296984 
L 219.119911 155.897202 
L 219.476192 155.497419 
L 220.278606 155.097637 
L 220.567266 154.697855 
L 221.954933 153.498508 
L 222.742694 153.098725 
L 224.344946 152.698943 
L 224.696358 152.299161 
L 224.910124 151.499596 
L 225.418287 151.099814 
L 225.491372 150.700031 
L 226.051469 150.300249 
L 226.052646 149.900467 
L 227.322554 148.70112 
L 227.431888 147.901555 
L 228.236958 147.501773 
L 228.746878 147.10199 
L 229.556219 145.902643 
L 229.56403 145.502861 
L 230.430707 145.103079 
L 230.540394 144.303514 
L 230.873792 143.903732 
L 231.409497 143.503949 
L 231.490957 143.104167 
L 233.649837 142.704385 
L 234.400971 142.304602 
L 234.577066 141.90482 
L 236.139391 141.105255 
L 236.605998 139.905908 
L 244.844406 139.506126 
L 245.51147 138.706561 
L 253.72509 138.306779 
L 253.942385 136.70765 
L 256.188095 136.307867 
L 257.713437 135.908085 
L 258.487879 135.10852 
L 266.836704 134.708738 
L 266.837722 134.308956 
L 267.01213 133.909173 
L 267.06257 133.109609 
L 267.735828 132.310044 
L 267.770287 131.910262 
L 268.707632 131.110697 
L 268.954395 130.710915 
L 269.840865 129.91135 
L 271.352709 129.511568 
L 272.308812 128.312221 
L 272.411904 127.912439 
L 273.389861 127.112874 
L 273.407767 126.713092 
L 273.850781 126.313309 
L 274.652474 124.71418 
L 274.742253 124.314398 
L 276.29432 123.914615 
L 276.502291 123.514833 
L 276.926774 123.115051 
L 277.461904 122.315486 
L 277.857665 121.915704 
L 277.889817 121.515921 
L 278.640736 120.716357 
L 278.720595 120.316574 
L 279.111216 119.916792 
L 279.183006 119.51701 
L 279.785871 119.117227 
L 280.106638 118.717445 
L 280.720166 118.317663 
L 281.039653 117.118316 
L 281.368676 116.718533 
L 281.470393 116.318751 
L 282.251858 115.519186 
L 282.954926 114.319839 
L 283.540798 113.920057 
L 283.842204 113.520275 
L 284.504695 113.120492 
L 284.50676 112.72071 
L 284.91089 112.320928 
L 284.977852 111.921145 
L 285.277274 111.121581 
L 285.335048 110.721798 
L 285.992129 109.922234 
L 286.773311 109.522451 
L 287.051945 109.122669 
L 287.475572 108.722887 
L 295.71432 108.323104 
L 296.844417 107.123757 
L 297.11637 105.924411 
L 298.654409 105.524628 
L 299.430685 105.124846 
L 300.315844 104.325281 
L 301.632013 102.726152 
L 303.128229 102.32637 
L 303.356831 101.926587 
L 304.111661 101.526805 
L 304.963506 100.327458 
L 305.32073 99.927676 
L 306.862932 99.128111 
L 307.825122 98.328546 
L 307.87242 97.528982 
L 308.150631 97.129199 
L 316.333317 96.729417 
L 316.737017 95.929852 
L 317.201512 95.53007 
L 318.815194 94.730505 
L 318.821627 94.330723 
L 318.962866 93.930941 
L 318.963968 93.531158 
L 319.425899 93.131376 
L 319.430607 92.731594 
L 321.003667 92.331811 
L 321.350014 91.932029 
L 322.094475 91.532247 
L 322.317282 91.132464 
L 323.094402 90.732682 
L 324.603575 89.133553 
L 324.658189 88.333988 
L 326.860026 87.934206 
L 326.912931 87.134641 
L 327.838124 85.935294 
L 329.379617 85.535512 
L 329.382316 85.135729 
L 329.658866 84.735947 
L 330.077727 84.336165 
L 330.227691 83.936382 
L 331.07493 83.136818 
L 331.211288 82.737035 
L 331.739424 82.337253 
L 331.797036 81.937471 
L 332.619088 81.137906 
L 332.841171 79.138995 
L 333.266866 78.739212 
L 333.339078 78.33943 
L 334.897144 77.939648 
L 335.098035 77.539865 
L 335.734626 77.140083 
L 335.814771 75.940736 
L 336.096551 75.540954 
L 336.100805 75.141171 
L 336.439151 74.741389 
L 336.72374 73.542042 
L 336.921858 73.14226 
L 337.397133 72.742477 
L 337.41163 72.342695 
L 338.179557 71.942913 
L 338.579602 71.54313 
L 338.717959 71.143348 
L 339.396217 70.743566 
L 341.584046 70.343783 
L 341.676306 69.944001 
L 342.46566 69.144436 
L 342.806981 68.744654 
L 342.952136 68.344872 
L 343.406933 67.945089 
L 343.828669 67.145525 
L 351.978991 66.745742 
L 352.039959 66.34596 
L 352.80932 65.546395 
L 353.125514 64.347048 
L 353.335889 63.547484 
L 361.482454 63.147701 
L 361.608614 62.747919 
L 362.199436 61.948354 
L 363.36746 60.349225 
L 364.210681 59.949443 
L 366.553534 59.54966 
L 366.992663 59.149878 
L 375.196206 58.750096 
L 375.602228 58.350313 
L 375.619617 57.950531 
L 376.016437 57.150966 
L 376.485791 56.751184 
L 376.555657 56.351402 
L 377.304788 55.951619 
L 377.720173 55.551837 
L 377.741649 55.152055 
L 378.182113 54.752272 
L 380.518504 54.35249 
L 380.959802 53.952708 
L 380.96224 53.552926 
L 381.583713 52.753361 
L 381.59917 52.353579 
L 381.884284 51.953796 
L 390.085326 51.554014 
L 390.180978 51.154232 
L 390.533661 50.754449 
L 392.665149 50.354667 
L 392.731612 49.954885 
L 393.696222 49.15532 
L 393.700543 48.755538 
L 393.99884 48.355755 
L 394.031434 47.556191 
L 394.207317 47.156408 
L 402.469745 46.756626 
L 402.64112 46.356844 
L 403.388928 45.557279 
L 403.494801 44.757714 
L 403.563906 44.357932 
L 404.01662 43.95815 
L 404.086606 43.558367 
L 404.738855 43.158585 
L 404.795198 42.758803 
L 404.975069 42.35902 
L 405.735921 41.959238 
L 406.071918 41.559456 
L 406.072703 41.159673 
L 407.115308 39.960326 
L 408.783805 39.160762 
L 408.896125 38.760979 
L 409.262369 38.361197 
L 409.300204 37.561632 
L 410.195979 36.762068 
L 410.509178 36.362285 
L 411.447475 35.562721 
L 411.916132 34.363374 
L 411.938937 33.963591 
L 412.228191 33.563809 
L 412.228191 33.563809 
" style="fill:none;stroke:#1f77b4;stroke-linecap:square;stroke-width:3;"/>
   </g>
   <g id="line2d_22">
    <path clip-path="url(#pc0eab0c1c4)" d="M 76.796809 233.055191 
L 77.728059 232.655409 
L 77.735132 232.255626 
L 78.809428 231.456062 
L 79.010242 231.056279 
L 79.380917 230.656497 
L 80.005512 230.256715 
L 80.099727 229.856932 
L 81.047963 229.057368 
L 83.31313 228.657585 
L 83.664057 228.257803 
L 83.941124 227.458238 
L 83.944646 227.058456 
L 84.35981 226.658674 
L 84.419713 226.258891 
L 85.03375 225.459327 
L 85.4633 224.659762 
L 85.965071 224.25998 
L 86.106812 223.860197 
L 86.948225 223.460415 
L 87.425422 223.060633 
L 87.884602 222.261068 
L 88.761008 221.861286 
L 90.181358 221.461503 
L 91.423383 220.661939 
L 91.43241 220.262156 
L 91.710608 219.862374 
L 91.713734 219.462592 
L 92.201416 219.062809 
L 93.218061 218.663027 
L 94.581926 218.263245 
L 94.775576 217.863462 
L 94.826349 217.46368 
L 95.211416 217.063898 
L 96.090033 216.664115 
L 96.473632 216.264333 
L 96.48463 215.864551 
L 97.320131 214.265421 
L 97.389124 213.865639 
L 98.249397 212.666292 
L 98.80248 212.26651 
L 99.104506 211.866728 
L 99.172376 211.466945 
L 99.531856 210.667381 
L 99.913405 210.267598 
L 99.953241 209.468034 
L 100.42127 209.068251 
L 100.479645 208.668469 
L 100.851061 207.868904 
L 101.800382 206.669557 
L 101.975979 206.269775 
L 102.009903 205.869993 
L 102.817494 204.670646 
L 103.200632 203.071516 
L 103.796174 202.671734 
L 103.840912 202.271952 
L 104.859106 201.872169 
L 105.313106 201.072605 
L 106.055235 200.672822 
L 106.170709 199.473475 
L 106.401541 199.073693 
L 107.174371 198.274128 
L 107.508779 197.474564 
L 107.769681 197.074781 
L 107.856784 196.674999 
L 108.889982 196.275217 
L 109.256778 195.07587 
L 109.717799 194.676087 
L 109.722926 194.276305 
L 110.023924 193.876523 
L 110.832902 193.47674 
L 111.765215 192.677176 
L 111.98418 192.277393 
L 111.987938 191.877611 
L 112.436794 191.477829 
L 112.521058 191.078046 
L 113.162398 190.278482 
L 113.181484 189.878699 
L 114.456652 188.679352 
L 120.405925 188.27957 
L 120.937002 187.879788 
L 121.253494 187.480005 
L 121.919351 185.481094 
L 122.376719 185.081312 
L 122.381506 184.681529 
L 123.089615 184.281747 
L 123.095321 183.881965 
L 124.672917 181.483271 
L 124.704875 181.083488 
L 124.886029 180.683706 
L 124.929436 180.283924 
L 125.386599 179.484359 
L 125.603516 178.684794 
L 126.351539 177.88523 
L 126.52718 177.085665 
L 126.532654 176.685883 
L 127.069012 176.2861 
L 127.49792 174.686971 
L 128.059839 173.887406 
L 128.093782 173.487624 
L 128.792021 173.087842 
L 128.869314 172.688059 
L 129.143153 172.288277 
L 131.443875 171.888495 
L 132.236505 171.08893 
L 132.520105 170.689148 
L 132.5696 170.289365 
L 133.096275 169.090018 
L 133.16164 168.690236 
L 133.349338 168.290454 
L 133.893967 167.890671 
L 134.182991 167.091107 
L 135.017574 165.491977 
L 136.557216 165.092195 
L 136.785224 164.692413 
L 136.816477 164.29263 
L 137.464433 163.493066 
L 138.247941 163.093283 
L 138.902974 162.293719 
L 139.021019 161.494154 
L 139.495515 161.094372 
L 139.656017 160.694589 
L 140.112036 160.294807 
L 140.328737 159.495243 
L 140.689322 159.09546 
L 140.798434 158.695678 
L 141.394357 157.896113 
L 141.900775 157.496331 
L 142.015132 156.696766 
L 142.644716 155.897202 
L 143.016375 155.097637 
L 143.377088 154.298072 
L 144.206018 153.498508 
L 144.925758 153.098725 
L 145.723081 151.899378 
L 145.803466 151.499596 
L 146.413553 151.099814 
L 146.767711 150.300249 
L 146.772012 149.900467 
L 148.099603 148.70112 
L 148.193358 147.901555 
L 149.551358 146.302426 
L 149.791149 145.902643 
L 149.811546 145.502861 
L 150.134824 145.103079 
L 150.192291 144.303514 
L 150.866396 143.903732 
L 151.877099 142.304602 
L 152.006135 141.90482 
L 152.606875 141.105255 
L 152.806935 140.705473 
L 152.858633 140.305691 
L 153.288453 139.905908 
L 154.235244 137.906997 
L 154.51431 137.107432 
L 154.560148 136.70765 
L 155.554025 135.10852 
L 155.772923 134.708738 
L 155.777522 134.308956 
L 156.033598 133.909173 
L 156.044176 133.509391 
L 157.096322 132.310044 
L 157.118146 131.910262 
L 158.39376 129.91135 
L 158.662709 129.511568 
L 158.78999 128.712003 
L 159.116511 128.312221 
L 159.190294 127.912439 
L 160.062737 127.112874 
L 160.93993 125.513745 
L 161.277147 125.113962 
L 161.373272 124.314398 
L 161.692595 123.914615 
L 161.823727 123.514833 
L 162.420766 123.115051 
L 162.795931 122.315486 
L 163.213803 121.915704 
L 163.438166 121.515921 
L 164.013409 120.716357 
L 164.104362 120.316574 
L 164.467984 119.916792 
L 164.543558 119.51701 
L 165.291453 118.317663 
L 165.641551 117.118316 
L 166.082786 116.718533 
L 166.169458 116.318751 
L 166.935908 115.519186 
L 167.401011 114.719622 
L 167.776369 113.920057 
L 167.850645 113.520275 
L 168.554555 113.120492 
L 168.562457 112.72071 
L 169.158056 112.320928 
L 169.600975 110.322016 
L 169.940454 109.922234 
L 170.327783 108.722887 
L 170.810282 107.923322 
L 171.237327 107.52354 
L 171.394393 106.723975 
L 172.375662 104.725064 
L 172.858553 104.325281 
L 172.928733 103.925499 
L 173.190657 103.525717 
L 174.060725 103.125934 
L 175.597678 102.726152 
L 176.175126 101.926587 
L 176.274512 101.526805 
L 177.170233 100.327458 
L 177.498377 99.927676 
L 177.60505 99.128111 
L 177.83537 98.728329 
L 178.215426 98.328546 
L 178.270352 97.528982 
L 178.798189 96.729417 
L 179.983167 94.730505 
L 180.066225 93.531158 
L 180.642193 93.131376 
L 180.64864 92.731594 
L 181.151889 91.932029 
L 181.742273 90.732682 
L 182.647021 89.933117 
L 183.334606 89.133553 
L 183.393627 88.333988 
L 183.785323 87.934206 
L 183.841481 87.134641 
L 185.064997 85.535512 
L 185.070926 85.135729 
L 185.336873 84.735947 
L 185.799685 84.336165 
L 185.953995 83.936382 
L 186.837891 83.136818 
L 186.959456 82.737035 
L 187.205353 82.337253 
L 187.244133 81.937471 
L 188.050907 81.137906 
L 188.216348 79.938559 
L 188.553637 78.33943 
L 189.263987 77.140083 
L 189.335721 75.940736 
L 189.616838 75.540954 
L 189.627167 75.141171 
L 189.942397 74.741389 
L 189.990286 74.341607 
L 190.176637 73.941824 
L 190.205121 73.542042 
L 191.335652 72.742477 
L 191.355008 72.342695 
L 192.160199 71.54313 
L 192.540316 70.743566 
L 193.007894 70.343783 
L 193.098054 69.944001 
L 193.965451 69.144436 
L 194.338195 68.744654 
L 194.475301 68.344872 
L 194.951365 67.945089 
L 195.405518 67.145525 
L 195.737716 66.745742 
L 195.797718 66.34596 
L 196.248479 65.946178 
L 196.499319 65.146613 
L 196.803238 64.347048 
L 196.980631 63.947266 
L 197.035848 63.547484 
L 197.640378 63.147701 
L 197.779866 62.747919 
L 198.051368 62.348137 
L 206.752902 61.948354 
L 207.472871 61.548572 
L 208.308897 60.749007 
L 208.49922 60.349225 
L 209.413318 59.54966 
L 209.733892 58.750096 
L 210.162831 58.350313 
L 210.184734 57.950531 
L 210.87712 56.751184 
L 210.926156 56.351402 
L 211.264924 55.951619 
L 211.398856 55.152055 
L 212.503862 53.952708 
L 212.511413 53.552926 
L 213.188314 52.753361 
L 213.202166 52.353579 
L 213.721904 51.554014 
L 213.779394 51.154232 
L 214.522948 50.354667 
L 214.57544 49.954885 
L 214.918292 49.555102 
L 215.032227 48.755538 
L 215.342146 48.355755 
L 215.374362 47.556191 
L 215.976911 46.356844 
L 216.384089 45.957061 
L 216.679967 45.157497 
L 216.749156 44.357932 
L 216.965584 43.95815 
L 217.030949 43.558367 
L 217.635857 43.158585 
L 218.015955 41.959238 
L 218.444371 41.559456 
L 218.44851 41.159673 
L 219.14421 40.360109 
L 219.584886 39.960326 
L 219.686271 39.560544 
L 220.006514 38.760979 
L 220.538264 38.361197 
L 220.567589 37.561632 
L 222.010925 35.162938 
L 222.53228 33.563809 
L 222.53228 33.563809 
" style="fill:none;stroke:#ff7f0e;stroke-linecap:square;stroke-width:3;"/>
   </g>
   <g id="line2d_23">
    <path clip-path="url(#pc0eab0c1c4)" d="M 76.796809 233.055191 
L 77.325149 232.655409 
L 77.330654 232.255626 
L 78.30101 231.456062 
L 78.52261 231.056279 
L 78.900391 230.656497 
L 79.527608 230.256715 
L 79.617473 229.856932 
L 80.475114 229.057368 
L 82.639701 228.657585 
L 83.011635 228.257803 
L 83.270764 227.458238 
L 83.274046 227.058456 
L 83.694925 226.658674 
L 83.737028 226.258891 
L 84.322121 225.459327 
L 84.746622 224.659762 
L 85.24537 224.25998 
L 85.377948 223.860197 
L 86.215641 223.460415 
L 86.680847 223.060633 
L 87.889096 222.261068 
L 88.330398 221.861286 
L 88.353245 221.461503 
L 88.943364 220.661939 
L 88.950286 220.262156 
L 89.764628 219.862374 
L 89.768777 219.462592 
L 89.974919 219.062809 
L 90.360235 218.663027 
L 90.549901 217.863462 
L 90.610796 217.46368 
L 91.410894 216.664115 
L 91.798136 216.264333 
L 91.808609 215.864551 
L 92.413361 215.464768 
L 93.033419 214.665204 
L 93.147966 213.865639 
L 93.906092 213.066074 
L 95.148984 212.26651 
L 95.577373 211.866728 
L 95.810712 210.667381 
L 96.199036 210.267598 
L 96.240411 209.468034 
L 96.697848 209.068251 
L 96.75282 208.668469 
L 98.271005 206.669557 
L 98.717673 206.269775 
L 98.754993 205.869993 
L 99.534345 205.070428 
L 99.895406 204.670646 
L 100.075618 204.270863 
L 100.110115 203.871081 
L 100.465305 203.071516 
L 101.060765 202.671734 
L 101.108701 202.271952 
L 101.625939 201.872169 
L 102.544967 200.672822 
L 102.719791 199.473475 
L 103.997714 198.274128 
L 104.145647 197.874346 
L 104.998365 197.074781 
L 105.104349 196.674999 
L 105.627043 196.275217 
L 105.72981 195.875434 
L 106.062323 195.475652 
L 106.067764 195.07587 
L 106.531313 194.676087 
L 106.535266 194.276305 
L 106.925836 193.876523 
L 108.668363 193.076958 
L 109.20087 192.277393 
L 109.206818 191.877611 
L 109.612325 191.477829 
L 109.740965 191.078046 
L 110.561264 190.278482 
L 110.584221 189.878699 
L 111.011741 189.478917 
L 111.127125 189.079135 
L 111.736869 188.679352 
L 112.143678 188.27957 
L 112.346525 187.879788 
L 113.009001 187.480005 
L 113.217591 186.280658 
L 113.236376 185.880876 
L 113.411867 185.481094 
L 113.775751 185.081312 
L 113.779625 184.681529 
L 114.238761 184.281747 
L 114.244253 183.881965 
L 114.94967 183.482182 
L 115.609599 182.682618 
L 117.209213 182.282835 
L 117.332826 181.883053 
L 117.782156 181.483271 
L 117.816299 181.083488 
L 118.041554 180.683706 
L 118.091016 180.283924 
L 118.388181 179.884141 
L 118.739064 178.684794 
L 119.909885 177.485447 
L 119.979846 176.685883 
L 120.423881 176.2861 
L 120.644927 175.486536 
L 121.122191 175.086753 
L 121.12631 174.686971 
L 121.935229 173.887406 
L 121.969238 173.487624 
L 123.08107 173.087842 
L 123.147302 172.688059 
L 123.416395 172.288277 
L 124.253159 171.488712 
L 124.621625 171.08893 
L 126.152021 170.689148 
L 126.253547 170.289365 
L 126.703724 169.489801 
L 127.191646 169.090018 
L 127.290472 168.690236 
L 127.520206 168.290454 
L 128.251268 167.890671 
L 128.330235 167.490889 
L 128.713528 167.091107 
L 129.515805 165.491977 
L 130.098402 164.692413 
L 130.112435 164.29263 
L 131.67336 162.293719 
L 131.781173 161.494154 
L 132.281339 161.094372 
L 132.936862 159.495243 
L 133.315562 159.09546 
L 133.409637 158.695678 
L 134.254198 157.096549 
L 134.265105 156.696766 
L 135.109443 155.497419 
L 135.235713 155.097637 
L 136.037857 153.89829 
L 136.44206 153.498508 
L 137.916713 153.098725 
L 138.66438 152.299161 
L 138.88933 151.499596 
L 139.251209 151.099814 
L 139.516164 149.900467 
L 140.191992 149.100902 
L 140.50029 148.70112 
L 140.586574 147.901555 
L 141.281815 147.501773 
L 141.837349 146.702208 
L 142.748146 146.302426 
L 142.945308 145.902643 
L 142.956595 145.502861 
L 143.56555 145.103079 
L 143.661756 144.303514 
L 144.292756 143.503949 
L 145.109341 143.104167 
L 145.411386 142.704385 
L 145.667733 141.90482 
L 146.057602 141.505038 
L 146.170248 141.105255 
L 146.722949 140.705473 
L 146.805583 140.305691 
L 147.36392 139.506126 
L 147.675745 139.106344 
L 147.758117 138.706561 
L 148.012141 138.306779 
L 148.216931 136.70765 
L 148.776722 135.908085 
L 148.983399 135.508303 
L 149.839311 135.10852 
L 150.133279 134.708738 
L 150.253243 133.509391 
L 151.987317 133.109609 
L 152.317739 132.709827 
L 152.783033 131.51048 
L 153.379815 130.311133 
L 154.030536 129.91135 
L 154.284335 129.511568 
L 154.411413 128.712003 
L 154.73028 128.312221 
L 154.811518 127.912439 
L 155.735241 127.512656 
L 156.123364 127.112874 
L 156.145291 126.713092 
L 156.885806 125.513745 
L 157.464195 125.113962 
L 157.554695 124.314398 
L 157.826111 123.914615 
L 157.945609 123.514833 
L 159.162371 123.115051 
L 159.523482 122.315486 
L 159.999387 121.915704 
L 160.028857 121.515921 
L 160.641066 120.716357 
L 160.732937 120.316574 
L 161.103959 119.916792 
L 161.176633 119.51701 
L 161.919854 118.317663 
L 162.276487 117.118316 
L 162.703225 116.718533 
L 162.789797 116.318751 
L 163.524774 115.519186 
L 163.973953 114.719622 
L 164.344254 113.920057 
L 164.410558 113.520275 
L 165.033342 113.120492 
L 165.040317 112.72071 
L 165.591756 112.320928 
L 166.021682 110.322016 
L 166.357654 109.922234 
L 166.484599 109.122669 
L 167.250731 107.923322 
L 167.650292 107.52354 
L 167.971882 105.924411 
L 168.284099 105.524628 
L 168.380188 105.124846 
L 168.630569 104.725064 
L 169.093747 104.325281 
L 169.167872 103.925499 
L 169.426829 103.525717 
L 170.191164 103.125934 
L 170.970206 101.926587 
L 171.055973 101.526805 
L 171.936471 100.327458 
L 172.262811 99.927676 
L 172.376804 99.128111 
L 172.637503 98.728329 
L 173.154268 98.328546 
L 173.207592 97.528982 
L 174.058589 96.329635 
L 174.879317 94.330723 
L 174.955865 93.531158 
L 175.946464 93.131376 
L 175.953157 92.731594 
L 176.47584 91.932029 
L 176.997629 90.732682 
L 177.924747 89.933117 
L 178.608136 89.133553 
L 178.665563 88.333988 
L 179.101797 87.934206 
L 179.156144 87.134641 
L 180.423445 85.535512 
L 180.42885 85.135729 
L 180.795061 84.735947 
L 181.400814 84.336165 
L 181.552904 83.936382 
L 181.901686 83.5366 
L 182.616369 83.136818 
L 182.736728 82.737035 
L 183.002202 82.337253 
L 183.03882 81.937471 
L 183.834655 81.137906 
L 184.05902 79.138995 
L 184.297637 78.739212 
L 184.366391 78.33943 
L 184.942975 77.539865 
L 185.539357 77.140083 
L 185.628045 75.940736 
L 185.915094 75.540954 
L 185.926455 75.141171 
L 186.292664 74.741389 
L 186.554502 73.542042 
L 187.34962 73.14226 
L 187.850189 72.742477 
L 187.86814 72.342695 
L 188.930325 71.143348 
L 189.135632 70.743566 
L 189.622896 70.343783 
L 189.703631 69.944001 
L 190.246472 69.144436 
L 190.625144 68.744654 
L 190.752925 68.344872 
L 191.223841 67.945089 
L 191.669077 67.145525 
L 191.940772 66.745742 
L 191.999308 66.34596 
L 192.427227 65.946178 
L 192.666457 65.146613 
L 192.948196 64.347048 
L 193.169189 63.547484 
L 194.660644 63.147701 
L 194.797393 62.747919 
L 196.463638 60.349225 
L 197.281547 59.54966 
L 197.616293 58.750096 
L 199.80949 58.350313 
L 199.824438 57.950531 
L 200.366007 57.550749 
L 200.856929 56.351402 
L 201.229949 55.951619 
L 201.359972 55.152055 
L 202.260695 54.35249 
L 204.47202 53.952708 
L 204.479438 53.552926 
L 205.757096 53.153143 
L 206.285735 52.753361 
L 206.301157 52.353579 
L 206.891128 51.554014 
L 206.958232 51.154232 
L 207.345348 50.754449 
L 209.515515 50.354667 
L 209.641795 49.954885 
L 210.094929 49.555102 
L 210.252537 49.15532 
L 210.264814 48.755538 
L 210.578413 48.355755 
L 210.617315 47.556191 
L 211.086396 46.756626 
L 211.263164 46.356844 
L 211.893607 45.557279 
L 212.05607 44.357932 
L 212.520208 43.95815 
L 212.588973 43.558367 
L 213.699681 43.158585 
L 213.780927 42.758803 
L 214.028346 42.35902 
L 214.100861 41.959238 
L 214.450489 41.559456 
L 214.453997 41.159673 
L 216.027252 39.160762 
L 216.136554 38.760979 
L 216.729522 38.361197 
L 216.760783 37.561632 
L 217.636283 36.762068 
L 218.507029 35.562721 
L 218.926543 34.363374 
L 218.950425 33.963591 
L 219.16917 33.563809 
L 219.16917 33.563809 
" style="fill:none;stroke:#2ca02c;stroke-linecap:square;stroke-width:3;"/>
   </g>
   <g id="patch_3">
    <path d="M 60.02524 243.02976 
L 60.02524 23.58924 
" style="fill:none;stroke:#000000;stroke-linecap:square;stroke-linejoin:miter;stroke-width:0.8;"/>
   </g>
   <g id="patch_4">
    <path d="M 428.99976 243.02976 
L 428.99976 23.58924 
" style="fill:none;stroke:#000000;stroke-linecap:square;stroke-linejoin:miter;stroke-width:0.8;"/>
   </g>
   <g id="patch_5">
    <path d="M 60.02524 243.02976 
L 428.99976 243.02976 
" style="fill:none;stroke:#000000;stroke-linecap:square;stroke-linejoin:miter;stroke-width:0.8;"/>
   </g>
   <g id="patch_6">
    <path d="M 60.02524 23.58924 
L 428.99976 23.58924 
" style="fill:none;stroke:#000000;stroke-linecap:square;stroke-linejoin:miter;stroke-width:0.8;"/>
   </g>
   <g id="text_13">
    <!-- PostgreSQL vs Bao Optimizer -->
    <defs>
     <path d="M 19.671875 64.796875 
L 19.671875 37.40625 
L 32.078125 37.40625 
Q 38.96875 37.40625 42.71875 40.96875 
Q 46.484375 44.53125 46.484375 51.125 
Q 46.484375 57.671875 42.71875 61.234375 
Q 38.96875 64.796875 32.078125 64.796875 
z
M 9.8125 72.90625 
L 32.078125 72.90625 
Q 44.34375 72.90625 50.609375 67.359375 
Q 56.890625 61.8125 56.890625 51.125 
Q 56.890625 40.328125 50.609375 34.8125 
Q 44.34375 29.296875 32.078125 29.296875 
L 19.671875 29.296875 
L 19.671875 0 
L 9.8125 0 
z
" id="DejaVuSans-80"/>
     <path d="M 45.40625 27.984375 
Q 45.40625 37.75 41.375 43.109375 
Q 37.359375 48.484375 30.078125 48.484375 
Q 22.859375 48.484375 18.828125 43.109375 
Q 14.796875 37.75 14.796875 27.984375 
Q 14.796875 18.265625 18.828125 12.890625 
Q 22.859375 7.515625 30.078125 7.515625 
Q 37.359375 7.515625 41.375 12.890625 
Q 45.40625 18.265625 45.40625 27.984375 
z
M 54.390625 6.78125 
Q 54.390625 -7.171875 48.1875 -13.984375 
Q 42 -20.796875 29.203125 -20.796875 
Q 24.46875 -20.796875 20.265625 -20.09375 
Q 16.0625 -19.390625 12.109375 -17.921875 
L 12.109375 -9.1875 
Q 16.0625 -11.328125 19.921875 -12.34375 
Q 23.78125 -13.375 27.78125 -13.375 
Q 36.625 -13.375 41.015625 -8.765625 
Q 45.40625 -4.15625 45.40625 5.171875 
L 45.40625 9.625 
Q 42.625 4.78125 38.28125 2.390625 
Q 33.9375 0 27.875 0 
Q 17.828125 0 11.671875 7.65625 
Q 5.515625 15.328125 5.515625 27.984375 
Q 5.515625 40.671875 11.671875 48.328125 
Q 17.828125 56 27.875 56 
Q 33.9375 56 38.28125 53.609375 
Q 42.625 51.21875 45.40625 46.390625 
L 45.40625 54.6875 
L 54.390625 54.6875 
z
" id="DejaVuSans-103"/>
     <path d="M 53.515625 70.515625 
L 53.515625 60.890625 
Q 47.90625 63.578125 42.921875 64.890625 
Q 37.9375 66.21875 33.296875 66.21875 
Q 25.25 66.21875 20.875 63.09375 
Q 16.5 59.96875 16.5 54.203125 
Q 16.5 49.359375 19.40625 46.890625 
Q 22.3125 44.4375 30.421875 42.921875 
L 36.375 41.703125 
Q 47.40625 39.59375 52.65625 34.296875 
Q 57.90625 29 57.90625 20.125 
Q 57.90625 9.515625 50.796875 4.046875 
Q 43.703125 -1.421875 29.984375 -1.421875 
Q 24.8125 -1.421875 18.96875 -0.25 
Q 13.140625 0.921875 6.890625 3.21875 
L 6.890625 13.375 
Q 12.890625 10.015625 18.65625 8.296875 
Q 24.421875 6.59375 29.984375 6.59375 
Q 38.421875 6.59375 43.015625 9.90625 
Q 47.609375 13.234375 47.609375 19.390625 
Q 47.609375 24.75 44.3125 27.78125 
Q 41.015625 30.8125 33.5 32.328125 
L 27.484375 33.5 
Q 16.453125 35.6875 11.515625 40.375 
Q 6.59375 45.0625 6.59375 53.421875 
Q 6.59375 63.09375 13.40625 68.65625 
Q 20.21875 74.21875 32.171875 74.21875 
Q 37.3125 74.21875 42.625 73.28125 
Q 47.953125 72.359375 53.515625 70.515625 
z
" id="DejaVuSans-83"/>
     <path d="M 9.8125 72.90625 
L 19.671875 72.90625 
L 19.671875 8.296875 
L 55.171875 8.296875 
L 55.171875 0 
L 9.8125 0 
z
" id="DejaVuSans-76"/>
     <path d="M 2.984375 54.6875 
L 12.5 54.6875 
L 29.59375 8.796875 
L 46.6875 54.6875 
L 56.203125 54.6875 
L 35.6875 0 
L 23.484375 0 
z
" id="DejaVuSans-118"/>
     <path d="M 19.671875 34.8125 
L 19.671875 8.109375 
L 35.5 8.109375 
Q 43.453125 8.109375 47.28125 11.40625 
Q 51.125 14.703125 51.125 21.484375 
Q 51.125 28.328125 47.28125 31.5625 
Q 43.453125 34.8125 35.5 34.8125 
z
M 19.671875 64.796875 
L 19.671875 42.828125 
L 34.28125 42.828125 
Q 41.5 42.828125 45.03125 45.53125 
Q 48.578125 48.25 48.578125 53.8125 
Q 48.578125 59.328125 45.03125 62.0625 
Q 41.5 64.796875 34.28125 64.796875 
z
M 9.8125 72.90625 
L 35.015625 72.90625 
Q 46.296875 72.90625 52.390625 68.21875 
Q 58.5 63.53125 58.5 54.890625 
Q 58.5 48.1875 55.375 44.234375 
Q 52.25 40.28125 46.1875 39.3125 
Q 53.46875 37.75 57.5 32.78125 
Q 61.53125 27.828125 61.53125 20.40625 
Q 61.53125 10.640625 54.890625 5.3125 
Q 48.25 0 35.984375 0 
L 9.8125 0 
z
" id="DejaVuSans-66"/>
     <path d="M 34.28125 27.484375 
Q 23.390625 27.484375 19.1875 25 
Q 14.984375 22.515625 14.984375 16.5 
Q 14.984375 11.71875 18.140625 8.90625 
Q 21.296875 6.109375 26.703125 6.109375 
Q 34.1875 6.109375 38.703125 11.40625 
Q 43.21875 16.703125 43.21875 25.484375 
L 43.21875 27.484375 
z
M 52.203125 31.203125 
L 52.203125 0 
L 43.21875 0 
L 43.21875 8.296875 
Q 40.140625 3.328125 35.546875 0.953125 
Q 30.953125 -1.421875 24.3125 -1.421875 
Q 15.921875 -1.421875 10.953125 3.296875 
Q 6 8.015625 6 15.921875 
Q 6 25.140625 12.171875 29.828125 
Q 18.359375 34.515625 30.609375 34.515625 
L 43.21875 34.515625 
L 43.21875 35.40625 
Q 43.21875 41.609375 39.140625 45 
Q 35.0625 48.390625 27.6875 48.390625 
Q 23 48.390625 18.546875 47.265625 
Q 14.109375 46.140625 10.015625 43.890625 
L 10.015625 52.203125 
Q 14.9375 54.109375 19.578125 55.046875 
Q 24.21875 56 28.609375 56 
Q 40.484375 56 46.34375 49.84375 
Q 52.203125 43.703125 52.203125 31.203125 
z
" id="DejaVuSans-97"/>
     <path d="M 39.40625 66.21875 
Q 28.65625 66.21875 22.328125 58.203125 
Q 16.015625 50.203125 16.015625 36.375 
Q 16.015625 22.609375 22.328125 14.59375 
Q 28.65625 6.59375 39.40625 6.59375 
Q 50.140625 6.59375 56.421875 14.59375 
Q 62.703125 22.609375 62.703125 36.375 
Q 62.703125 50.203125 56.421875 58.203125 
Q 50.140625 66.21875 39.40625 66.21875 
z
M 39.40625 74.21875 
Q 54.734375 74.21875 63.90625 63.9375 
Q 73.09375 53.65625 73.09375 36.375 
Q 73.09375 19.140625 63.90625 8.859375 
Q 54.734375 -1.421875 39.40625 -1.421875 
Q 24.03125 -1.421875 14.8125 8.828125 
Q 5.609375 19.09375 5.609375 36.375 
Q 5.609375 53.65625 14.8125 63.9375 
Q 24.03125 74.21875 39.40625 74.21875 
z
" id="DejaVuSans-79"/>
     <path d="M 5.515625 54.6875 
L 48.1875 54.6875 
L 48.1875 46.484375 
L 14.40625 7.171875 
L 48.1875 7.171875 
L 48.1875 0 
L 4.296875 0 
L 4.296875 8.203125 
L 38.09375 47.515625 
L 5.515625 47.515625 
z
" id="DejaVuSans-122"/>
    </defs>
    <g transform="translate(104.5295 17.58924)scale(0.192 -0.192)">
     <use xlink:href="#DejaVuSans-80"/>
     <use x="56.677734" xlink:href="#DejaVuSans-111"/>
     <use x="117.859375" xlink:href="#DejaVuSans-115"/>
     <use x="169.958984" xlink:href="#DejaVuSans-116"/>
     <use x="209.167969" xlink:href="#DejaVuSans-103"/>
     <use x="272.644531" xlink:href="#DejaVuSans-114"/>
     <use x="311.507812" xlink:href="#DejaVuSans-101"/>
     <use x="373.03125" xlink:href="#DejaVuSans-83"/>
     <use x="436.507812" xlink:href="#DejaVuSans-81"/>
     <use x="515.21875" xlink:href="#DejaVuSans-76"/>
     <use x="570.931641" xlink:href="#DejaVuSans-32"/>
     <use x="602.71875" xlink:href="#DejaVuSans-118"/>
     <use x="661.898438" xlink:href="#DejaVuSans-115"/>
     <use x="713.998047" xlink:href="#DejaVuSans-32"/>
     <use x="745.785156" xlink:href="#DejaVuSans-66"/>
     <use x="814.388672" xlink:href="#DejaVuSans-97"/>
     <use x="875.667969" xlink:href="#DejaVuSans-111"/>
     <use x="936.849609" xlink:href="#DejaVuSans-32"/>
     <use x="968.636719" xlink:href="#DejaVuSans-79"/>
     <use x="1047.347656" xlink:href="#DejaVuSans-112"/>
     <use x="1110.824219" xlink:href="#DejaVuSans-116"/>
     <use x="1150.033203" xlink:href="#DejaVuSans-105"/>
     <use x="1177.816406" xlink:href="#DejaVuSans-109"/>
     <use x="1275.228516" xlink:href="#DejaVuSans-105"/>
     <use x="1303.011719" xlink:href="#DejaVuSans-122"/>
     <use x="1355.501953" xlink:href="#DejaVuSans-101"/>
     <use x="1417.025391" xlink:href="#DejaVuSans-114"/>
    </g>
   </g>
   <g id="legend_1">
    <g id="patch_7">
     <path d="M 204.43976 235.02976 
L 417.79976 235.02976 
Q 420.99976 235.02976 420.99976 231.82976 
L 420.99976 139.48976 
Q 420.99976 136.28976 417.79976 136.28976 
L 204.43976 136.28976 
Q 201.23976 136.28976 201.23976 139.48976 
L 201.23976 231.82976 
Q 201.23976 235.02976 204.43976 235.02976 
z
" style="fill:#ffffff;opacity:0.8;stroke:#cccccc;stroke-linejoin:miter;"/>
    </g>
    <g id="line2d_24">
     <path d="M 207.63976 149.24726 
L 239.63976 149.24726 
" style="fill:none;stroke:#1f77b4;stroke-linecap:square;stroke-width:3;"/>
    </g>
    <g id="line2d_25"/>
    <g id="text_14">
     <!-- PostgreSQL -->
     <g transform="translate(252.43976 154.84726)scale(0.16 -0.16)">
      <use xlink:href="#DejaVuSans-80"/>
      <use x="56.677734" xlink:href="#DejaVuSans-111"/>
      <use x="117.859375" xlink:href="#DejaVuSans-115"/>
      <use x="169.958984" xlink:href="#DejaVuSans-116"/>
      <use x="209.167969" xlink:href="#DejaVuSans-103"/>
      <use x="272.644531" xlink:href="#DejaVuSans-114"/>
      <use x="311.507812" xlink:href="#DejaVuSans-101"/>
      <use x="373.03125" xlink:href="#DejaVuSans-83"/>
      <use x="436.507812" xlink:href="#DejaVuSans-81"/>
      <use x="515.21875" xlink:href="#DejaVuSans-76"/>
     </g>
    </g>
    <g id="line2d_26">
     <path d="M 207.63976 172.73226 
L 239.63976 172.73226 
" style="fill:none;stroke:#ff7f0e;stroke-linecap:square;stroke-width:3;"/>
    </g>
    <g id="line2d_27"/>
    <g id="text_15">
     <!-- Bao -->
     <g transform="translate(252.43976 178.33226)scale(0.16 -0.16)">
      <use xlink:href="#DejaVuSans-66"/>
      <use x="68.603516" xlink:href="#DejaVuSans-97"/>
      <use x="129.882812" xlink:href="#DejaVuSans-111"/>
     </g>
    </g>
    <g id="line2d_28">
     <path d="M 207.63976 196.21726 
L 239.63976 196.21726 
" style="fill:none;stroke:#2ca02c;stroke-linecap:square;stroke-width:3;"/>
    </g>
    <g id="line2d_29"/>
    <g id="text_16">
     <!-- Bao (w/ exploration) -->
     <defs>
      <path d="M 4.203125 54.6875 
L 13.1875 54.6875 
L 24.421875 12.015625 
L 35.59375 54.6875 
L 46.1875 54.6875 
L 57.421875 12.015625 
L 68.609375 54.6875 
L 77.59375 54.6875 
L 63.28125 0 
L 52.6875 0 
L 40.921875 44.828125 
L 29.109375 0 
L 18.5 0 
z
" id="DejaVuSans-119"/>
      <path d="M 25.390625 72.90625 
L 33.6875 72.90625 
L 8.296875 -9.28125 
L 0 -9.28125 
z
" id="DejaVuSans-47"/>
      <path d="M 54.890625 54.6875 
L 35.109375 28.078125 
L 55.90625 0 
L 45.3125 0 
L 29.390625 21.484375 
L 13.484375 0 
L 2.875 0 
L 24.125 28.609375 
L 4.6875 54.6875 
L 15.28125 54.6875 
L 29.78125 35.203125 
L 44.28125 54.6875 
z
" id="DejaVuSans-120"/>
      <path d="M 54.890625 33.015625 
L 54.890625 0 
L 45.90625 0 
L 45.90625 32.71875 
Q 45.90625 40.484375 42.875 44.328125 
Q 39.84375 48.1875 33.796875 48.1875 
Q 26.515625 48.1875 22.3125 43.546875 
Q 18.109375 38.921875 18.109375 30.90625 
L 18.109375 0 
L 9.078125 0 
L 9.078125 54.6875 
L 18.109375 54.6875 
L 18.109375 46.1875 
Q 21.34375 51.125 25.703125 53.5625 
Q 30.078125 56 35.796875 56 
Q 45.21875 56 50.046875 50.171875 
Q 54.890625 44.34375 54.890625 33.015625 
z
" id="DejaVuSans-110"/>
     </defs>
     <g transform="translate(252.43976 201.81726)scale(0.16 -0.16)">
      <use xlink:href="#DejaVuSans-66"/>
      <use x="68.603516" xlink:href="#DejaVuSans-97"/>
      <use x="129.882812" xlink:href="#DejaVuSans-111"/>
      <use x="191.064453" xlink:href="#DejaVuSans-32"/>
      <use x="222.851562" xlink:href="#DejaVuSans-40"/>
      <use x="261.865234" xlink:href="#DejaVuSans-119"/>
      <use x="343.652344" xlink:href="#DejaVuSans-47"/>
      <use x="377.34375" xlink:href="#DejaVuSans-32"/>
      <use x="409.130859" xlink:href="#DejaVuSans-101"/>
      <use x="468.904297" xlink:href="#DejaVuSans-120"/>
      <use x="528.083984" xlink:href="#DejaVuSans-112"/>
      <use x="591.560547" xlink:href="#DejaVuSans-108"/>
      <use x="619.34375" xlink:href="#DejaVuSans-111"/>
      <use x="680.525391" xlink:href="#DejaVuSans-114"/>
      <use x="721.638672" xlink:href="#DejaVuSans-97"/>
      <use x="782.917969" xlink:href="#DejaVuSans-116"/>
      <use x="822.126953" xlink:href="#DejaVuSans-105"/>
      <use x="849.910156" xlink:href="#DejaVuSans-111"/>
      <use x="911.091797" xlink:href="#DejaVuSans-110"/>
      <use x="974.470703" xlink:href="#DejaVuSans-41"/>
     </g>
    </g>
    <g id="PathCollection_3">
     <g>
      <use style="fill:#ff0000;stroke:#ff0000;" x="223.63976" xlink:href="#mcb11476796" y="221.10226"/>
     </g>
    </g>
    <g id="text_17">
     <!-- Training -->
     <g transform="translate(252.43976 225.30226)scale(0.16 -0.16)">
      <use xlink:href="#DejaVuSans-84"/>
      <use x="46.333984" xlink:href="#DejaVuSans-114"/>
      <use x="87.447266" xlink:href="#DejaVuSans-97"/>
      <use x="148.726562" xlink:href="#DejaVuSans-105"/>
      <use x="176.509766" xlink:href="#DejaVuSans-110"/>
      <use x="239.888672" xlink:href="#DejaVuSans-105"/>
      <use x="267.671875" xlink:href="#DejaVuSans-110"/>
      <use x="331.050781" xlink:href="#DejaVuSans-103"/>
     </g>
    </g>
   </g>
  </g>
 </g>
 <defs>
  <clipPath id="pc0eab0c1c4">
   <rect height="219.44052" width="368.97452" x="60.02524" y="23.58924"/>
  </clipPath>
 </defs>
</svg>
